<?xml version="1.0" encoding="UTF-8" standalone="no"?>
<!-- Created with Inkscape (http://www.inkscape.org/) -->

<svg
   width="54.206421mm"
   height="47.099106mm"
   viewBox="0 0 54.206421 47.099106"
   version="1.1"
   id="svg5"
   xmlns:inkscape="http://www.inkscape.org/namespaces/inkscape"
   xmlns:sodipodi="http://sodipodi.sourceforge.net/DTD/sodipodi-0.dtd"
   xmlns="http://www.w3.org/2000/svg"
   xmlns:svg="http://www.w3.org/2000/svg">
  <sodipodi:namedview
     id="namedview7"
     pagecolor="#ffffff"
     bordercolor="#000000"
     borderopacity="0.25"
     inkscape:showpageshadow="2"
     inkscape:pageopacity="0.0"
     inkscape:pagecheckerboard="0"
     inkscape:deskcolor="#d1d1d1"
     inkscape:document-units="mm"
     showgrid="false" />
  <defs
     id="defs2" />
  <g
     inkscape:label="Ebene 1"
     inkscape:groupmode="layer"
     id="layer1"
     transform="translate(-143.93317,-148.55427)">
    <path
       id="path10666"
       style="fill:#ff6c7f;fill-opacity:1;stroke-width:0.264583"
       d="m 156.18231,164.13775 -11.3693,11.36929 c -1.17311,1.17312 -1.17312,3.06194 1e-5,4.23507 l 15.03141,15.03141 c 1.17312,1.17312 3.06194,1.17312 4.23506,0 l 11.3693,-11.36929 z"
       inkscape:export-filename="eraser.svg"
       inkscape:export-xdpi="150.58987"
       inkscape:export-ydpi="150.58987"
       sodipodi:nodetypes="ccssscc" />
    <rect
       style="fill:#ff6c7f;fill-opacity:1;stroke-width:0.188968"
       id="rect10668"
       width="13.468853"
       height="3.6309881"
       x="160.09622"
       y="192.02237"
       ry="1.8154941" />
    <path
       style="fill:none;stroke:#ff6c7f;stroke-width:2.365;stroke-linecap:round;stroke-dasharray:none;stroke-opacity:1"
       d="m 177.26402,193.43931 c 0,0 7.57409,-0.0625 5.36649,-9.99392"
       id="path10670" />
    <path
       style="fill:none;stroke:#ff6c7f;stroke-width:2.365;stroke-linecap:round;stroke-dasharray:none;stroke-opacity:1"
       d="m 189.47281,193.43931 c 5.55763,0 7.48428,-4.8564 7.48428,-4.8564"
       id="path10672" />
    <path
       style="fill:none;stroke:#ff6c7f;stroke-width:2.365;stroke-linecap:round;stroke-dasharray:none;stroke-opacity:1"
       d="m 188.04785,187.25985 c 0,0 10.4795,-5.43323 2.0196,-10.61965 -6.22691,-3.66614 -3.74642,9.6792 3.96014,-3.59257"
       id="path10674"
       sodipodi:nodetypes="ccc" />
    <path
       d="m 175.12102,149.43412 c -1.17313,-1.17313 -3.06195,-1.17313 -4.23508,0 l -14.70363,14.70363 19.26648,19.26649 14.70363,-14.70365 c 1.17313,-1.17313 1.17313,-3.06194 0,-4.23507 z"
       style="fill:#0089ff;fill-opacity:1;stroke-width:0.264583"
       id="path10684" />
  </g>
</svg>
