<?xml version="1.0" encoding="UTF-8" standalone="no"?>
<!-- Created with Inkscape (http://www.inkscape.org/) -->

<svg
   width="210mm"
   height="297mm"
   viewBox="0 0 210 297"
   version="1.1"
   id="svg5"
   inkscape:version="1.2.1 (9c6d41e410, 2022-07-14)"
   sodipodi:docname="icons.svg"
   xmlns:inkscape="http://www.inkscape.org/namespaces/inkscape"
   xmlns:sodipodi="http://sodipodi.sourceforge.net/DTD/sodipodi-0.dtd"
   xmlns:xlink="http://www.w3.org/1999/xlink"
   xmlns="http://www.w3.org/2000/svg"
   xmlns:svg="http://www.w3.org/2000/svg">
  <sodipodi:namedview
     id="namedview7"
     pagecolor="#ffffff"
     bordercolor="#000000"
     borderopacity="0.25"
     inkscape:showpageshadow="2"
     inkscape:pageopacity="0.0"
     inkscape:pagecheckerboard="0"
     inkscape:deskcolor="#d1d1d1"
     inkscape:document-units="mm"
     showgrid="false"
     inkscape:zoom="1.2623761"
     inkscape:cx="414.69416"
     inkscape:cy="560.84712"
     inkscape:window-width="2560"
     inkscape:window-height="1377"
     inkscape:window-x="1912"
     inkscape:window-y="-8"
     inkscape:window-maximized="1"
     inkscape:current-layer="layer1" />
  <defs
     id="defs2">
    <linearGradient
       inkscape:collect="always"
       id="linearGradient2375">
      <stop
         style="stop-color:#e50000;stop-opacity:1;"
         offset="0"
         id="stop2371" />
      <stop
         style="stop-color:#ff8d00;stop-opacity:1;"
         offset="0.18122785"
         id="stop4646" />
      <stop
         style="stop-color:#ffee00;stop-opacity:1;"
         offset="0.38535911"
         id="stop4648" />
      <stop
         style="stop-color:#008121;stop-opacity:1;"
         offset="0.61578411"
         id="stop4650" />
      <stop
         style="stop-color:#004cff;stop-opacity:1;"
         offset="0.82489079"
         id="stop4652" />
      <stop
         style="stop-color:#760188;stop-opacity:1;"
         offset="1"
         id="stop2373" />
    </linearGradient>
    <linearGradient
       inkscape:collect="always"
       xlink:href="#linearGradient2375"
       id="linearGradient2377"
       x1="112.73632"
       y1="244.28284"
       x2="107.80231"
       y2="259.50217"
       gradientUnits="userSpaceOnUse" />
  </defs>
  <g
     inkscape:label="Ebene 1"
     inkscape:groupmode="layer"
     id="layer1">
    <path
       id="rect5796"
       style="fill:#000000;stroke-width:0.188806"
       d="M 26.825294,41.971473 C 25.12213,40.268309 23.256007,40.805685 22.227827,41.833865 l -3.687248,3.687248 c -0.639346,0.639346 -1.166293,1.983892 -0.875697,2.941516 -0.015,0.01302 -0.03,0.02618 -0.04431,0.0405 l -6.407356,6.407359 -0.06785,1.059593 -4.5889517,5.084438 c -0.272975,0.302433 -0.3200761,0.720293 -0.071682,0.968686 l 0.2889033,0.288904 c 0.2483925,0.248393 0.6662494,0.201281 0.9686818,-0.07169 l 5.0844398,-4.588951 1.059593,-0.06785 6.407358,-6.407354 c 0.01432,-0.01432 0.02741,-0.02939 0.0405,-0.04431 0.957623,0.290595 2.301783,-0.23674 2.941129,-0.876086 l 3.687248,-3.687249 c 1.028178,-1.028178 1.544313,-2.915545 -0.137221,-4.597079 z m -8.641745,8.209166 0.445005,0.445005 c 0.484319,0.484318 0.01333,0.89765 -0.256854,1.167846 l -4.741097,4.741098 -0.996139,0.06108 -4.5963096,4.472071 C 7.7647035,61.333696 7.500626,61.505383 7.4383695,61.443126 l -0.072614,-0.07261 c -0.06224,-0.06224 0.1093442,-0.326419 0.3753811,-0.599821 l 4.4720646,-4.596318 0.08127,-0.975946 4.741097,-4.741097 c 0.270199,-0.270199 0.727329,-0.697404 1.148041,-0.276665 z"
       inkscape:export-filename="pipette.svg"
       inkscape:export-xdpi="150.58987"
       inkscape:export-ydpi="150.58987"
       sodipodi:nodetypes="csscscccsscccscsscccsccccsscccscc" />
    <path
       id="rect788"
       style="fill:#000000;stroke-width:0.214183"
       d="m 26.822443,13.527595 c -1.77734,-1.777341 -11.836282,8.838476 -11.836282,8.838476 l 2.997804,2.997805 c 0,0 10.615819,-10.058941 8.838478,-11.836281 z m -12.265229,9.267424 -2.705754,2.705753 2.997803,2.997806 2.705754,-2.705756 z m -3.226225,3.156066 c -0.936826,-0.222117 -2.6351052,0.717815 -2.9349531,2.194638 -0.65044,3.203555 -3.532714,3.560291 -3.7110781,4.385622 0.2303103,0.868544 10.4652452,3.472919 9.6895112,-3.536781 z"
       sodipodi:nodetypes="sccsccccccsccc"
       inkscape:export-filename="brush.svg"
       inkscape:export-xdpi="150.58987"
       inkscape:export-ydpi="150.58987" />
    <path
       id="rect5620"
       style="fill:#000000;stroke-width:0.201056"
       d="m 51.922412,10.099642 c -0.402944,0 -0.727604,0.325175 -0.727604,0.728121 v 9.835575 c -1e-6,0.402945 0.32466,0.728121 0.727604,0.728121 h 0.217558 c 0.402944,0 0.727087,-0.325175 0.727087,-0.728121 v -9.835575 c 0,-0.402945 -0.324143,-0.728121 -0.727087,-0.728121 z m 3.632853,4.53254 c -0.24427,0 -0.488756,0.09395 -0.675927,0.28112 l -1.061951,1.06195 v 4.998662 c 0,0.517284 -0.696157,1.462956 -1.561662,1.462959 h -0.467672 c -0.865505,4e-6 -1.562179,-0.945675 -1.562178,-1.462959 v -1.40715 l -0.05168,0.05168 c -0.0017,-7.63e-4 -0.0014,-2.69e-4 -0.0031,-0.001 v 0.0041 l -3.090251,3.090768 c -0.374345,0.374345 -0.369781,0.972483 0,1.351338 l 9.178768,9.403561 c 0.369806,0.378831 0.976475,0.374345 1.350822,0 l 7.799007,-7.799007 c 0.374347,-0.374346 0.374348,-0.976992 0,-1.351339 l -9.178251,-9.40356 c -0.187174,-0.187174 -0.431656,-0.28112 -0.675928,-0.28112 z m -8.946224,3.65404 c -2.492704,0.0094 -6.083434,1.78962 -6.587808,5.241236 -0.428484,2.932271 -0.107414,3.819766 0.382433,5.321493 0.935426,2.867745 -1.235244,6.669419 -0.489248,7.342014 1.026146,0.848256 3.137723,-5.192188 4.359752,-9.277661 1.03245,-3.451673 0.894805,-4.817963 0.894805,-4.817963 1.152492,-1.093656 2.311558,-2.441469 3.452863,-3.582776 C 47.993819,18.36267 47.306999,18.2836 46.609041,18.286222 Z"
       inkscape:export-filename="fill.svg"
       inkscape:export-xdpi="150.58987"
       inkscape:export-ydpi="150.58987"
       sodipodi:nodetypes="sscsssssssscsssscccccccccccssssscscss" />
    <path
       id="rect6234"
       style="fill:#000000;stroke-width:0.264583"
       d="m 108.09676,16.819645 c -1.48045,0 -2.67219,1.19174 -2.67219,2.672188 0,0.181064 0.0182,0.357873 0.0522,0.52865 v 6.039425 c 0,1.151057 0.92685,2.077909 2.07791,2.077909 h 1.18907 c 1.15106,0 2.07791,-0.926852 2.07791,-2.077909 0,-3.608289 0.0409,-3.895369 11.52746,-3.895369 v 28.78739 c 0,2.342147 -1.83275,3.149796 -3.57756,3.175 -0.90422,0.01306 -1.63246,0.728139 -1.63246,1.632458 v 2.079977 c 0,0.904319 0.72814,1.632458 1.63246,1.632458 h 12.4995 c 0.90432,0 1.63246,-0.728139 1.63246,-1.632458 v -2.079977 c 0,-0.904319 -0.72954,-1.582151 -1.63246,-1.632458 -1.69487,-0.09443 -3.57756,-0.819565 -3.57756,-3.175 v -28.78739 c 13.16897,0 13.04726,0.04404 13.04726,3.895369 0,1.151057 0.92686,2.077909 2.07791,2.077909 h 1.18908 c 1.15105,0 2.07739,-0.926852 2.07739,-2.077909 v -6.236312 c 0,-0.05212 -0.002,-0.103381 -0.006,-0.154512 0.004,-0.05859 0.006,-0.117665 0.006,-0.177251 0,-1.480448 -1.19174,-2.672188 -2.67219,-2.672188 z"
       inkscape:export-filename="text.svg"
       inkscape:export-xdpi="150.58987"
       inkscape:export-ydpi="150.58987"
       sodipodi:nodetypes="sscssscccsssssssscccsssscsss" />
    <path
       id="rect6322"
       style="fill:#000000;stroke-width:0.264583"
       d="m 183.42807,14.114599 c -1.17313,-1.17313 -3.06195,-1.17313 -4.23508,0 l -14.70363,14.703635 19.26648,19.26648 14.70363,-14.70364 c 1.17313,-1.17313 1.17313,-3.06194 0,-4.23507 z m -20.53883,16.303755 -11.3693,11.36929 c -1.17311,1.17312 -1.17312,3.06194 1e-5,4.23507 l 15.03141,15.03141 c 1.17312,1.17312 3.06194,1.17312 4.23506,0 l 11.3693,-11.36929 z m -0.17868,4.05785 15.38694,15.38694 -7.37904,7.37905 c -1.10168,1.10168 -2.87542,1.10167 -3.97709,-10e-6 l -11.40949,-11.40948 c -1.10168,-1.10168 -1.10205,-2.87578 -3.7e-4,-3.97746 z"
       inkscape:export-filename="eraser.svg"
       inkscape:export-xdpi="150.58987"
       inkscape:export-ydpi="150.58987" />
    <rect
       style="fill:#000000;stroke-width:0.188968"
       id="rect6417"
       width="13.468853"
       height="3.6309881"
       x="166.80315"
       y="58.302975"
       ry="1.8154941" />
    <path
       style="fill:none;stroke:#000000;stroke-width:2.365;stroke-linecap:round;stroke-dasharray:none;stroke-opacity:1"
       d="m 183.97095,59.719914 c 0,0 7.57409,-0.0625 5.36649,-9.99392"
       id="path6642" />
    <path
       style="fill:none;stroke:#000000;stroke-width:2.365;stroke-linecap:round;stroke-dasharray:none;stroke-opacity:1"
       d="m 196.17974,59.719914 c 5.55763,0 7.48428,-4.8564 7.48428,-4.8564"
       id="path6644" />
    <path
       style="fill:none;stroke:#000000;stroke-width:2.365;stroke-linecap:round;stroke-dasharray:none;stroke-opacity:1"
       d="m 194.75478,53.540454 c 0,0 10.4795,-5.43323 2.0196,-10.61965 -6.22691,-3.66614 -3.74642,9.6792 3.96014,-3.59257"
       id="path6646"
       sodipodi:nodetypes="ccc" />
    <path
       id="rect6772"
       style="fill:#000000;fill-opacity:1;stroke:none;stroke-width:1.85599;stroke-linecap:round;stroke-dasharray:none;stroke-opacity:1"
       d="m 172.8182,69.154524 c -0.58057,0.0174 -1.13281,0.34653 -1.71927,0.89607 l -11.62668,11.90264 c -0.39426,0.39694 -0.92735,2.23705 0.97358,2.23707 h 10.09189 v 38.414186 h -10.09189 c -1.90093,2e-5 -1.36784,1.84013 -0.97358,2.23707 l 11.62668,11.90264 c 0.58646,0.54954 1.1387,0.87867 1.71927,0.89607 0.0496,0.001 0.0999,4.1e-4 0.14986,-0.003 0.05,0.003 0.1003,0.004 0.14987,0.003 0.58056,-0.0174 1.13281,-0.34653 1.71927,-0.89607 l 11.62668,-11.90264 c 0.39426,-0.39694 0.92735,-2.23705 -0.97358,-2.23707 H 175.39841 V 84.190304 h 10.09189 c 1.90093,-2e-5 1.36784,-1.84013 0.97358,-2.23707 L 174.8372,70.050594 c -0.58646,-0.54954 -1.13871,-0.87867 -1.71927,-0.89607 -0.0496,-0.0015 -0.0999,-10e-6 -0.14987,0.0031 -0.05,-0.003 -0.10029,-0.0041 -0.14986,-0.0031 z" />
    <path
       id="path7064"
       style="fill:#000000;fill-opacity:1;stroke:none;stroke-width:1.85599;stroke-linecap:round;stroke-dasharray:none;stroke-opacity:1"
       d="m 207.21087,103.24747 c -0.0174,-0.58057 -0.34653,-1.13282 -0.89607,-1.71928 L 194.41216,89.901514 c -0.39694,-0.39425 -2.23705,-0.92735 -2.23707,0.97359 V 100.96699 H 153.7609 V 90.875104 c -2e-5,-1.90094 -1.84013,-1.36784 -2.23707,-0.97359 l -11.90264,11.626676 c -0.54954,0.58646 -0.87867,1.13871 -0.89607,1.71928 -0.001,0.0496 -4.1e-4,0.0999 0.003,0.14986 -0.003,0.05 -0.004,0.10029 -0.003,0.14986 0.0174,0.58057 0.34653,1.13282 0.89607,1.71928 l 11.90264,11.62668 c 0.39694,0.39425 2.23705,0.92735 2.23707,-0.97359 v -10.09189 h 38.41419 v 10.09189 c 2e-5,1.90094 1.84013,1.36784 2.23707,0.97359 l 11.90264,-11.62668 c 0.54954,-0.58646 0.87867,-1.13871 0.89607,-1.71928 0.001,-0.0496 1e-5,-0.0998 -0.003,-0.14986 0.003,-0.05 0.004,-0.10029 0.003,-0.14986 z" />
    <path
       id="path7150"
       style="fill:#000000;fill-opacity:1;stroke:none;stroke-width:0.599121;stroke-linecap:round;stroke-dasharray:none;stroke-opacity:1"
       d="m 119.45154,77.548973 v 4.936851 h -3.2577 c -0.61363,6e-6 -0.44155,0.594001 -0.31428,0.722135 l 3.75314,3.842222 c 0.18931,0.177394 0.36758,0.283638 0.55499,0.289255 0.016,3.23e-4 0.0322,10e-5 0.0484,-9.68e-4 0.0161,9.68e-4 0.0324,0.0013 0.0484,9.68e-4 0.18741,-0.0056 0.36568,-0.111861 0.55499,-0.289255 l 3.75314,-3.842222 c 0.12727,-0.128134 0.29935,-0.722129 -0.31428,-0.722135 h -3.2577 v -4.936851 z"
       inkscape:export-filename="save.svg"
       inkscape:export-xdpi="150.58987"
       inkscape:export-ydpi="150.58987" />
    <path
       id="rect7209"
       style="color:#000000;fill:#000000;stroke-width:0.322804;stroke-linecap:round;stroke-linejoin:round;-inkscape-stroke:none"
       d="m 106.52899,88.076146 a 0.38175413,0.38175413 0 0 0 -0.006,0.0012 0.38175413,0.38175413 0 0 0 -0.11527,0.02135 0.38175413,0.38175413 0 0 0 -0.0262,0.01084 0.38175413,0.38175413 0 0 0 -0.0916,0.05488 0.38175413,0.38175413 0 0 0 -0.014,0.01084 0.38175413,0.38175413 0 0 0 -0.12027,0.222529 0.38175413,0.38175413 0 0 0 -0.002,0.01785 0.38175413,0.38175413 0 0 0 -0.005,0.04187 v 2.785455 a 0.38175413,0.38175413 0 0 0 0.27924,0.367658 l 12.84549,3.560804 a 0.39134561,0.39134561 0 0 0 0.20718,0.0612 h 15.57089 a 0.39134561,0.39134561 0 0 0 0.39168,-0.39151 v -2.78663 a 0.39134561,0.39134561 0 0 0 -0.3408,-0.387836 l -12.90439,-3.576655 a 0.38175413,0.38175413 0 0 0 -0.10209,-0.01385 z m 2.80447,0.762838 h 12.70903 l 10.18731,2.823991 h -12.70786 z m -2.42297,0.120442 12.17757,3.375636 v 1.99293 l -12.17757,-3.375644 z m 12.96009,3.485906 h 14.78837 v 0.67693 c -0.0823,-0.0308 -0.17155,-0.0477 -0.26491,-0.0477 H 122.7713 c -0.41629,0 -0.75133,0.33521 -0.75133,0.7515 v 0.45906 c 0,0.0568 0.006,0.11203 0.0182,0.16515 h -2.16757 z" />
    <path
       id="rect7557"
       style="color:#000000;fill:#000000;stroke-linecap:round;stroke-linejoin:round"
       d="m 72.041863,93.451459 v 9.745651 h -6.431132 c -1.211326,2e-5 -0.871354,1.17229 -0.620117,1.42524 l 7.40885,7.58507 c 0.373705,0.35018 0.725585,0.55993 1.095541,0.57102 0.03158,6.3e-4 0.06362,1.2e-4 0.0956,-0.002 0.03178,0.002 0.06351,0.003 0.09509,0.002 0.369954,-0.0111 0.721835,-0.22084 1.09554,-0.57102 l 7.40885,-7.58507 c 0.251236,-0.25295 0.59121,-1.42522 -0.620117,-1.42524 h -6.431132 v -9.745651 z m -15.405778,5.273575 c -1.960474,0 -3.578076,1.617596 -3.578076,3.578076 v 17.66611 c 0,1.96045 1.617602,3.57807 3.578076,3.57807 H 90.54461 c 1.960474,0 3.578076,-1.61762 3.578076,-3.57807 v -6.92568 -9.36894 -1.37149 c 0,-1.96048 -1.617602,-3.578076 -3.578076,-3.578076 H 77.91334 v 2.013836 c 0,0.16692 -0.01808,0.32947 -0.05116,0.48627 h 12.68243 c 0.541203,0 0.960239,0.35156 1.056783,0.8537 h -2.67994 c -0.877814,0 -1.595768,0.71794 -1.595768,1.59576 v 9.36894 c 0,0.87781 0.717954,1.59577 1.595768,1.59577 h 2.701127 v 1.35444 H 55.558115 v -13.69064 c 0,-0.61872 0.459249,-1.07797 1.07797,-1.07797 h 12.68243 c -0.03308,-0.1568 -0.05116,-0.31935 -0.05116,-0.48627 v -2.013836 z m 32.285368,4.076236 h 2.701127 v 0.60978 h -1.82056 c -0.571721,0 -1.031979,0.46026 -1.031979,1.03198 v 7.83157 c 0,0.57171 0.460258,1.03197 1.031979,1.03197 h 1.82056 v 0.60979 h -2.701127 c -0.490025,0 -0.872815,-0.3828 -0.872815,-0.87282 v -9.36894 c 0,-0.49003 0.38279,-0.87333 0.872815,-0.87333 z m 0.958081,1.40922 h 3.286105 c 0.01077,0 0.02189,0.003 0.03204,0.008 l 5.17e-4,5.2e-4 c 0.01957,0.01 0.03762,0.0274 0.05374,0.0522 0.0014,0.002 0.0027,0.004 0.0041,0.007 0.04062,0.0669 0.06718,0.17737 0.06718,0.30334 0,0.12503 -0.02603,0.23475 -0.06615,0.30179 -0.0028,0.005 -0.0059,0.009 -0.0088,0.0134 -0.0053,0.008 -0.01088,0.0145 -0.01654,0.0207 -0.0023,0.003 -0.0049,0.005 -0.0072,0.007 -0.0085,0.008 -0.01713,0.0146 -0.02635,0.0191 l -5.17e-4,5.2e-4 h -5.17e-4 c -0.01015,0.005 -0.02075,0.008 -0.03152,0.008 h -3.286105 c -0.08753,0 -0.15813,-0.16526 -0.15813,-0.37052 0,-0.20526 0.0706,-0.37052 0.15813,-0.37052 z m 0,1.05833 h 3.286105 c 0.01077,0 0.02189,0.003 0.03204,0.008 l 5.17e-4,5.2e-4 c 0.0092,0.004 0.01781,0.011 0.02635,0.0191 0.0024,0.002 0.0049,0.005 0.0072,0.007 0.0064,0.007 0.01274,0.0145 0.0186,0.0233 0.0023,0.003 0.0045,0.007 0.0067,0.0108 0.04011,0.067 0.06615,0.17676 0.06615,0.30179 0,0.12504 -0.02603,0.23476 -0.06615,0.30179 -0.0028,0.005 -0.0059,0.009 -0.0088,0.0134 -0.0053,0.008 -0.01088,0.0145 -0.01654,0.0207 -0.0023,0.003 -0.0049,0.005 -0.0072,0.007 -0.0085,0.008 -0.01713,0.0146 -0.02635,0.0191 l -5.17e-4,5.2e-4 h -5.17e-4 c -0.01015,0.005 -0.02075,0.008 -0.03152,0.008 h -3.286105 c -0.08753,0 -0.15813,-0.16526 -0.15813,-0.37052 0,-0.20526 0.0706,-0.37052 0.15813,-0.37052 z m 0,1.05833 h 3.286105 c 0.01077,0 0.02189,0.003 0.03204,0.008 l 5.17e-4,5.1e-4 c 0.0092,0.005 0.01781,0.011 0.02635,0.0191 0.0024,0.002 0.0049,0.005 0.0072,0.007 0.0064,0.007 0.01274,0.0145 0.0186,0.0233 0.0023,0.003 0.0045,0.007 0.0067,0.0109 0.04011,0.067 0.06615,0.17676 0.06615,0.30179 0,0.12505 -0.02603,0.23476 -0.06615,0.3018 -0.0028,0.005 -0.0059,0.009 -0.0088,0.0134 -0.0053,0.008 -0.01088,0.0145 -0.01654,0.0207 -0.0023,0.003 -0.0049,0.005 -0.0072,0.007 -0.0085,0.008 -0.01713,0.0146 -0.02635,0.0191 l -5.17e-4,5.1e-4 h -5.17e-4 c -0.01015,0.005 -0.02075,0.008 -0.03152,0.008 h -3.286105 c -0.08753,0 -0.15813,-0.16525 -0.15813,-0.37052 0,-0.20526 0.0706,-0.37052 0.15813,-0.37052 z m 0,1.05834 h 3.286105 c 0.01077,0 0.02189,0.003 0.03204,0.008 l 5.17e-4,5.2e-4 c 0.0092,0.004 0.01781,0.011 0.02635,0.0191 0.0024,0.002 0.0049,0.005 0.0072,0.007 0.0064,0.007 0.01274,0.0145 0.0186,0.0233 0.0023,0.003 0.0045,0.007 0.0067,0.0109 0.04011,0.067 0.06615,0.17675 0.06615,0.30179 0,0.12503 -0.02603,0.23475 -0.06615,0.30179 -0.0028,0.005 -0.0059,0.009 -0.0088,0.0134 -0.0053,0.008 -0.01088,0.0145 -0.01654,0.0207 -0.0023,0.003 -0.0049,0.005 -0.0072,0.007 -0.0085,0.008 -0.01713,0.0146 -0.02635,0.0191 l -5.17e-4,5.2e-4 h -5.17e-4 c -0.01015,0.005 -0.02075,0.008 -0.03152,0.008 h -3.286105 c -0.08753,0 -0.15813,-0.16526 -0.15813,-0.37052 0,-0.20526 0.0706,-0.37052 0.15813,-0.37052 z m 0,1.05833 h 3.286105 c 0.01077,0 0.02189,0.003 0.03204,0.008 l 5.17e-4,5.2e-4 c 0.0092,0.005 0.01781,0.011 0.02635,0.0191 0.0024,0.002 0.0049,0.005 0.0072,0.007 0.0064,0.007 0.01274,0.0145 0.0186,0.0233 0.0023,0.003 0.0045,0.007 0.0067,0.0109 0.04011,0.067 0.06615,0.17676 0.06615,0.30179 0,0.12504 -0.02603,0.23476 -0.06615,0.30179 -0.0028,0.005 -0.0059,0.009 -0.0088,0.0134 -0.0053,0.008 -0.01088,0.0145 -0.01654,0.0207 -0.0023,0.003 -0.0049,0.005 -0.0072,0.007 -0.0085,0.008 -0.01713,0.0146 -0.02635,0.0191 l -5.17e-4,5.2e-4 h -5.17e-4 c -0.01015,0.005 -0.02075,0.008 -0.03152,0.008 h -3.286105 c -0.08753,0 -0.15813,-0.16526 -0.15813,-0.37052 0,-0.20526 0.0706,-0.37052 0.15813,-0.37052 z m 0,1.05833 h 3.286105 c 0.01077,0 0.02189,0.003 0.03204,0.008 l 5.17e-4,5.1e-4 c 0.0092,0.005 0.01781,0.011 0.02635,0.0191 0.0024,0.002 0.0049,0.005 0.0072,0.007 0.0064,0.007 0.01274,0.0145 0.0186,0.0233 0.0023,0.003 0.0045,0.007 0.0067,0.0109 0.04011,0.067 0.06615,0.17676 0.06615,0.30179 0,0.12505 -0.02603,0.23476 -0.06615,0.3018 -0.0028,0.005 -0.0059,0.009 -0.0088,0.0134 -0.0053,0.008 -0.01088,0.0145 -0.01654,0.0207 -0.0023,0.003 -0.0049,0.005 -0.0072,0.007 -0.0085,0.008 -0.01713,0.0146 -0.02635,0.0191 l -5.17e-4,5.1e-4 h -5.17e-4 c -0.01015,0.005 -0.02075,0.008 -0.03152,0.008 h -3.286105 c -0.08753,0 -0.15813,-0.16525 -0.15813,-0.37052 0,-0.20526 0.0706,-0.37052 0.15813,-0.37052 z m 0,1.05834 h 3.286105 c 0.01077,0 0.02189,0.003 0.03204,0.008 l 5.17e-4,5.2e-4 c 0.0092,0.004 0.01781,0.011 0.02635,0.0191 0.0024,0.002 0.0049,0.005 0.0072,0.007 0.0064,0.007 0.01274,0.0145 0.0186,0.0233 0.0023,0.003 0.0045,0.007 0.0067,0.0109 0.04011,0.067 0.06615,0.17675 0.06615,0.30179 0,0.12503 -0.02603,0.23475 -0.06615,0.30179 -0.0028,0.005 -0.0059,0.009 -0.0088,0.0134 -0.0053,0.008 -0.01088,0.0145 -0.01654,0.0207 -0.0023,0.003 -0.0049,0.005 -0.0072,0.007 -0.0085,0.008 -0.01713,0.0146 -0.02635,0.0191 l -5.17e-4,5.2e-4 h -5.17e-4 c -0.01015,0.005 -0.02075,0.008 -0.03152,0.008 h -3.286105 c -0.08753,0 -0.15813,-0.16526 -0.15813,-0.37052 0,-0.20526 0.0706,-0.37052 0.15813,-0.37052 z m 0,1.05833 h 3.286105 c 0.01077,0 0.02189,0.003 0.03204,0.008 l 5.17e-4,5.2e-4 c 0.0092,0.005 0.01781,0.011 0.02635,0.0191 0.0024,0.002 0.0049,0.005 0.0072,0.007 0.0064,0.007 0.01274,0.0145 0.0186,0.0233 0.0023,0.003 0.0045,0.007 0.0067,0.0109 0.04011,0.067 0.06615,0.17676 0.06615,0.30179 0,0.12504 -0.02603,0.23476 -0.06615,0.30179 -0.0028,0.005 -0.0059,0.009 -0.0088,0.0134 -0.0053,0.008 -0.01088,0.0145 -0.01654,0.0207 -0.0023,0.003 -0.0049,0.005 -0.0072,0.007 -0.0085,0.008 -0.01713,0.0146 -0.02635,0.0191 l -5.17e-4,5.2e-4 h -5.17e-4 c -0.01015,0.005 -0.02075,0.008 -0.03152,0.008 h -3.286105 c -0.08753,0 -0.15813,-0.16526 -0.15813,-0.37052 0,-0.20526 0.0706,-0.37052 0.15813,-0.37052 z m -34.321419,6.47041 H 91.62258 v 1.87999 c 0,0.61872 -0.459248,1.07848 -1.07797,1.07848 H 56.636085 c -0.618721,0 -1.07797,-0.45976 -1.07797,-1.07848 z"
       inkscape:export-filename="save.svg"
       inkscape:export-xdpi="150.58987"
       inkscape:export-ydpi="150.58987" />
    <path
       id="path10666"
       style="fill:#ff6c7f;stroke-width:0.264583;fill-opacity:1"
       d="m 156.18231,164.13775 -11.3693,11.36929 c -1.17311,1.17312 -1.17312,3.06194 1e-5,4.23507 l 15.03141,15.03141 c 1.17312,1.17312 3.06194,1.17312 4.23506,0 l 11.3693,-11.36929 z"
       inkscape:export-filename="eraser_colored.svg"
       inkscape:export-xdpi="150.58987"
       inkscape:export-ydpi="150.58987"
       sodipodi:nodetypes="ccssscc" />
    <rect
       style="fill:#ff6c7f;stroke-width:0.188968;fill-opacity:1"
       id="rect10668"
       width="13.468853"
       height="3.6309881"
       x="160.09622"
       y="192.02237"
       ry="1.8154941" />
    <path
       style="fill:none;stroke:#ff6c7f;stroke-width:2.365;stroke-linecap:round;stroke-dasharray:none;stroke-opacity:1"
       d="m 177.26402,193.43931 c 0,0 7.57409,-0.0625 5.36649,-9.99392"
       id="path10670" />
    <path
       style="fill:none;stroke:#ff6c7f;stroke-width:2.365;stroke-linecap:round;stroke-dasharray:none;stroke-opacity:1"
       d="m 189.47281,193.43931 c 5.55763,0 7.48428,-4.8564 7.48428,-4.8564"
       id="path10672" />
    <path
       style="fill:none;stroke:#ff6c7f;stroke-width:2.365;stroke-linecap:round;stroke-dasharray:none;stroke-opacity:1"
       d="m 188.04785,187.25985 c 0,0 10.4795,-5.43323 2.0196,-10.61965 -6.22691,-3.66614 -3.74642,9.6792 3.96014,-3.59257"
       id="path10674"
       sodipodi:nodetypes="ccc" />
    <path
       d="m 175.12102,149.43412 c -1.17313,-1.17313 -3.06195,-1.17313 -4.23508,0 l -14.70363,14.70363 19.26648,19.26649 14.70363,-14.70365 c 1.17313,-1.17313 1.17313,-3.06194 0,-4.23507 z"
       style="fill:#0089ff;stroke-width:0.264583;fill-opacity:1"
       id="path10684" />
    <path
       id="rect12484"
       style="fill:#808080;fill-opacity:1;stroke:none;stroke-width:1.59575;stroke-linecap:round;stroke-linejoin:round;stroke-dasharray:none;stroke-opacity:1;paint-order:fill markers stroke"
       d="m 102.70873,138.31909 c -9.810097,8e-5 -17.762715,7.76506 -17.762745,17.34364 0.0049,8.23455 5.939373,15.33052 14.201715,16.9814 -0.0528,0.22264 -0.08165,0.45476 -0.08165,0.69401 v 23.77788 c 0,1.64944 1.328156,2.97759 2.977596,2.97759 l 1.2609,0 c 1.64944,0 2.9776,-1.32815 2.9776,-2.97759 l 0,-23.77788 c 0,-0.23483 -0.0281,-0.46272 -0.0791,-0.68161 8.29352,-1.62484 14.26303,-8.73459 14.26838,-16.9938 -4e-5,-9.57857 -7.95265,-17.34355 -17.76274,-17.34364 z"
       sodipodi:nodetypes="cccsssssscccc"
       inkscape:export-filename="zoom.svg"
       inkscape:export-xdpi="150.58987"
       inkscape:export-ydpi="150.58987" />
    <ellipse
       style="fill:#1ad1e6;fill-opacity:1;stroke:none;stroke-width:1.30334;stroke-linecap:round;stroke-linejoin:round;stroke-dasharray:none;stroke-opacity:1;paint-order:fill markers stroke"
       id="ellipse12860"
       cx="102.70866"
       cy="155.66281"
       rx="14.375502"
       ry="14.036257" />
    <ellipse
       style="fill:#c0f2f8;fill-opacity:1;stroke:none;stroke-width:0.472812;stroke-linecap:round;stroke-linejoin:round;stroke-dasharray:none;stroke-opacity:1;paint-order:fill markers stroke"
       id="ellipse12863"
       cx="97.903618"
       cy="150.75294"
       rx="5.2150049"
       ry="5.0919371" />
    <ellipse
       style="fill:#999999;fill-opacity:1;stroke:none;stroke-width:1.63362;stroke-linecap:round;stroke-linejoin:round;stroke-dasharray:none;stroke-opacity:1;paint-order:fill markers stroke"
       id="ellipse12989"
       cx="157.16464"
       cy="67.95826"
       rx="18.018354"
       ry="17.593143"
       transform="rotate(45)"
       inkscape:export-filename="zoom.svg"
       inkscape:export-xdpi="150.58987"
       inkscape:export-ydpi="150.58987" />
    <ellipse
       style="fill:#9cebf4;fill-opacity:1;stroke:none;stroke-width:1.30334;stroke-linecap:round;stroke-linejoin:round;stroke-dasharray:none;stroke-opacity:1;paint-order:fill markers stroke"
       id="ellipse12987"
       cx="157.16464"
       cy="67.95826"
       rx="14.375502"
       ry="14.036257"
       transform="rotate(45)" />
    <rect
       style="fill:#999999;fill-opacity:1;stroke:none;stroke-width:1.83615;stroke-linecap:round;stroke-linejoin:round;stroke-dasharray:none;stroke-opacity:1;paint-order:fill markers stroke"
       id="rect12991"
       width="6.2986526"
       height="21.360577"
       x="154.0153"
       y="88.128555"
       ry="0"
       transform="rotate(45)" />
    <rect
       style="fill:#666666;fill-opacity:1;stroke:none;stroke-width:0.672127;stroke-linecap:round;stroke-linejoin:round;stroke-dasharray:none;stroke-opacity:1;paint-order:fill markers stroke"
       id="rect12993"
       width="6.2986526"
       height="2.8621829"
       x="154.0153"
       y="85.266373"
       ry="0.020922389"
       transform="rotate(45)" />
    <path
       id="rect13006"
       style="fill:#666666;fill-opacity:1;stroke:none;stroke-width:0.657837;stroke-linecap:round;stroke-linejoin:round;stroke-dasharray:none;stroke-opacity:1;paint-order:fill markers stroke"
       d="m 31.484875,186.32591 -0.815952,0.81595 c -0.537026,0.53703 -0.537394,1.40146 -3.68e-4,1.93849 l 2.5151,2.5151 c 0.537025,0.53703 1.401829,0.53702 1.938855,0 l 0.815952,-0.81595 z"
       sodipodi:nodetypes="csssscc" />
    <path
       id="ellipse13232"
       style="fill:#4ddcee;fill-opacity:1;stroke:none;stroke-width:1.51293;stroke-linecap:round;stroke-linejoin:round;stroke-dasharray:none;stroke-opacity:1;paint-order:fill markers stroke"
       d="M 63.07832 150.91224 A 16.687252 16.293453 0 0 0 48.878153 158.66835 A 14.375502 14.036257 45 0 0 53.153345 169.11112 A 14.375502 14.036257 45 0 0 73.243591 169.3509 A 14.375502 14.036257 45 0 0 77.25575 158.61254 A 16.687252 16.293453 0 0 0 63.07832 150.91224 z " />
    <path
       id="path13319"
       style="color:#000000;fill:#000000;stroke-linecap:round;stroke-linejoin:round"
       d="M 23.445081 76.506958 C 22.841474 76.506958 22.413619 76.92096 22.413619 77.565291 L 22.413619 90.107161 L 13.788306 90.107161 C 12.163642 90.107188 12.619349 91.679409 12.956315 92.018673 L 22.893176 102.19221 C 23.3944 102.66188 23.866659 102.94318 24.362854 102.95806 C 24.405214 102.9589 24.448121 102.95812 24.491012 102.95496 C 24.533632 102.95796 24.576295 102.95906 24.618652 102.95806 C 25.114846 102.94316 25.586591 102.66188 26.087813 102.19221 L 36.024674 92.018673 C 36.361639 91.679409 36.817866 90.107188 35.193201 90.107161 L 26.567371 90.107161 L 26.567371 77.565291 C 26.567371 76.96925 26.185458 76.506958 25.497668 76.506958 L 23.445081 76.506958 z M 7.5364909 98.72524 C 5.5760207 98.72524 3.9584147 100.34284 3.9584147 102.30332 L 3.9584147 119.96942 C 3.9584147 121.92987 5.5760207 123.5475 7.5364909 123.5475 L 41.445015 123.5475 C 43.405487 123.5475 45.023092 121.92987 45.023092 119.96942 L 45.023092 113.04375 L 45.023092 103.67481 L 45.023092 102.30332 C 45.023092 100.34284 43.405487 98.72524 41.445015 98.72524 L 33.024341 98.72524 L 30.582113 101.22535 L 41.445015 101.22535 C 41.986218 101.22535 42.405255 101.5769 42.501799 102.07904 L 39.821859 102.07904 C 38.944047 102.07904 38.22609 102.79699 38.22609 103.67481 L 38.22609 113.04375 C 38.22609 113.92156 38.944047 114.63951 39.821859 114.63951 L 42.522986 114.63951 L 42.522986 115.99395 L 6.4585205 115.99395 L 6.4585205 102.30332 C 6.4585205 101.6846 6.9177711 101.22535 7.5364909 101.22535 L 18.398877 101.22535 L 15.956649 98.72524 L 7.5364909 98.72524 z M 39.821859 102.80148 L 42.522986 102.80148 L 42.522986 103.41126 L 40.702425 103.41126 C 40.130706 103.41126 39.670447 103.87152 39.670447 104.44324 L 39.670447 112.2748 C 39.670447 112.84651 40.130706 113.30678 40.702425 113.30678 L 42.522986 113.30678 L 42.522986 113.91656 L 39.821859 113.91656 C 39.331834 113.91656 38.949044 113.53377 38.949044 113.04375 L 38.949044 103.67481 C 38.949044 103.18478 39.331834 102.80148 39.821859 102.80148 z M 40.77994 104.21069 L 44.066044 104.21069 C 44.076814 104.21069 44.087935 104.21344 44.098083 104.21844 L 44.0986 104.21896 C 44.11817 104.22896 44.136224 104.24635 44.152344 104.27115 C 44.153744 104.27315 44.155078 104.27539 44.156478 104.27839 C 44.197098 104.34529 44.223657 104.45576 44.223657 104.58173 C 44.223657 104.70676 44.197631 104.81648 44.157511 104.88352 C 44.154711 104.88852 44.151626 104.89256 44.148726 104.89696 C 44.143426 104.90496 44.13785 104.91143 44.13219 104.91763 C 44.12989 104.92063 44.127255 104.92234 44.124955 104.92434 C 44.116455 104.93234 44.10782 104.93897 44.0986 104.94347 L 44.098083 104.94398 L 44.097567 104.94398 C 44.087417 104.94898 44.076814 104.95225 44.066044 104.95225 L 40.77994 104.95225 C 40.69241 104.95225 40.62181 104.78699 40.62181 104.58173 C 40.62181 104.37647 40.69241 104.21121 40.77994 104.21121 L 40.77994 104.21069 z M 40.77994 105.26903 L 44.066044 105.26903 C 44.076814 105.26903 44.087935 105.27178 44.098083 105.27678 L 44.0986 105.27729 C 44.1078 105.28129 44.116415 105.28832 44.124955 105.29642 C 44.127355 105.29842 44.12989 105.30165 44.13219 105.30365 C 44.13859 105.31065 44.144933 105.3181 44.150793 105.3269 C 44.153093 105.3299 44.155311 105.33396 44.157511 105.33776 C 44.197621 105.40476 44.223657 105.51452 44.223657 105.63955 C 44.223657 105.76459 44.197631 105.87431 44.157511 105.94134 C 44.154711 105.94634 44.151626 105.95037 44.148726 105.95477 C 44.143426 105.96277 44.13785 105.96924 44.13219 105.97544 C 44.12989 105.97844 44.127255 105.98016 44.124955 105.98216 C 44.116455 105.99016 44.10782 105.99678 44.0986 106.00128 L 44.098083 106.0018 L 44.097567 106.0018 C 44.087417 106.0068 44.076814 106.01007 44.066044 106.01007 L 40.77994 106.01007 C 40.69241 106.01007 40.62181 105.84481 40.62181 105.63955 C 40.62181 105.43429 40.69241 105.26903 40.77994 105.26903 z M 40.77994 106.32736 L 44.066044 106.32736 C 44.076814 106.32736 44.087935 106.33011 44.098083 106.33511 L 44.0986 106.33563 C 44.1078 106.34063 44.116415 106.34665 44.124955 106.35475 C 44.127355 106.35675 44.12989 106.35998 44.13219 106.36198 C 44.13859 106.36898 44.144933 106.37644 44.150793 106.38524 C 44.153093 106.38824 44.155311 106.39219 44.157511 106.39609 C 44.197621 106.46309 44.223657 106.57285 44.223657 106.69788 C 44.223657 106.82293 44.197631 106.93263 44.157511 106.99967 C 44.154711 107.00467 44.151626 107.00871 44.148726 107.01311 C 44.143426 107.02111 44.13785 107.02758 44.13219 107.03378 C 44.12989 107.03678 44.127255 107.03849 44.124955 107.04049 C 44.116455 107.04849 44.10782 107.05512 44.0986 107.05962 L 44.098083 107.06013 L 44.097567 107.06013 C 44.087417 107.06513 44.076814 107.0684 44.066044 107.0684 L 40.77994 107.0684 C 40.69241 107.0684 40.62181 106.90315 40.62181 106.69788 C 40.62181 106.49262 40.69241 106.32736 40.77994 106.32736 z M 40.77994 107.38569 L 44.066044 107.38569 C 44.076814 107.38569 44.087935 107.38844 44.098083 107.39344 L 44.0986 107.39396 C 44.1078 107.39796 44.116415 107.40498 44.124955 107.41308 C 44.127355 107.41508 44.12989 107.41832 44.13219 107.42032 C 44.13859 107.42732 44.144933 107.43477 44.150793 107.44357 C 44.153093 107.44657 44.155311 107.45052 44.157511 107.45442 C 44.197621 107.52142 44.223657 107.63117 44.223657 107.75621 C 44.223657 107.88124 44.197631 107.99096 44.157511 108.058 C 44.154711 108.063 44.151626 108.06704 44.148726 108.07144 C 44.143426 108.07944 44.13785 108.08591 44.13219 108.09211 C 44.12989 108.09511 44.127255 108.09683 44.124955 108.09883 C 44.116455 108.10683 44.10782 108.11345 44.0986 108.11795 L 44.098083 108.11847 L 44.097567 108.11847 C 44.087417 108.12347 44.076814 108.12673 44.066044 108.12673 L 40.77994 108.12673 C 40.69241 108.12673 40.62181 107.96147 40.62181 107.75621 C 40.62181 107.55095 40.69241 107.38569 40.77994 107.38569 z M 40.77994 108.44403 L 44.066044 108.44403 C 44.076814 108.44403 44.087935 108.44678 44.098083 108.45178 L 44.0986 108.45229 C 44.1078 108.45729 44.116415 108.46332 44.124955 108.47142 C 44.127355 108.47342 44.12989 108.47665 44.13219 108.47865 C 44.13859 108.48565 44.144933 108.4931 44.150793 108.5019 C 44.153093 108.5049 44.155311 108.50886 44.157511 108.51276 C 44.197621 108.57976 44.223657 108.68952 44.223657 108.81455 C 44.223657 108.93959 44.197631 109.04931 44.157511 109.11634 C 44.154711 109.12134 44.151626 109.12537 44.148726 109.12977 C 44.143426 109.13777 44.13785 109.14424 44.13219 109.15044 C 44.12989 109.15344 44.127255 109.15516 44.124955 109.15716 C 44.116455 109.16516 44.10782 109.17178 44.0986 109.17628 L 44.098083 109.1768 L 44.097567 109.1768 C 44.087417 109.1818 44.076814 109.18507 44.066044 109.18507 L 40.77994 109.18507 C 40.69241 109.18507 40.62181 109.01981 40.62181 108.81455 C 40.62181 108.60929 40.69241 108.44403 40.77994 108.44403 z M 40.77994 109.50236 L 44.066044 109.50236 C 44.076814 109.50236 44.087935 109.50511 44.098083 109.51011 L 44.0986 109.51063 C 44.1078 109.51563 44.116415 109.52165 44.124955 109.52975 C 44.127355 109.53175 44.12989 109.53498 44.13219 109.53698 C 44.13859 109.54398 44.144933 109.55144 44.150793 109.56024 C 44.153093 109.56324 44.155311 109.56719 44.157511 109.57109 C 44.197621 109.63809 44.223657 109.74785 44.223657 109.87288 C 44.223657 109.99793 44.197631 110.10763 44.157511 110.17467 C 44.154711 110.17967 44.151626 110.18371 44.148726 110.18811 C 44.143426 110.19611 44.13785 110.20258 44.13219 110.20878 C 44.12989 110.21178 44.127255 110.21349 44.124955 110.21549 C 44.116455 110.22349 44.10782 110.23012 44.0986 110.23462 L 44.098083 110.23513 L 44.097567 110.23513 C 44.087417 110.24013 44.076814 110.2434 44.066044 110.2434 L 40.77994 110.2434 C 40.69241 110.2434 40.62181 110.07815 40.62181 109.87288 C 40.62181 109.66762 40.69241 109.50236 40.77994 109.50236 z M 40.77994 110.56069 L 44.066044 110.56069 C 44.076814 110.56069 44.087935 110.56344 44.098083 110.56844 L 44.0986 110.56896 C 44.1078 110.57296 44.116415 110.57998 44.124955 110.58808 C 44.127355 110.59008 44.12989 110.59332 44.13219 110.59532 C 44.13859 110.60232 44.144933 110.60977 44.150793 110.61857 C 44.153093 110.62157 44.155311 110.62552 44.157511 110.62942 C 44.197621 110.69642 44.223657 110.80617 44.223657 110.93121 C 44.223657 111.05624 44.197631 111.16596 44.157511 111.233 C 44.154711 111.238 44.151626 111.24204 44.148726 111.24644 C 44.143426 111.25444 44.13785 111.26091 44.13219 111.26711 C 44.12989 111.27011 44.127255 111.27183 44.124955 111.27383 C 44.116455 111.28183 44.10782 111.28845 44.0986 111.29295 L 44.098083 111.29347 L 44.097567 111.29347 C 44.087417 111.29847 44.076814 111.30173 44.066044 111.30173 L 40.77994 111.30173 C 40.69241 111.30173 40.62181 111.13647 40.62181 110.93121 C 40.62181 110.72595 40.69241 110.56069 40.77994 110.56069 z M 40.77994 111.61903 L 44.066044 111.61903 C 44.076814 111.61903 44.087935 111.62178 44.098083 111.62678 L 44.0986 111.62729 C 44.1078 111.63229 44.116415 111.63832 44.124955 111.64642 C 44.127355 111.64842 44.12989 111.65165 44.13219 111.65365 C 44.13859 111.66065 44.144933 111.6681 44.150793 111.6769 C 44.153093 111.6799 44.155311 111.68386 44.157511 111.68776 C 44.197621 111.75476 44.223657 111.86452 44.223657 111.98955 C 44.223657 112.11459 44.197631 112.22431 44.157511 112.29134 C 44.154711 112.29634 44.151626 112.30037 44.148726 112.30477 C 44.143426 112.31277 44.13785 112.31924 44.13219 112.32544 C 44.12989 112.32844 44.127255 112.33016 44.124955 112.33216 C 44.116455 112.34016 44.10782 112.34678 44.0986 112.35128 L 44.098083 112.3518 L 44.097567 112.3518 C 44.087417 112.3568 44.076814 112.36007 44.066044 112.36007 L 40.77994 112.36007 C 40.69241 112.36007 40.62181 112.19481 40.62181 111.98955 C 40.62181 111.78429 40.69241 111.61903 40.77994 111.61903 z M 6.4585205 118.08943 L 42.522986 118.08943 L 42.522986 119.96942 C 42.522986 120.58814 42.063737 121.04791 41.445015 121.04791 L 7.5364909 121.04791 C 6.9177711 121.04791 6.4585205 120.58814 6.4585205 119.96942 L 6.4585205 118.08943 z "
       inkscape:export-filename="save2.svg"
       inkscape:export-xdpi="150.58987"
       inkscape:export-ydpi="150.58987" />
    <path
       id="path3173"
       style="fill:#000000;fill-opacity:1;stroke:none;stroke-width:0.880746;stroke-linecap:round;stroke-dasharray:none;stroke-opacity:1"
       d="m 43.73021,43.008975 -1.631,1.631 4.69584,4.69609 -3.38633,3.38633 c -0.3588,0.3588 -0.26378,0.65454 -0.0647,0.8448 0.15482,0.14798 0.37259,0.23232 0.48874,0.23272 l 7.89531,0.0925 c 0.38119,-0.0124 0.67702,-0.0872 0.87766,-0.27612 0.017,-0.0163 0.0337,-0.0333 0.0493,-0.0512 0.0178,-0.0158 0.035,-0.0323 0.0513,-0.0493 0.18897,-0.20065 0.26373,-0.49648 0.27612,-0.87766 l -0.0925,-7.89531 c -9.5e-4,-0.26549 -0.43941,-1.06186 -1.07728,-0.424 l -3.38633,3.38633 z m 25.91554,0 -4.69609,4.69608 -3.38633,-3.38633 c -0.3588,-0.3588 -0.65455,-0.26378 -0.84481,-0.0647 -0.14797,0.15482 -0.23208,0.37259 -0.23247,0.48874 l -0.0925,7.89531 c 0.0124,0.38119 0.0872,0.67702 0.27613,0.87766 0.0163,0.017 0.0333,0.0337 0.0513,0.0493 0.0158,0.0178 0.0323,0.035 0.0493,0.0512 0.20065,0.18897 0.49648,0.26373 0.87767,0.27612 l 7.89531,-0.0925 c 0.26549,-9.5e-4 1.06185,-0.43965 0.424,-1.07752 l -3.38634,-3.38633 4.69585,-4.69609 z m -17.91772,18.29438 -7.89531,0.0927 c -0.26549,9.5e-4 -1.06186,0.43941 -0.424,1.07728 l 3.38633,3.38633 -4.69584,4.69609 1.631,1.631 4.69609,-4.69609 3.38633,3.38634 c 0.3588,0.35879 0.65455,0.26403 0.84481,0.065 0.14797,-0.15481 0.23207,-0.37282 0.23247,-0.48898 l 0.0925,-7.89507 c -0.0124,-0.38119 -0.0872,-0.67702 -0.27612,-0.87767 -0.0163,-0.017 -0.0333,-0.0337 -0.0513,-0.0493 -0.0157,-0.0178 -0.0323,-0.0349 -0.0493,-0.0513 -0.20065,-0.18897 -0.49648,-0.26397 -0.87766,-0.27637 z m 9.9199,0 c -0.38119,0.0124 -0.67702,0.0874 -0.87767,0.27637 -0.017,0.0163 -0.0337,0.0333 -0.0493,0.0513 -0.0178,0.0158 -0.0349,0.0323 -0.0513,0.0493 -0.18897,0.20066 -0.26373,0.49648 -0.27613,0.87767 l 0.0925,7.89531 c 9.4e-4,0.26549 0.43941,1.06161 1.07728,0.42376 l 3.38633,-3.38634 4.69609,4.69609 1.631,-1.631 -4.69585,-4.69609 3.38634,-3.38633 c 0.35879,-0.3588 0.26378,-0.65455 0.0647,-0.8448 -0.15482,-0.14798 -0.37258,-0.23208 -0.48874,-0.23248 z" />
    <path
       id="path3606"
       style="fill:#000000;fill-opacity:1;stroke:none;stroke-width:0.895147;stroke-linecap:round;stroke-dasharray:none;stroke-opacity:1"
       d="m 42.30942,209.43378 c -6.088638,7e-5 -11.044776,4.9562 -11.044842,11.04484 a 0.96216886,0.96216886 0 0 0 0.96173,0.96273 0.96216886,0.96216886 0 0 0 0.962533,-0.96273 c 5.4e-5,-5.04867 4.071911,-9.12052 9.120579,-9.12058 2.832232,-2e-5 4.787878,1.12032 6.050751,2.25882 l -4.011691,2.50187 c -0.43759,0.2729 -0.411502,0.58759 -0.258093,0.82164 0.119326,0.18205 0.315785,0.31534 0.430691,0.34238 l 7.795793,1.90359 c 0.380257,0.0752 0.690395,0.069 0.932426,-0.072 0.02057,-0.0123 0.04084,-0.0254 0.06041,-0.0395 0.02124,-0.0115 0.04218,-0.0238 0.06222,-0.037 0.233148,-0.15528 0.37509,-0.43101 0.474839,-0.80559 l 1.720362,-7.83834 c 0.05999,-0.26307 -0.191416,-1.15226 -0.969361,-0.6671 l -4.571227,2.85087 c -1.530932,-1.50997 -4.035137,-3.1439 -7.717119,-3.14389 z"
       inkscape:export-filename="redo.svg"
       inkscape:export-xdpi="96"
       inkscape:export-ydpi="96" />
    <path
       id="path4405"
       style="fill:#000000;fill-opacity:1;stroke:none;stroke-width:0.895147;stroke-linecap:round;stroke-dasharray:none;stroke-opacity:1"
       d="m 19.663463,209.43378 c 6.088638,7e-5 11.044777,4.9562 11.044843,11.04484 a 0.96216886,0.96216886 0 0 1 -0.961732,0.96273 0.96216886,0.96216886 0 0 1 -0.962532,-0.96273 c -5.4e-5,-5.04867 -4.071911,-9.12052 -9.120579,-9.12058 -2.832231,-2e-5 -4.787878,1.12032 -6.05075,2.25882 l 4.01169,2.50187 c 0.437591,0.2729 0.411502,0.58759 0.258093,0.82164 -0.119325,0.18205 -0.315784,0.31534 -0.43069,0.34238 l -7.7957937,1.90359 c -0.380259,0.0752 -0.690394,0.069 -0.9324255,-0.072 -0.020584,-0.0123 -0.040851,-0.0254 -0.060411,-0.0395 -0.021245,-0.0115 -0.042174,-0.0238 -0.062217,-0.037 -0.2331491,-0.15528 -0.3750937,-0.43101 -0.4748422,-0.80559 l -1.7203588,-7.83834 c -0.059991,-0.26307 0.191415,-1.15226 0.9693595,-0.6671 l 4.5712267,2.85087 c 1.530932,-1.50993 4.035137,-3.14387 7.717119,-3.14386 z"
       inkscape:export-filename="undo.svg"
       inkscape:export-xdpi="96"
       inkscape:export-ydpi="96" />
    <g
       id="g8292"
       transform="matrix(2.121159,0,0,2.121159,-83.327949,-293.05297)"
       inkscape:export-filename="fill_colored.svg"
       inkscape:export-xdpi="150.58987"
       inkscape:export-ydpi="150.58987">
      <path
         style="fill:url(#linearGradient2377);fill-opacity:1;stroke-width:0.201056"
         d="m 113.14388,242.83784 c -2.4927,0.009 -6.08343,1.78962 -6.5878,5.24123 -0.42849,2.93227 -0.10742,3.81977 0.38243,5.3215 0.93543,2.86774 -1.23524,6.66942 -0.48925,7.34201 1.02615,0.84826 3.13772,-5.19219 4.35975,-9.27766 1.03245,-3.45167 0.89481,-4.81796 0.89481,-4.81796 1.15249,-1.09366 2.31156,-2.44147 3.45286,-3.58278 -0.62802,-0.14989 -1.31484,-0.22896 -2.0128,-0.22634 z"
         id="path1755" />
      <path
         style="fill:#999999;fill-opacity:1;stroke-width:0.201056"
         d="m 122.09011,239.1838 c -0.24427,0 -0.48876,0.0939 -0.67593,0.28112 l -1.06195,1.06195 v 4.99866 c 0,0.51728 -0.69616,1.46296 -1.56166,1.46296 h -0.46767 c -0.86551,0 -1.56218,-0.94568 -1.56218,-1.46296 v -1.40715 l -0.0517,0.0517 c -0.002,-7.6e-4 -10e-4,-2.7e-4 -0.003,-0.001 v 0.004 l -3.09025,3.09077 c -0.37435,0.37434 -0.36978,0.97248 0,1.35134 l 9.17877,9.40356 c 0.3698,0.37883 0.97647,0.37434 1.35082,0 l 7.799,-7.79901 c 0.37435,-0.37435 0.37435,-0.97699 0,-1.35134 l -9.17825,-9.40356 c -0.18717,-0.18717 -0.43165,-0.28112 -0.67592,-0.28112 z"
         id="path1753" />
      <path
         style="fill:#999999;fill-opacity:1;stroke-width:0.201056"
         d="m 118.45726,234.65126 c -0.40295,0 -0.72761,0.32517 -0.72761,0.72812 v 9.83557 c 0,0.40295 0.32466,0.72812 0.72761,0.72812 h 0.21755 c 0.40295,0 0.72709,-0.32517 0.72709,-0.72812 v -9.83557 c 0,-0.40295 -0.32414,-0.72812 -0.72709,-0.72812 z"
         id="rect5620-8" />
      <path
         id="path1964"
         style="fill:#666666;fill-opacity:1;stroke-width:0.201056"
         d="m 122.09022,239.18385 c -0.24427,0 -0.48876,0.0939 -0.67593,0.28112 l -0.1788,0.1788 8.96742,9.18755 c 0.37434,0.37435 0.37434,0.97699 0,1.35134 l -7.61969,7.61969 0.21135,0.21653 c 0.3698,0.37883 0.97647,0.37434 1.35082,0 l 7.79901,-7.79901 c 0.37435,-0.37435 0.37435,-0.97699 0,-1.35134 l -9.17825,-9.40356 c -0.18717,-0.18717 -0.43166,-0.28112 -0.67593,-0.28112 z"
         sodipodi:nodetypes="ssccccscsccs" />
      <path
         id="path2038"
         style="fill:#d6d6d6;fill-opacity:1;stroke-width:0.201056"
         d="m 122.09022,239.18385 c -0.24427,0 -0.48876,0.0939 -0.67593,0.28112 l -1.06195,1.06195 v 1.78129 l 1.78129,-1.78129 0.84439,-0.84439 -0.21187,-0.21756 c -0.18717,-0.18717 -0.43166,-0.28112 -0.67593,-0.28112 z m -5.32939,4.93458 -0.0517,0.0517 c -0.002,-7.6e-4 -0.001,-3e-4 -0.003,-0.001 v 0.004 l -3.09025,3.09077 c -0.37435,0.37434 -0.36978,0.97248 0,1.35134 l 9.17877,9.40356 c 0.3698,0.37883 0.97647,0.37434 1.35082,0 l 0.21808,-0.21808 -8.96638,-9.18548 c -0.36978,-0.37886 -0.37435,-0.977 0,-1.35134 l 1.42782,-1.42834 c -0.0413,-0.11167 -0.0641,-0.21784 -0.0641,-0.31006 z" />
      <path
         style="fill:#d6d6d6;fill-opacity:1;stroke-width:0.0816599"
         d="m 117.86196,235.17524 c -0.0733,0 -0.13231,0.29499 -0.13231,0.66054 v 8.92277 c 0,0.36555 0.059,0.66054 0.13231,0.66054 h 0.0395 c 0.0733,0 0.13221,-0.29499 0.13221,-0.66054 v -8.92277 c 0,-0.36555 -0.0589,-0.66054 -0.13221,-0.66054 z"
         id="path2100" />
      <path
         style="fill:#666666;fill-opacity:1;stroke-width:0.0816599"
         d="m 119.23019,235.17524 c -0.0733,0 -0.13231,0.29499 -0.13231,0.66054 v 8.92277 c 0,0.36555 0.059,0.66054 0.13231,0.66054 h 0.0395 c 0.0733,0 0.13221,-0.29499 0.13221,-0.66054 v -8.92277 c 0,-0.36555 -0.0589,-0.66054 -0.13221,-0.66054 z"
         id="path2309" />
    </g>
  </g>
</svg>
