<?xml version="1.0" encoding="UTF-8" standalone="no"?>
<!-- Created with Inkscape (http://www.inkscape.org/) -->

<svg
   width="210mm"
   height="297mm"
   viewBox="0 0 210 297"
   version="1.1"
   id="svg5"
   inkscape:version="1.2.1 (9c6d41e410, 2022-07-14)"
   sodipodi:docname="icons.svg"
   xmlns:inkscape="http://www.inkscape.org/namespaces/inkscape"
   xmlns:sodipodi="http://sodipodi.sourceforge.net/DTD/sodipodi-0.dtd"
   xmlns:xlink="http://www.w3.org/1999/xlink"
   xmlns="http://www.w3.org/2000/svg"
   xmlns:svg="http://www.w3.org/2000/svg">
  <sodipodi:namedview
     id="namedview7"
     pagecolor="#ffffff"
     bordercolor="#000000"
     borderopacity="0.25"
     inkscape:showpageshadow="2"
     inkscape:pageopacity="0.0"
     inkscape:pagecheckerboard="0"
     inkscape:deskcolor="#d1d1d1"
     inkscape:document-units="mm"
     showgrid="false"
     inkscape:zoom="1.7852694"
     inkscape:cx="378.0942"
     inkscape:cy="314.79843"
     inkscape:window-width="2560"
     inkscape:window-height="1377"
     inkscape:window-x="1912"
     inkscape:window-y="-8"
     inkscape:window-maximized="1"
     inkscape:current-layer="layer1" />
  <defs
     id="defs2">
    <linearGradient
       inkscape:collect="always"
       id="linearGradient2375">
      <stop
         style="stop-color:#e50000;stop-opacity:1;"
         offset="0"
         id="stop2371" />
      <stop
         style="stop-color:#ff8d00;stop-opacity:1;"
         offset="0.18122785"
         id="stop4646" />
      <stop
         style="stop-color:#ffee00;stop-opacity:1;"
         offset="0.38535911"
         id="stop4648" />
      <stop
         style="stop-color:#008121;stop-opacity:1;"
         offset="0.61578411"
         id="stop4650" />
      <stop
         style="stop-color:#004cff;stop-opacity:1;"
         offset="0.82489079"
         id="stop4652" />
      <stop
         style="stop-color:#760188;stop-opacity:1;"
         offset="1"
         id="stop2373" />
    </linearGradient>
    <linearGradient
       inkscape:collect="always"
       xlink:href="#linearGradient2375"
       id="linearGradient2377"
       x1="112.73632"
       y1="244.28284"
       x2="107.80231"
       y2="259.50217"
       gradientUnits="userSpaceOnUse" />
  </defs>
  <g
     inkscape:label="Ebene 1"
     inkscape:groupmode="layer"
     id="layer1">
    <path
       id="rect5796"
       style="fill:#000000;stroke-width:0.188806"
       d="M 98.039674,13.483388 C 96.33651,11.780224 94.470387,12.3176 93.442207,13.34578 l -3.687248,3.687248 c -0.639346,0.639346 -1.166293,1.983892 -0.875697,2.941516 -0.015,0.01302 -0.03,0.02618 -0.04431,0.0405 l -6.407356,6.407359 -0.06785,1.059593 -4.588952,5.084438 c -0.272975,0.302433 -0.320076,0.720293 -0.07168,0.968686 l 0.288903,0.288904 c 0.248393,0.248393 0.66625,0.201281 0.968682,-0.07169 l 5.08444,-4.588951 1.059593,-0.06785 6.407358,-6.407354 c 0.01432,-0.01432 0.02741,-0.02939 0.0405,-0.04431 0.957623,0.290595 2.301783,-0.23674 2.941129,-0.876086 l 3.687248,-3.687249 c 1.028178,-1.028178 1.544313,-2.915545 -0.137221,-4.597079 z m -8.641745,8.209166 0.445005,0.445005 c 0.484319,0.484318 0.01333,0.89765 -0.256854,1.167846 l -4.741097,4.741098 -0.996139,0.06108 -4.59631,4.472071 c -0.273451,0.265957 -0.537528,0.437644 -0.599785,0.375387 l -0.07261,-0.07261 c -0.06224,-0.06224 0.109344,-0.326419 0.375381,-0.599821 l 4.472065,-4.596318 0.08127,-0.975946 4.741097,-4.741097 c 0.270199,-0.270199 0.727329,-0.697404 1.148041,-0.276665 z"
       inkscape:export-filename="pipette.svg"
       inkscape:export-xdpi="150.58987"
       inkscape:export-ydpi="150.58987"
       sodipodi:nodetypes="csscscccsscccscsscccsccccsscccscc" />
    <path
       id="rect788"
       style="fill:#000000;stroke-width:0.214183"
       d="m 26.822443,13.527595 c -1.77734,-1.777341 -11.836282,8.838476 -11.836282,8.838476 l 2.997804,2.997805 c 0,0 10.615819,-10.058941 8.838478,-11.836281 z m -12.265229,9.267424 -2.705754,2.705753 2.997803,2.997806 2.705754,-2.705756 z m -3.226225,3.156066 c -0.936826,-0.222117 -2.6351052,0.717815 -2.9349531,2.194638 -0.65044,3.203555 -3.532714,3.560291 -3.7110781,4.385622 0.2303103,0.868544 10.4652452,3.472919 9.6895112,-3.536781 z"
       sodipodi:nodetypes="sccsccccccsccc"
       inkscape:export-filename="brush.svg"
       inkscape:export-xdpi="150.58987"
       inkscape:export-ydpi="150.58987" />
    <path
       id="rect5620"
       style="fill:#000000;stroke-width:0.201056"
       d="m 51.922412,10.099642 c -0.402944,0 -0.727604,0.325175 -0.727604,0.728121 v 9.835575 c -1e-6,0.402945 0.32466,0.728121 0.727604,0.728121 h 0.217558 c 0.402944,0 0.727087,-0.325175 0.727087,-0.728121 v -9.835575 c 0,-0.402945 -0.324143,-0.728121 -0.727087,-0.728121 z m 3.632853,4.53254 c -0.24427,0 -0.488756,0.09395 -0.675927,0.28112 l -1.061951,1.06195 v 4.998662 c 0,0.517284 -0.696157,1.462956 -1.561662,1.462959 h -0.467672 c -0.865505,4e-6 -1.562179,-0.945675 -1.562178,-1.462959 v -1.40715 l -0.05168,0.05168 c -0.0017,-7.63e-4 -0.0014,-2.69e-4 -0.0031,-0.001 v 0.0041 l -3.090251,3.090768 c -0.374345,0.374345 -0.369781,0.972483 0,1.351338 l 9.178768,9.403561 c 0.369806,0.378831 0.976475,0.374345 1.350822,0 l 7.799007,-7.799007 c 0.374347,-0.374346 0.374348,-0.976992 0,-1.351339 l -9.178251,-9.40356 c -0.187174,-0.187174 -0.431656,-0.28112 -0.675928,-0.28112 z m -8.946224,3.65404 c -2.492704,0.0094 -6.083434,1.78962 -6.587808,5.241236 -0.428484,2.932271 -0.107414,3.819766 0.382433,5.321493 0.935426,2.867745 -1.235244,6.669419 -0.489248,7.342014 1.026146,0.848256 3.137723,-5.192188 4.359752,-9.277661 1.03245,-3.451673 0.894805,-4.817963 0.894805,-4.817963 1.152492,-1.093656 2.311558,-2.441469 3.452863,-3.582776 C 47.993819,18.36267 47.306999,18.2836 46.609041,18.286222 Z"
       inkscape:export-filename="fill.svg"
       inkscape:export-xdpi="150.58987"
       inkscape:export-ydpi="150.58987"
       sodipodi:nodetypes="sscsssssssscsssscccccccccccssssscscss" />
    <path
       id="rect6234"
       style="fill:#000000;stroke-width:0.146567"
       d="m 112.35422,12.212431 c -0.82011,0 -1.48027,0.660169 -1.48027,1.480269 0,0.100295 0.0106,0.198245 0.0289,0.292847 v 3.345563 c 0,0.637632 0.51341,1.151064 1.15106,1.151064 h 0.65868 c 0.63764,0 1.15108,-0.513432 1.15108,-1.151064 0,-1.998826 0.0226,-2.157856 6.38567,-2.157856 v 15.946883 c 0,1.297439 -1.01526,1.744841 -1.9818,1.758802 -0.50089,0.0073 -0.90431,0.403355 -0.90431,0.904307 v 1.152211 c 0,0.50095 0.40336,0.904305 0.90431,0.904305 h 6.92415 c 0.50094,0 0.90431,-0.403355 0.90431,-0.904305 v -1.152211 c 0,-0.500952 -0.40413,-0.876438 -0.90431,-0.904307 -0.93887,-0.05231 -1.98181,-0.454001 -1.98181,-1.758802 V 15.173254 c 7.295,0 7.22757,0.0244 7.22757,2.157856 0,0.637632 0.51344,1.151064 1.15108,1.151064 h 0.65869 c 0.63764,0 1.15079,-0.513432 1.15079,-1.151064 v -3.45463 c 0,-0.02887 -9.6e-4,-0.05726 -0.002,-0.08559 0.002,-0.03245 0.002,-0.06518 0.002,-0.09819 0,-0.8201 -0.66017,-1.480269 -1.48029,-1.480269 z"
       inkscape:export-filename="text.svg"
       inkscape:export-xdpi="150.58987"
       inkscape:export-ydpi="150.58987"
       sodipodi:nodetypes="sscssscccsssssssscccsssscsss" />
    <path
       id="rect6322"
       style="fill:#000000;stroke-width:0.147296"
       d="m 165.3304,10.371106 c -0.65309,-0.6530914 -1.70462,-0.6530914 -2.35771,0 l -8.18564,8.185645 10.72582,10.725821 8.18564,-8.185647 c 0.65309,-0.653092 0.65309,-1.70461 0,-2.357702 z m -11.43415,9.076446 -6.32939,6.329385 c -0.65308,0.653086 -0.65309,1.704609 0,2.357701 l 8.36812,8.36812 c 0.65309,0.653086 1.70461,0.653086 2.3577,0 l 6.32939,-6.329385 z m -0.0995,2.259041 8.56605,8.566047 -4.10798,4.107983 c -0.61331,0.613315 -1.60077,0.613309 -2.21408,-6e-6 l -6.35176,-6.351759 c -0.61332,-0.613315 -0.61352,-1.600972 -2.1e-4,-2.214287 z"
       inkscape:export-filename="eraser.svg"
       inkscape:export-xdpi="150.58987"
       inkscape:export-ydpi="150.58987" />
    <rect
       style="fill:#000000;stroke-width:0.1052"
       id="rect6417"
       width="7.4982305"
       height="2.0214033"
       x="156.07516"
       y="34.971169"
       ry="1.0107017" />
    <path
       style="fill:none;stroke:#000000;stroke-width:1.31662;stroke-linecap:round;stroke-dasharray:none;stroke-opacity:1"
       d="m 165.63262,35.759991 c 0,0 4.21657,-0.03479 2.98758,-5.563704"
       id="path6642" />
    <path
       style="fill:none;stroke:#000000;stroke-width:1.31662;stroke-linecap:round;stroke-dasharray:none;stroke-opacity:1"
       d="m 172.42937,35.759991 c 3.09398,0 4.16656,-2.703601 4.16656,-2.703601"
       id="path6644" />
    <path
       style="fill:none;stroke:#000000;stroke-width:1.31662;stroke-linecap:round;stroke-dasharray:none;stroke-opacity:1"
       d="m 171.63608,32.319831 c 0,0 5.83403,-3.024727 1.12433,-5.912054 -3.46658,-2.040972 -2.08567,5.388497 2.20464,-2.000015"
       id="path6646"
       sodipodi:nodetypes="ccc" />
    <path
       id="rect6772"
       style="fill:#000000;fill-opacity:1;stroke:none;stroke-width:0.896081;stroke-linecap:round;stroke-dasharray:none;stroke-opacity:1"
       d="m 65.270407,50.081392 c -0.280296,0.0084 -0.546925,0.167306 -0.83007,0.432627 l -5.61341,5.746643 c -0.190348,0.191644 -0.447729,1.080057 0.470051,1.080066 h 4.872409 v 18.546527 h -4.872409 c -0.91778,1e-5 -0.660399,0.888423 -0.470051,1.080067 l 5.61341,5.746647 c 0.283145,0.265315 0.549774,0.42422 0.83007,0.432625 0.02396,4.79e-4 0.04819,1.95e-4 0.07233,-0.0018 0.02414,0.0018 0.04846,0.0018 0.07233,0.0018 0.280296,-0.008 0.546924,-0.16731 0.830069,-0.432625 l 5.61341,-5.746647 c 0.190349,-0.191644 0.44773,-1.080057 -0.47005,-1.080067 H 66.516088 V 57.340728 h 4.872409 c 0.91778,-9e-6 0.660399,-0.888422 0.47005,-1.080066 l -5.61341,-5.746643 c -0.283145,-0.265321 -0.549773,-0.424226 -0.830069,-0.432627 -0.02396,-7.24e-4 -0.04819,-5e-6 -0.07233,0.0015 -0.02414,-0.0014 -0.04846,-0.002 -0.07233,-0.0015 z" />
    <path
       id="path7064"
       style="fill:#000000;fill-opacity:1;stroke:none;stroke-width:0.896081;stroke-linecap:round;stroke-dasharray:none;stroke-opacity:1"
       d="m 81.875327,66.541606 c -0.008,-0.280301 -0.1673,-0.546929 -0.432625,-0.830075 l -5.746639,-5.613407 c -0.191645,-0.190346 -1.080058,-0.447728 -1.080067,0.470053 v 4.872404 H 56.069469 v -4.872404 c -1.7e-5,-0.917781 -0.888422,-0.660399 -1.080066,-0.470053 l -5.746649,5.613407 c -0.265315,0.283146 -0.42422,0.549774 -0.432625,0.830075 -4.79e-4,0.02395 -1.95e-4,0.04824 0.0018,0.07236 -0.0018,0.02414 -0.0018,0.04842 -0.0018,0.07235 0.008,0.280301 0.16731,0.54693 0.432625,0.830075 l 5.746649,5.613409 c 0.191644,0.190346 1.080049,0.447728 1.080066,-0.470053 v -4.872406 h 18.546527 v 4.872406 c 9e-6,0.917781 0.888422,0.660399 1.080067,0.470053 l 5.746639,-5.613409 c 0.265325,-0.283145 0.42423,-0.549774 0.432625,-0.830075 4.88e-4,-0.02394 9e-6,-0.04818 -0.0018,-0.07235 0.0018,-0.02414 0.0018,-0.04842 0.0018,-0.07236 z" />
    <path
       id="path7150"
       style="fill:#000000;fill-opacity:1;stroke:none;stroke-width:0.939966;stroke-linecap:round;stroke-dasharray:none;stroke-opacity:1"
       d="m 25.158198,98.927309 v 7.745471 h -5.11104 c -0.96273,1e-5 -0.69275,0.93193 -0.49307,1.13296 l 5.88833,6.0281 c 0.29701,0.27832 0.5767,0.445 0.87073,0.45382 0.0251,5e-4 0.0505,1.5e-4 0.0759,-0.002 0.0253,0.002 0.0508,0.002 0.0759,0.002 0.29403,-0.009 0.57372,-0.1755 0.87073,-0.45382 l 5.88834,-6.0281 c 0.19967,-0.20103 0.46965,-1.13295 -0.49308,-1.13296 h -5.11104 v -7.745471 z"
       inkscape:export-filename="save.svg"
       inkscape:export-xdpi="150.58987"
       inkscape:export-ydpi="150.58987" />
    <path
       id="rect7209"
       style="color:#000000;fill:#000000;stroke-width:0.50645;stroke-linecap:round;stroke-linejoin:round;-inkscape-stroke:none"
       d="m 4.8838883,115.44349 a 0.59893762,0.59893762 0 0 0 -0.009,0.002 0.59893762,0.59893762 0 0 0 -0.18085,0.0335 0.59893762,0.59893762 0 0 0 -0.0411,0.017 0.59893762,0.59893762 0 0 0 -0.14371,0.0861 0.59893762,0.59893762 0 0 0 -0.022,0.017 0.59893762,0.59893762 0 0 0 -0.1887,0.34913 0.59893762,0.59893762 0 0 0 -0.003,0.028 0.59893762,0.59893762 0 0 0 -0.008,0.0657 v 4.37012 a 0.59893762,0.59893762 0 0 0 0.4381,0.57682 l 20.1534097,5.58658 a 0.61398578,0.61398578 0 0 0 0.32505,0.096 h 24.42931 a 0.61398578,0.61398578 0 0 0 0.61451,-0.61424 v -4.37197 a 0.61398578,0.61398578 0 0 0 -0.53468,-0.60848 l -20.24582,-5.61145 a 0.59893762,0.59893762 0 0 0 -0.16017,-0.0217 z m 4.39996,1.19682 H 29.223158 l 15.98297,4.43059 h -19.93748 z m -3.80142,0.18896 19.1054997,5.29607 v 3.12673 L 5.4824283,119.95599 Z m 20.3331997,5.46908 h 23.20162 v 1.06204 c -0.12913,-0.0483 -0.26915,-0.0748 -0.41562,-0.0748 h -18.23503 c -0.65312,0 -1.17877,0.52591 -1.17877,1.17903 v 0.72023 c 0,0.0891 0.009,0.17576 0.0286,0.2591 h -3.40072 z" />
    <path
       id="rect7557"
       style="color:#000000;fill:#000000;stroke-linecap:round;stroke-linejoin:round"
       d="m 124.65988,103.30226 v 9.74565 h -6.43117 c -1.21133,2e-5 -0.87136,1.17229 -0.62012,1.42524 l 7.40889,7.58507 c 0.37371,0.35018 0.72559,0.55993 1.09555,0.57102 0.0316,6.3e-4 0.0636,1.2e-4 0.0956,-0.002 0.0318,0.002 0.0635,0.003 0.0951,0.002 0.36996,-0.0111 0.72184,-0.22084 1.09554,-0.57102 l 7.4089,-7.58507 c 0.25124,-0.25295 0.59121,-1.42522 -0.62012,-1.42524 h -6.43117 v -9.74565 z m -15.40587,5.27358 c -1.96048,0 -3.57809,1.61759 -3.57809,3.57807 v 17.66611 c 0,1.96045 1.61761,3.57807 3.57809,3.57807 h 33.90872 c 1.96049,0 3.5781,-1.61762 3.5781,-3.57807 v -6.92568 -9.36894 -1.37149 c 0,-1.96048 -1.61761,-3.57807 -3.5781,-3.57807 h -12.63134 v 2.01383 c 0,0.16692 -0.0181,0.32947 -0.0512,0.48627 h 12.6825 c 0.54121,0 0.96024,0.35156 1.05679,0.8537 h -2.67996 c -0.87782,0 -1.59577,0.71794 -1.59577,1.59576 v 9.36894 c 0,0.87781 0.71795,1.59577 1.59577,1.59577 h 2.70115 v 1.35444 h -36.06463 v -13.69064 c 0,-0.61872 0.45925,-1.07797 1.07797,-1.07797 h 12.6825 c -0.0331,-0.1568 -0.0512,-0.31935 -0.0512,-0.48627 v -2.01383 z m 32.28555,4.07623 h 2.70115 v 0.60978 h -1.82057 c -0.57173,0 -1.03199,0.46026 -1.03199,1.03198 v 7.83157 c 0,0.57171 0.46026,1.03197 1.03199,1.03197 h 1.82057 v 0.60979 h -2.70115 c -0.49002,0 -0.87282,-0.3828 -0.87282,-0.87282 v -9.36894 c 0,-0.49003 0.3828,-0.87333 0.87282,-0.87333 z m 0.95809,1.40922 h 3.28612 c 0.0108,0 0.0219,0.003 0.032,0.008 l 5.2e-4,5.2e-4 c 0.0196,0.01 0.0376,0.0274 0.0537,0.0522 0.001,0.002 0.003,0.004 0.004,0.007 0.0406,0.0669 0.0672,0.17737 0.0672,0.30334 0,0.12503 -0.026,0.23475 -0.0662,0.30179 -0.003,0.005 -0.006,0.009 -0.009,0.0134 -0.005,0.008 -0.0109,0.0145 -0.0165,0.0207 -0.002,0.003 -0.005,0.005 -0.007,0.007 -0.008,0.008 -0.0171,0.0146 -0.0264,0.0191 l -5.2e-4,5.2e-4 h -5.1e-4 c -0.0101,0.005 -0.0207,0.008 -0.0315,0.008 h -3.28613 c -0.0875,0 -0.15813,-0.16526 -0.15813,-0.37052 0,-0.20526 0.0706,-0.37052 0.15813,-0.37052 z m 0,1.05833 h 3.28612 c 0.0108,0 0.0219,0.003 0.032,0.008 l 5.2e-4,5.2e-4 c 0.009,0.004 0.0178,0.011 0.0263,0.0191 0.002,0.002 0.005,0.005 0.007,0.007 0.006,0.007 0.0127,0.0145 0.0186,0.0233 0.002,0.003 0.005,0.007 0.007,0.0108 0.0401,0.067 0.0661,0.17676 0.0661,0.30179 0,0.12504 -0.026,0.23476 -0.0661,0.30179 -0.003,0.005 -0.006,0.009 -0.009,0.0134 -0.005,0.008 -0.0109,0.0145 -0.0165,0.0207 -0.002,0.003 -0.005,0.005 -0.007,0.007 -0.008,0.008 -0.0171,0.0146 -0.0263,0.0191 l -5.2e-4,5.2e-4 h -5.1e-4 c -0.0101,0.005 -0.0208,0.008 -0.0315,0.008 h -3.28613 c -0.0875,0 -0.15813,-0.16526 -0.15813,-0.37052 0,-0.20526 0.0706,-0.37052 0.15813,-0.37052 z m 0,1.05833 h 3.28612 c 0.0108,0 0.0219,0.003 0.032,0.008 l 5.2e-4,5.1e-4 c 0.009,0.005 0.0178,0.011 0.0263,0.0191 0.002,0.002 0.005,0.005 0.007,0.007 0.006,0.007 0.0127,0.0145 0.0186,0.0233 0.002,0.003 0.005,0.007 0.007,0.0109 0.0401,0.067 0.0661,0.17676 0.0661,0.30179 0,0.12505 -0.026,0.23476 -0.0661,0.3018 -0.003,0.005 -0.006,0.009 -0.009,0.0134 -0.005,0.008 -0.0109,0.0145 -0.0165,0.0207 -0.002,0.003 -0.005,0.005 -0.007,0.007 -0.008,0.008 -0.0171,0.0146 -0.0263,0.0191 l -5.2e-4,5.1e-4 h -5.1e-4 c -0.0101,0.005 -0.0208,0.008 -0.0315,0.008 h -3.28613 c -0.0875,0 -0.15813,-0.16525 -0.15813,-0.37052 0,-0.20526 0.0706,-0.37052 0.15813,-0.37052 z m 0,1.05834 h 3.28612 c 0.0108,0 0.0219,0.003 0.032,0.008 l 5.2e-4,5.2e-4 c 0.009,0.004 0.0178,0.011 0.0263,0.0191 0.002,0.002 0.005,0.005 0.007,0.007 0.006,0.007 0.0127,0.0145 0.0186,0.0233 0.002,0.003 0.005,0.007 0.007,0.0109 0.0401,0.067 0.0661,0.17675 0.0661,0.30179 0,0.12503 -0.026,0.23475 -0.0661,0.30179 -0.003,0.005 -0.006,0.009 -0.009,0.0134 -0.005,0.008 -0.0109,0.0145 -0.0165,0.0207 -0.002,0.003 -0.005,0.005 -0.007,0.007 -0.008,0.008 -0.0171,0.0146 -0.0263,0.0191 l -5.2e-4,5.2e-4 h -5.1e-4 c -0.0101,0.005 -0.0208,0.008 -0.0315,0.008 h -3.28613 c -0.0875,0 -0.15813,-0.16526 -0.15813,-0.37052 0,-0.20526 0.0706,-0.37052 0.15813,-0.37052 z m 0,1.05833 h 3.28612 c 0.0108,0 0.0219,0.003 0.032,0.008 l 5.2e-4,5.2e-4 c 0.009,0.005 0.0178,0.011 0.0263,0.0191 0.002,0.002 0.005,0.005 0.007,0.007 0.006,0.007 0.0127,0.0145 0.0186,0.0233 0.002,0.003 0.005,0.007 0.007,0.0109 0.0401,0.067 0.0661,0.17676 0.0661,0.30179 0,0.12504 -0.026,0.23476 -0.0661,0.30179 -0.003,0.005 -0.006,0.009 -0.009,0.0134 -0.005,0.008 -0.0109,0.0145 -0.0165,0.0207 -0.002,0.003 -0.005,0.005 -0.007,0.007 -0.008,0.008 -0.0171,0.0146 -0.0263,0.0191 l -5.2e-4,5.2e-4 h -5.1e-4 c -0.0101,0.005 -0.0208,0.008 -0.0315,0.008 h -3.28613 c -0.0875,0 -0.15813,-0.16526 -0.15813,-0.37052 0,-0.20526 0.0706,-0.37052 0.15813,-0.37052 z m 0,1.05833 h 3.28612 c 0.0108,0 0.0219,0.003 0.032,0.008 l 5.2e-4,5.1e-4 c 0.009,0.005 0.0178,0.011 0.0263,0.0191 0.002,0.002 0.005,0.005 0.007,0.007 0.006,0.007 0.0127,0.0145 0.0186,0.0233 0.002,0.003 0.005,0.007 0.007,0.0109 0.0401,0.067 0.0661,0.17676 0.0661,0.30179 0,0.12505 -0.026,0.23476 -0.0661,0.3018 -0.003,0.005 -0.006,0.009 -0.009,0.0134 -0.005,0.008 -0.0109,0.0145 -0.0165,0.0207 -0.002,0.003 -0.005,0.005 -0.007,0.007 -0.008,0.008 -0.0171,0.0146 -0.0263,0.0191 l -5.2e-4,5.1e-4 h -5.1e-4 c -0.0101,0.005 -0.0208,0.008 -0.0315,0.008 h -3.28613 c -0.0875,0 -0.15813,-0.16525 -0.15813,-0.37052 0,-0.20526 0.0706,-0.37052 0.15813,-0.37052 z m 0,1.05834 h 3.28612 c 0.0108,0 0.0219,0.003 0.032,0.008 l 5.2e-4,5.2e-4 c 0.009,0.004 0.0178,0.011 0.0263,0.0191 0.002,0.002 0.005,0.005 0.007,0.007 0.006,0.007 0.0127,0.0145 0.0186,0.0233 0.002,0.003 0.005,0.007 0.007,0.0109 0.0401,0.067 0.0661,0.17675 0.0661,0.30179 0,0.12503 -0.026,0.23475 -0.0661,0.30179 -0.003,0.005 -0.006,0.009 -0.009,0.0134 -0.005,0.008 -0.0109,0.0145 -0.0165,0.0207 -0.002,0.003 -0.005,0.005 -0.007,0.007 -0.008,0.008 -0.0171,0.0146 -0.0263,0.0191 l -5.2e-4,5.2e-4 h -5.1e-4 c -0.0101,0.005 -0.0208,0.008 -0.0315,0.008 h -3.28613 c -0.0875,0 -0.15813,-0.16526 -0.15813,-0.37052 0,-0.20526 0.0706,-0.37052 0.15813,-0.37052 z m 0,1.05833 h 3.28612 c 0.0108,0 0.0219,0.003 0.032,0.008 l 5.2e-4,5.2e-4 c 0.009,0.005 0.0178,0.011 0.0263,0.0191 0.002,0.002 0.005,0.005 0.007,0.007 0.006,0.007 0.0127,0.0145 0.0186,0.0233 0.002,0.003 0.005,0.007 0.007,0.0109 0.0401,0.067 0.0661,0.17676 0.0661,0.30179 0,0.12504 -0.026,0.23476 -0.0661,0.30179 -0.003,0.005 -0.006,0.009 -0.009,0.0134 -0.005,0.008 -0.0109,0.0145 -0.0165,0.0207 -0.002,0.003 -0.005,0.005 -0.007,0.007 -0.008,0.008 -0.0171,0.0146 -0.0263,0.0191 l -5.2e-4,5.2e-4 h -5.1e-4 c -0.0101,0.005 -0.0208,0.008 -0.0315,0.008 h -3.28613 c -0.0875,0 -0.15813,-0.16526 -0.15813,-0.37052 0,-0.20526 0.0706,-0.37052 0.15813,-0.37052 z m -34.32161,6.47041 h 36.06467 v 1.87999 c 0,0.61872 -0.45926,1.07848 -1.07798,1.07848 h -33.90872 c -0.61872,0 -1.07797,-0.45976 -1.07797,-1.07848 z"
       inkscape:export-filename="save.svg"
       inkscape:export-xdpi="150.58987"
       inkscape:export-ydpi="150.58987" />
    <path
       id="path10666"
       style="fill:#ff6c7f;fill-opacity:1;stroke-width:0.152269"
       d="m 166.65717,63.89193 -6.54312,6.54311 c -0.67514,0.67514 -0.67514,1.76217 0,2.43731 l 8.6507,8.65069 c 0.67513,0.67514 1.76216,0.67514 2.4373,0 l 6.54312,-6.54311 z"
       inkscape:export-filename="eraser_colored.svg"
       inkscape:export-xdpi="150.58987"
       inkscape:export-ydpi="150.58987"
       sodipodi:nodetypes="ccssscc" />
    <rect
       style="fill:#ff6c7f;fill-opacity:1;stroke-width:0.108752"
       id="rect10668"
       width="7.7514238"
       height="2.0896604"
       x="168.90965"
       y="79.939735"
       ry="1.0448302" />
    <path
       style="fill:none;stroke:#ff6c7f;stroke-width:1.36107;stroke-linecap:round;stroke-dasharray:none;stroke-opacity:1"
       d="m 178.78985,80.75519 c 0,0 4.35894,-0.036 3.08845,-5.75157"
       id="path10670" />
    <path
       style="fill:none;stroke:#ff6c7f;stroke-width:1.36107;stroke-linecap:round;stroke-dasharray:none;stroke-opacity:1"
       d="m 185.8161,80.75519 c 3.19845,0 4.30725,-2.79489 4.30725,-2.79489"
       id="path10672" />
    <path
       style="fill:none;stroke:#ff6c7f;stroke-width:1.36107;stroke-linecap:round;stroke-dasharray:none;stroke-opacity:1"
       d="m 184.99602,77.19887 c 0,0 6.03103,-3.12687 1.1623,-6.11169 -3.58364,-2.10989 -2.1561,5.57045 2.27908,-2.06755"
       id="path10674"
       sodipodi:nodetypes="ccc" />
    <path
       d="m 177.55654,55.42988 c -0.67515,-0.67514 -1.76218,-0.67514 -2.43732,0 l -8.46205,8.46205 11.088,11.088 8.46205,-8.46205 c 0.67514,-0.67515 0.67514,-1.76217 0,-2.43732 z"
       style="fill:#0089ff;fill-opacity:1;stroke-width:0.152269"
       id="path10684" />
    <path
       id="rect12484"
       style="fill:#808080;fill-opacity:1;stroke:none;stroke-width:0.918366;stroke-linecap:round;stroke-linejoin:round;stroke-dasharray:none;stroke-opacity:1;paint-order:fill markers stroke"
       d="m 135.88273,49.0331 c -5.64579,5e-5 -10.22258,4.46885 -10.22259,9.98139 0.003,4.73905 3.41815,8.82283 8.17319,9.77292 -0.0304,0.12813 -0.047,0.26172 -0.047,0.39941 v 13.68435 c 0,0.94926 0.76436,1.71362 1.71363,1.71362 h 0.72565 c 0.94927,0 1.71363,-0.76436 1.71363,-1.71362 V 69.18682 c 0,-0.13515 -0.0162,-0.2663 -0.0455,-0.39227 4.77298,-0.93511 8.20848,-5.02682 8.21156,-9.78006 -2e-5,-5.51254 -4.57681,-9.98134 -10.22259,-9.98139 z"
       sodipodi:nodetypes="cccsssssscccc"
       inkscape:export-filename="zoom.svg"
       inkscape:export-xdpi="150.58987"
       inkscape:export-ydpi="150.58987" />
    <ellipse
       style="fill:#1ad1e6;fill-opacity:1;stroke:none;stroke-width:0.750082;stroke-linecap:round;stroke-linejoin:round;stroke-dasharray:none;stroke-opacity:1;paint-order:fill markers stroke"
       id="ellipse12860"
       cx="135.88269"
       cy="59.01453"
       rx="8.2732067"
       ry="8.0779686" />
    <ellipse
       style="fill:#c0f2f8;fill-opacity:1;stroke:none;stroke-width:0.272107;stroke-linecap:round;stroke-linejoin:round;stroke-dasharray:none;stroke-opacity:1;paint-order:fill markers stroke"
       id="ellipse12863"
       cx="133.11736"
       cy="56.188877"
       rx="3.0012736"
       ry="2.9304471" />
    <ellipse
       style="fill:#999999;fill-opacity:1;stroke:none;stroke-width:0.94016;stroke-linecap:round;stroke-linejoin:round;stroke-dasharray:none;stroke-opacity:1;paint-order:fill markers stroke"
       id="ellipse12989"
       cx="123.11954"
       cy="-36.792946"
       rx="10.369696"
       ry="10.124983"
       transform="rotate(45)"
       inkscape:export-filename="zoom.svg"
       inkscape:export-xdpi="150.58987"
       inkscape:export-ydpi="150.58987" />
    <ellipse
       style="fill:#9cebf4;fill-opacity:1;stroke:none;stroke-width:0.750082;stroke-linecap:round;stroke-linejoin:round;stroke-dasharray:none;stroke-opacity:1;paint-order:fill markers stroke"
       id="ellipse12987"
       cx="123.11954"
       cy="-36.792946"
       rx="8.2732067"
       ry="8.0779686"
       transform="rotate(45)" />
    <rect
       style="fill:#999999;fill-opacity:1;stroke:none;stroke-width:1.05672;stroke-linecap:round;stroke-linejoin:round;stroke-dasharray:none;stroke-opacity:1;paint-order:fill markers stroke"
       id="rect12991"
       width="3.6249208"
       height="12.293169"
       x="121.30707"
       y="-25.184793"
       ry="0"
       transform="rotate(45)" />
    <rect
       style="fill:#666666;fill-opacity:1;stroke:none;stroke-width:0.386814;stroke-linecap:round;stroke-linejoin:round;stroke-dasharray:none;stroke-opacity:1;paint-order:fill markers stroke"
       id="rect12993"
       width="3.6249208"
       height="1.6472073"
       x="121.30707"
       y="-26.832003"
       ry="0.012040989"
       transform="rotate(45)" />
    <path
       id="rect13006"
       style="fill:#666666;fill-opacity:1;stroke:none;stroke-width:0.37859;stroke-linecap:round;stroke-linejoin:round;stroke-dasharray:none;stroke-opacity:1;paint-order:fill markers stroke"
       d="m 94.892874,76.66138 -0.469587,0.46958 c -0.309062,0.30907 -0.309274,0.80655 -2.12e-4,1.11562 l 1.447459,1.44746 c 0.309062,0.30906 0.806763,0.30906 1.115825,0 l 0.469587,-0.46959 z"
       sodipodi:nodetypes="csssscc" />
    <path
       id="ellipse13232"
       style="fill:#4ddcee;fill-opacity:1;stroke:none;stroke-width:0.870702;stroke-linecap:round;stroke-linejoin:round;stroke-dasharray:none;stroke-opacity:1;paint-order:fill markers stroke"
       d="m 113.07513,56.28055 a 9.6036361,9.3770019 0 0 0 -8.1723,4.4637 8.273207,8.077969 45 0 0 2.46041,6.00989 8.273207,8.077969 45 0 0 11.56208,0.13799 8.273207,8.077969 45 0 0 2.30903,-6.18 9.6036361,9.3770019 0 0 0 -8.15922,-4.43158 z" />
    <path
       id="path13319"
       style="color:#000000;fill:#000000;stroke-linecap:round;stroke-linejoin:round"
       d="m 77.949282,86.986534 c -0.603607,0 -1.031462,0.414002 -1.031462,1.058333 v 12.541873 h -8.625313 c -1.624664,2e-5 -1.168957,1.57225 -0.831991,1.91151 l 9.936861,10.17354 c 0.501224,0.46967 0.973483,0.75097 1.469678,0.76585 0.04236,8.4e-4 0.08527,6e-5 0.128158,-0.003 0.04262,0.003 0.08528,0.004 0.12764,0.003 0.496194,-0.0149 0.967939,-0.29618 1.469161,-0.76585 l 9.936861,-10.17354 c 0.336965,-0.33926 0.793192,-1.91149 -0.831473,-1.91151 h -8.62583 V 88.044867 c 0,-0.596041 -0.381913,-1.058333 -1.069703,-1.058333 z M 62.04069,109.20482 c -1.960471,0 -3.578078,1.6176 -3.578078,3.57808 v 17.6661 c 0,1.96045 1.617607,3.57808 3.578078,3.57808 h 33.908526 c 1.960472,0 3.578077,-1.61763 3.578077,-3.57808 v -6.92567 -9.36894 -1.37149 c 0,-1.96048 -1.617605,-3.57808 -3.578077,-3.57808 h -8.420674 l -2.442228,2.50011 h 10.862902 c 0.541203,0 0.96024,0.35155 1.056784,0.85369 h -2.67994 c -0.877812,0 -1.595769,0.71795 -1.595769,1.59577 v 9.36894 c 0,0.87781 0.717957,1.59576 1.595769,1.59576 h 2.701127 v 1.35444 H 60.962719 V 112.7829 c 0,-0.61872 0.459251,-1.07797 1.077971,-1.07797 h 10.862388 l -2.442228,-2.50011 z m 32.28537,4.07624 h 2.701127 v 0.60978 h -1.820561 c -0.571719,0 -1.031978,0.46026 -1.031978,1.03198 v 7.83156 c 0,0.57171 0.460259,1.03198 1.031978,1.03198 h 1.820561 v 0.60978 H 94.32606 c -0.490025,0 -0.872815,-0.38279 -0.872815,-0.87281 v -9.36894 c 0,-0.49003 0.38279,-0.87333 0.872815,-0.87333 z m 0.958081,1.40921 h 3.286104 c 0.01077,0 0.02189,0.003 0.03204,0.008 l 5.17e-4,5.2e-4 c 0.01957,0.01 0.03762,0.0274 0.05374,0.0522 0.0014,0.002 0.0027,0.004 0.0041,0.007 0.04062,0.0669 0.06718,0.17737 0.06718,0.30334 0,0.12503 -0.02603,0.23475 -0.06615,0.30179 -0.0028,0.005 -0.0059,0.009 -0.0088,0.0134 -0.0053,0.008 -0.01088,0.0145 -0.01654,0.0207 -0.0023,0.003 -0.0049,0.005 -0.0072,0.007 -0.0085,0.008 -0.01714,0.0146 -0.02636,0.0191 l -5.17e-4,5.1e-4 h -5.16e-4 c -0.01015,0.005 -0.02075,0.008 -0.03152,0.008 h -3.286078 c -0.08753,0 -0.15813,-0.16526 -0.15813,-0.37052 0,-0.20526 0.0706,-0.37052 0.15813,-0.37052 z m 0,1.05834 h 3.286104 c 0.01077,0 0.02189,0.003 0.03204,0.008 l 5.17e-4,5.1e-4 c 0.0092,0.004 0.01782,0.011 0.02636,0.0191 0.0024,0.002 0.0049,0.005 0.0072,0.007 0.0064,0.007 0.01274,0.0144 0.0186,0.0232 0.0023,0.003 0.0045,0.007 0.0067,0.0109 0.04011,0.067 0.06615,0.17676 0.06615,0.30179 0,0.12504 -0.02603,0.23476 -0.06615,0.30179 -0.0028,0.005 -0.0059,0.009 -0.0088,0.0134 -0.0053,0.008 -0.01088,0.0145 -0.01654,0.0207 -0.0023,0.003 -0.0049,0.005 -0.0072,0.007 -0.0085,0.008 -0.01714,0.0146 -0.02636,0.0191 l -5.17e-4,5.2e-4 h -5.16e-4 c -0.01015,0.005 -0.02075,0.008 -0.03152,0.008 h -3.286068 c -0.08753,0 -0.15813,-0.16526 -0.15813,-0.37052 0,-0.20526 0.0706,-0.37052 0.15813,-0.37052 z m 0,1.05833 h 3.286104 c 0.01077,0 0.02189,0.003 0.03204,0.008 l 5.17e-4,5.2e-4 c 0.0092,0.005 0.01782,0.011 0.02636,0.0191 0.0024,0.002 0.0049,0.005 0.0072,0.007 0.0064,0.007 0.01274,0.0145 0.0186,0.0233 0.0023,0.003 0.0045,0.007 0.0067,0.0109 0.04011,0.067 0.06615,0.17676 0.06615,0.30179 0,0.12505 -0.02603,0.23475 -0.06615,0.30179 -0.0028,0.005 -0.0059,0.009 -0.0088,0.0134 -0.0053,0.008 -0.01088,0.0145 -0.01654,0.0207 -0.0023,0.003 -0.0049,0.005 -0.0072,0.007 -0.0085,0.008 -0.01714,0.0146 -0.02636,0.0191 l -5.17e-4,5.1e-4 h -5.16e-4 c -0.01015,0.005 -0.02075,0.008 -0.03152,0.008 h -3.286068 c -0.08753,0 -0.15813,-0.16525 -0.15813,-0.37052 0,-0.20526 0.0706,-0.37052 0.15813,-0.37052 z m 0,1.05833 h 3.286104 c 0.01077,0 0.02189,0.003 0.03204,0.008 l 5.17e-4,5.2e-4 c 0.0092,0.004 0.01782,0.011 0.02636,0.0191 0.0024,0.002 0.0049,0.005 0.0072,0.007 0.0064,0.007 0.01274,0.0144 0.0186,0.0233 0.0023,0.003 0.0045,0.007 0.0067,0.0108 0.04011,0.067 0.06615,0.17675 0.06615,0.30179 0,0.12503 -0.02603,0.23475 -0.06615,0.30179 -0.0028,0.005 -0.0059,0.009 -0.0088,0.0134 -0.0053,0.008 -0.01088,0.0145 -0.01654,0.0207 -0.0023,0.003 -0.0049,0.005 -0.0072,0.007 -0.0085,0.008 -0.01714,0.0146 -0.02636,0.0191 l -5.17e-4,5.2e-4 h -5.16e-4 c -0.01015,0.005 -0.02075,0.008 -0.03152,0.008 h -3.286068 c -0.08753,0 -0.15813,-0.16526 -0.15813,-0.37052 0,-0.20526 0.0706,-0.37052 0.15813,-0.37052 z m 0,1.05834 h 3.286104 c 0.01077,0 0.02189,0.003 0.03204,0.008 l 5.17e-4,5.1e-4 c 0.0092,0.005 0.01782,0.011 0.02636,0.0191 0.0024,0.002 0.0049,0.005 0.0072,0.007 0.0064,0.007 0.01274,0.0144 0.0186,0.0233 0.0023,0.003 0.0045,0.007 0.0067,0.0109 0.04011,0.067 0.06615,0.17676 0.06615,0.30179 0,0.12504 -0.02603,0.23476 -0.06615,0.30179 -0.0028,0.005 -0.0059,0.009 -0.0088,0.0134 -0.0053,0.008 -0.01088,0.0145 -0.01654,0.0207 -0.0023,0.003 -0.0049,0.005 -0.0072,0.007 -0.0085,0.008 -0.01714,0.0146 -0.02636,0.0191 l -5.17e-4,5.2e-4 h -5.16e-4 c -0.01015,0.005 -0.02075,0.008 -0.03152,0.008 h -3.286068 c -0.08753,0 -0.15813,-0.16526 -0.15813,-0.37052 0,-0.20526 0.0706,-0.37052 0.15813,-0.37052 z m 0,1.05833 h 3.286104 c 0.01077,0 0.02189,0.003 0.03204,0.008 l 5.17e-4,5.2e-4 c 0.0092,0.005 0.01782,0.011 0.02636,0.0191 0.0024,0.002 0.0049,0.005 0.0072,0.007 0.0064,0.007 0.01274,0.0145 0.0186,0.0233 0.0023,0.003 0.0045,0.007 0.0067,0.0108 0.04011,0.067 0.06615,0.17676 0.06615,0.30179 0,0.12505 -0.02603,0.23475 -0.06615,0.30179 -0.0028,0.005 -0.0059,0.009 -0.0088,0.0134 -0.0053,0.008 -0.01088,0.0145 -0.01654,0.0207 -0.0023,0.003 -0.0049,0.005 -0.0072,0.007 -0.0085,0.008 -0.01714,0.0146 -0.02636,0.0191 l -5.17e-4,5.1e-4 h -5.16e-4 c -0.01015,0.005 -0.02075,0.008 -0.03152,0.008 h -3.286068 c -0.08753,0 -0.15813,-0.16525 -0.15813,-0.37052 0,-0.20526 0.0706,-0.37052 0.15813,-0.37052 z m 0,1.05833 h 3.286104 c 0.01077,0 0.02189,0.003 0.03204,0.008 l 5.17e-4,5.2e-4 c 0.0092,0.004 0.01782,0.011 0.02636,0.0191 0.0024,0.002 0.0049,0.005 0.0072,0.007 0.0064,0.007 0.01274,0.0144 0.0186,0.0233 0.0023,0.003 0.0045,0.007 0.0067,0.0108 0.04011,0.067 0.06615,0.17675 0.06615,0.30179 0,0.12503 -0.02603,0.23475 -0.06615,0.30179 -0.0028,0.005 -0.0059,0.009 -0.0088,0.0134 -0.0053,0.008 -0.01088,0.0145 -0.01654,0.0207 -0.0023,0.003 -0.0049,0.005 -0.0072,0.007 -0.0085,0.008 -0.01714,0.0146 -0.02636,0.0191 l -5.17e-4,5.2e-4 h -5.16e-4 c -0.01015,0.005 -0.02075,0.008 -0.03152,0.008 h -3.286068 c -0.08753,0 -0.15813,-0.16526 -0.15813,-0.37052 0,-0.20526 0.0706,-0.37052 0.15813,-0.37052 z m 0,1.05834 h 3.286104 c 0.01077,0 0.02189,0.003 0.03204,0.008 l 5.17e-4,5.1e-4 c 0.0092,0.005 0.01782,0.011 0.02636,0.0191 0.0024,0.002 0.0049,0.005 0.0072,0.007 0.0064,0.007 0.01274,0.0144 0.0186,0.0233 0.0023,0.003 0.0045,0.007 0.0067,0.0109 0.04011,0.067 0.06615,0.17676 0.06615,0.30179 0,0.12504 -0.02603,0.23476 -0.06615,0.30179 -0.0028,0.005 -0.0059,0.009 -0.0088,0.0134 -0.0053,0.008 -0.01088,0.0145 -0.01654,0.0207 -0.0023,0.003 -0.0049,0.005 -0.0072,0.007 -0.0085,0.008 -0.01714,0.0146 -0.02636,0.0191 l -5.17e-4,5.2e-4 h -5.16e-4 c -0.01015,0.005 -0.02075,0.008 -0.03152,0.008 h -3.286068 c -0.08753,0 -0.15813,-0.16526 -0.15813,-0.37052 0,-0.20526 0.0706,-0.37052 0.15813,-0.37052 z m -34.321422,6.4704 h 36.064468 v 1.87999 c 0,0.61872 -0.459249,1.07849 -1.077971,1.07849 H 62.04069 c -0.61872,0 -1.077971,-0.45977 -1.077971,-1.07849 z"
       inkscape:export-filename="save2.svg"
       inkscape:export-xdpi="150.58987"
       inkscape:export-ydpi="150.58987" />
    <path
       id="path3173"
       style="fill:#000000;fill-opacity:1;stroke:none;stroke-width:0.880746;stroke-linecap:round;stroke-dasharray:none;stroke-opacity:1"
       d="m 7.4299561,51.117691 -1.631,1.631 4.6958399,4.69609 -3.3863299,3.38633 c -0.3588,0.3588 -0.26378,0.65454 -0.0647,0.8448 0.15482,0.14798 0.37259,0.23232 0.48874,0.23272 l 7.8953099,0.0925 c 0.38119,-0.0124 0.677021,-0.0872 0.877661,-0.27612 0.017,-0.0163 0.0337,-0.0333 0.0493,-0.0512 0.0178,-0.0158 0.035,-0.0323 0.0513,-0.0493 0.18897,-0.20065 0.26373,-0.49648 0.27612,-0.87766 l -0.0925,-7.89531 c -9.5e-4,-0.26549 -0.43941,-1.06186 -1.077281,-0.424 l -3.38633,3.38633 z m 25.9155409,0 -4.69609,4.69608 -3.38633,-3.38633 c -0.3588,-0.3588 -0.65455,-0.26378 -0.84481,-0.0647 -0.14797,0.15482 -0.23208,0.37259 -0.23247,0.48874 l -0.0925,7.89531 c 0.0124,0.38119 0.0872,0.67702 0.27613,0.87766 0.0163,0.017 0.0333,0.0337 0.0513,0.0493 0.0158,0.0178 0.0323,0.035 0.0493,0.0512 0.20065,0.18897 0.49648,0.26373 0.87767,0.27612 l 7.89531,-0.0925 c 0.26549,-9.5e-4 1.06185,-0.43965 0.424,-1.07752 l -3.38634,-3.38633 4.69585,-4.69609 z m -17.917721,18.29438 -7.8953099,0.0927 c -0.26549,9.5e-4 -1.06186,0.43941 -0.424,1.07728 l 3.3863299,3.38633 -4.6958399,4.69609 1.631,1.631 4.6960899,-4.69609 3.38633,3.38634 c 0.3588,0.35879 0.654551,0.26403 0.844811,0.065 0.14797,-0.15481 0.23207,-0.37282 0.23247,-0.48898 l 0.0925,-7.89507 c -0.0124,-0.38119 -0.0872,-0.67702 -0.27612,-0.87767 -0.0163,-0.017 -0.0333,-0.0337 -0.0513,-0.0493 -0.0157,-0.0178 -0.0323,-0.0349 -0.0493,-0.0513 -0.20065,-0.18897 -0.496481,-0.26397 -0.877661,-0.27637 z m 9.919901,0 c -0.38119,0.0124 -0.67702,0.0874 -0.87767,0.27637 -0.017,0.0163 -0.0337,0.0333 -0.0493,0.0513 -0.0178,0.0158 -0.0349,0.0323 -0.0513,0.0493 -0.18897,0.20066 -0.26373,0.49648 -0.27613,0.87767 l 0.0925,7.89531 c 9.4e-4,0.26549 0.43941,1.06161 1.07728,0.42376 l 3.38633,-3.38634 4.69609,4.69609 1.631,-1.631 -4.69585,-4.69609 3.38634,-3.38633 c 0.35879,-0.3588 0.26378,-0.65455 0.0647,-0.8448 -0.15482,-0.14798 -0.37258,-0.23208 -0.48874,-0.23248 z" />
    <path
       id="path3606"
       style="fill:#000000;fill-opacity:1;stroke:none;stroke-width:0.895147;stroke-linecap:round;stroke-dasharray:none;stroke-opacity:1"
       d="m 42.728603,147.39469 c -6.088638,7e-5 -11.044776,4.9562 -11.044842,11.04484 a 0.96216886,0.96216886 0 0 0 0.96173,0.96273 0.96216886,0.96216886 0 0 0 0.962533,-0.96273 c 5.4e-5,-5.04867 4.071911,-9.12052 9.120579,-9.12058 2.832232,-2e-5 4.787878,1.12032 6.050751,2.25882 l -4.011691,2.50187 c -0.43759,0.2729 -0.411502,0.58759 -0.258093,0.82164 0.119326,0.18205 0.315785,0.31534 0.430691,0.34238 l 7.795793,1.90359 c 0.380257,0.0752 0.690395,0.069 0.932426,-0.072 0.02057,-0.0123 0.04084,-0.0254 0.06041,-0.0395 0.02124,-0.0115 0.04218,-0.0238 0.06222,-0.037 0.233148,-0.15528 0.37509,-0.43101 0.474839,-0.80559 l 1.720362,-7.83834 c 0.05999,-0.26307 -0.191416,-1.15226 -0.969361,-0.6671 l -4.571227,2.85087 c -1.530932,-1.50997 -4.035137,-3.1439 -7.717119,-3.14389 z"
       inkscape:export-filename="redo.svg"
       inkscape:export-xdpi="96"
       inkscape:export-ydpi="96" />
    <path
       id="path4405"
       style="fill:#000000;fill-opacity:1;stroke:none;stroke-width:0.895147;stroke-linecap:round;stroke-dasharray:none;stroke-opacity:1"
       d="m 20.082646,147.39469 c 6.088638,7e-5 11.044777,4.9562 11.044843,11.04484 a 0.96216886,0.96216886 0 0 1 -0.961732,0.96273 0.96216886,0.96216886 0 0 1 -0.962532,-0.96273 c -5.4e-5,-5.04867 -4.071911,-9.12052 -9.120579,-9.12058 -2.832231,-2e-5 -4.787878,1.12032 -6.05075,2.25882 l 4.01169,2.50187 c 0.437591,0.2729 0.411502,0.58759 0.258093,0.82164 -0.119325,0.18205 -0.315784,0.31534 -0.43069,0.34238 l -7.795794,1.90359 c -0.3802586,0.0752 -0.6903936,0.069 -0.9324251,-0.072 -0.020584,-0.0123 -0.040851,-0.0254 -0.060411,-0.0395 -0.021245,-0.0115 -0.042174,-0.0238 -0.062217,-0.037 -0.2331491,-0.15528 -0.3750937,-0.43101 -0.4748422,-0.80559 l -1.7203588,-7.83834 c -0.059991,-0.26307 0.191415,-1.15226 0.9693595,-0.6671 l 4.5712266,2.85087 c 1.530932,-1.50993 4.035137,-3.14387 7.717119,-3.14386 z"
       inkscape:export-filename="undo.svg"
       inkscape:export-xdpi="96"
       inkscape:export-ydpi="96" />
    <g
       id="g8292"
       transform="matrix(1.344356,0,0,1.344356,20.407266,-218.92439)"
       inkscape:export-filename="fill_colored.svg"
       inkscape:export-xdpi="150.58987"
       inkscape:export-ydpi="150.58987">
      <path
         style="fill:url(#linearGradient2377);fill-opacity:1;stroke-width:0.201056"
         d="m 113.14388,242.83784 c -2.4927,0.009 -6.08343,1.78962 -6.5878,5.24123 -0.42849,2.93227 -0.10742,3.81977 0.38243,5.3215 0.93543,2.86774 -1.23524,6.66942 -0.48925,7.34201 1.02615,0.84826 3.13772,-5.19219 4.35975,-9.27766 1.03245,-3.45167 0.89481,-4.81796 0.89481,-4.81796 1.15249,-1.09366 2.31156,-2.44147 3.45286,-3.58278 -0.62802,-0.14989 -1.31484,-0.22896 -2.0128,-0.22634 z"
         id="path1755" />
      <path
         style="fill:#999999;fill-opacity:1;stroke-width:0.201056"
         d="m 122.09011,239.1838 c -0.24427,0 -0.48876,0.0939 -0.67593,0.28112 l -1.06195,1.06195 v 4.99866 c 0,0.51728 -0.69616,1.46296 -1.56166,1.46296 h -0.46767 c -0.86551,0 -1.56218,-0.94568 -1.56218,-1.46296 v -1.40715 l -0.0517,0.0517 c -0.002,-7.6e-4 -10e-4,-2.7e-4 -0.003,-0.001 v 0.004 l -3.09025,3.09077 c -0.37435,0.37434 -0.36978,0.97248 0,1.35134 l 9.17877,9.40356 c 0.3698,0.37883 0.97647,0.37434 1.35082,0 l 7.799,-7.79901 c 0.37435,-0.37435 0.37435,-0.97699 0,-1.35134 l -9.17825,-9.40356 c -0.18717,-0.18717 -0.43165,-0.28112 -0.67592,-0.28112 z"
         id="path1753" />
      <path
         style="fill:#999999;fill-opacity:1;stroke-width:0.201056"
         d="m 118.45726,234.65126 c -0.40295,0 -0.72761,0.32517 -0.72761,0.72812 v 9.83557 c 0,0.40295 0.32466,0.72812 0.72761,0.72812 h 0.21755 c 0.40295,0 0.72709,-0.32517 0.72709,-0.72812 v -9.83557 c 0,-0.40295 -0.32414,-0.72812 -0.72709,-0.72812 z"
         id="rect5620-8" />
      <path
         id="path1964"
         style="fill:#666666;fill-opacity:1;stroke-width:0.201056"
         d="m 122.09022,239.18385 c -0.24427,0 -0.48876,0.0939 -0.67593,0.28112 l -0.1788,0.1788 8.96742,9.18755 c 0.37434,0.37435 0.37434,0.97699 0,1.35134 l -7.61969,7.61969 0.21135,0.21653 c 0.3698,0.37883 0.97647,0.37434 1.35082,0 l 7.79901,-7.79901 c 0.37435,-0.37435 0.37435,-0.97699 0,-1.35134 l -9.17825,-9.40356 c -0.18717,-0.18717 -0.43166,-0.28112 -0.67593,-0.28112 z"
         sodipodi:nodetypes="ssccccscsccs" />
      <path
         id="path2038"
         style="fill:#d6d6d6;fill-opacity:1;stroke-width:0.201056"
         d="m 122.09022,239.18385 c -0.24427,0 -0.48876,0.0939 -0.67593,0.28112 l -1.06195,1.06195 v 1.78129 l 1.78129,-1.78129 0.84439,-0.84439 -0.21187,-0.21756 c -0.18717,-0.18717 -0.43166,-0.28112 -0.67593,-0.28112 z m -5.32939,4.93458 -0.0517,0.0517 c -0.002,-7.6e-4 -0.001,-3e-4 -0.003,-0.001 v 0.004 l -3.09025,3.09077 c -0.37435,0.37434 -0.36978,0.97248 0,1.35134 l 9.17877,9.40356 c 0.3698,0.37883 0.97647,0.37434 1.35082,0 l 0.21808,-0.21808 -8.96638,-9.18548 c -0.36978,-0.37886 -0.37435,-0.977 0,-1.35134 l 1.42782,-1.42834 c -0.0413,-0.11167 -0.0641,-0.21784 -0.0641,-0.31006 z" />
      <path
         style="fill:#d6d6d6;fill-opacity:1;stroke-width:0.0816599"
         d="m 117.86196,235.17524 c -0.0733,0 -0.13231,0.29499 -0.13231,0.66054 v 8.92277 c 0,0.36555 0.059,0.66054 0.13231,0.66054 h 0.0395 c 0.0733,0 0.13221,-0.29499 0.13221,-0.66054 v -8.92277 c 0,-0.36555 -0.0589,-0.66054 -0.13221,-0.66054 z"
         id="path2100" />
      <path
         style="fill:#666666;fill-opacity:1;stroke-width:0.0816599"
         d="m 119.23019,235.17524 c -0.0733,0 -0.13231,0.29499 -0.13231,0.66054 v 8.92277 c 0,0.36555 0.059,0.66054 0.13231,0.66054 h 0.0395 c 0.0733,0 0.13221,-0.29499 0.13221,-0.66054 v -8.92277 c 0,-0.36555 -0.0589,-0.66054 -0.13221,-0.66054 z"
         id="path2309" />
    </g>
  </g>
</svg>
