<?xml version="1.0" encoding="UTF-8" standalone="no"?>
<!-- Created with Inkscape (http://www.inkscape.org/) -->

<svg
   width="28.305763mm"
   height="28.305252mm"
   viewBox="0 0 28.305763 28.305252"
   version="1.1"
   id="svg5"
   xmlns:inkscape="http://www.inkscape.org/namespaces/inkscape"
   xmlns:sodipodi="http://sodipodi.sourceforge.net/DTD/sodipodi-0.dtd"
   xmlns="http://www.w3.org/2000/svg"
   xmlns:svg="http://www.w3.org/2000/svg">
  <sodipodi:namedview
     id="namedview7"
     pagecolor="#ffffff"
     bordercolor="#000000"
     borderopacity="0.25"
     inkscape:showpageshadow="2"
     inkscape:pageopacity="0.0"
     inkscape:pagecheckerboard="0"
     inkscape:deskcolor="#d1d1d1"
     inkscape:document-units="mm"
     showgrid="false" />
  <defs
     id="defs2" />
  <g
     inkscape:label="Ebene 1"
     inkscape:groupmode="layer"
     id="layer1"
     transform="translate(-70.139902,-107.68025)">
    <path
       id="path788"
       style="fill:#dddddd;fill-opacity:1;stroke:none;stroke-width:10;stroke-linecap:round;stroke-linejoin:round;paint-order:fill markers stroke"
       d="M 84.292529,107.68025 A 14.152671,14.152671 0 0 0 70.139905,121.83287 14.152671,14.152671 0 0 0 84.292529,135.9855 14.152671,14.152671 0 0 0 98.445671,121.83287 14.152671,14.152671 0 0 0 84.292529,107.68025 Z m -0.124023,4.14187 h 0.248563 c 1.26636,0 2.286166,1.01928 2.286166,2.28564 0,1.26636 -1.019806,2.28565 -2.286166,2.28565 h -0.248563 c -1.26636,0 -2.286166,-1.01929 -2.286166,-2.28565 0,-1.26636 1.019806,-2.28564 2.286166,-2.28564 z m 0.12454,6.96546 c 1.335305,0 2.410189,1.07488 2.410189,2.41019 v 8.23567 c 0,1.33531 -1.074884,2.41019 -2.410189,2.41019 -1.335305,0 -2.410706,-1.07488 -2.410706,-2.41019 v -8.23567 c 0,-1.33531 1.075401,-2.41019 2.410706,-2.41019 z"
       inkscape:export-filename="info_light.png"
       inkscape:export-xdpi="96"
       inkscape:export-ydpi="96" />
  </g>
</svg>
