<?xml version="1.0" encoding="UTF-8" standalone="no"?>
<!-- Created with Inkscape (http://www.inkscape.org/) -->

<svg
   width="41.064678mm"
   height="47.040543mm"
   viewBox="0 0 41.064678 47.040543"
   version="1.1"
   id="svg5"
   xmlns:inkscape="http://www.inkscape.org/namespaces/inkscape"
   xmlns:sodipodi="http://sodipodi.sourceforge.net/DTD/sodipodi-0.dtd"
   xmlns="http://www.w3.org/2000/svg"
   xmlns:svg="http://www.w3.org/2000/svg">
  <sodipodi:namedview
     id="namedview7"
     pagecolor="#ffffff"
     bordercolor="#000000"
     borderopacity="0.25"
     inkscape:showpageshadow="2"
     inkscape:pageopacity="0.0"
     inkscape:pagecheckerboard="0"
     inkscape:deskcolor="#d1d1d1"
     inkscape:document-units="mm"
     showgrid="false" />
  <defs
     id="defs2" />
  <g
     inkscape:label="Ebene 1"
     inkscape:groupmode="layer"
     id="layer1"
     transform="translate(-3.9584146,-76.506956)">
    <path
       id="path13319"
       style="color:#000000;fill:#000000;stroke-linecap:round;stroke-linejoin:round"
       d="m 23.445081,76.506958 c -0.603607,0 -1.031462,0.414002 -1.031462,1.058333 v 12.54187 h -8.625313 c -1.624664,2.7e-5 -1.168957,1.572248 -0.831991,1.911512 l 9.936861,10.173537 c 0.501224,0.46967 0.973483,0.75097 1.469678,0.76585 0.04236,8.4e-4 0.08527,6e-5 0.128158,-0.003 0.04262,0.003 0.08528,0.004 0.12764,0.003 0.496194,-0.0149 0.967939,-0.29618 1.469161,-0.76585 l 9.936861,-10.173537 c 0.336965,-0.339264 0.793192,-1.911485 -0.831473,-1.911512 h -8.62583 v -12.54187 c 0,-0.596041 -0.381913,-1.058333 -1.069703,-1.058333 z M 7.5364909,98.72524 c -1.9604702,0 -3.5780762,1.6176 -3.5780762,3.57808 v 17.6661 c 0,1.96045 1.617606,3.57808 3.5780762,3.57808 H 41.445015 c 1.960472,0 3.578077,-1.61763 3.578077,-3.57808 v -6.92567 -9.36894 -1.37149 c 0,-1.96048 -1.617605,-3.57808 -3.578077,-3.57808 h -8.420674 l -2.442228,2.50011 h 10.862902 c 0.541203,0 0.96024,0.35155 1.056784,0.85369 h -2.67994 c -0.877812,0 -1.595769,0.71795 -1.595769,1.59577 v 9.36894 c 0,0.87781 0.717957,1.59576 1.595769,1.59576 h 2.701127 v 1.35444 H 6.4585205 v -13.69063 c 0,-0.61872 0.4592506,-1.07797 1.0779704,-1.07797 H 18.398877 l -2.442228,-2.50011 z m 32.2853681,4.07624 h 2.701127 v 0.60978 h -1.820561 c -0.571719,0 -1.031978,0.46026 -1.031978,1.03198 v 7.83156 c 0,0.57171 0.460259,1.03198 1.031978,1.03198 h 1.820561 v 0.60978 h -2.701127 c -0.490025,0 -0.872815,-0.38279 -0.872815,-0.87281 v -9.36894 c 0,-0.49003 0.38279,-0.87333 0.872815,-0.87333 z m 0.958081,1.40921 h 3.286104 c 0.01077,0 0.02189,0.003 0.03204,0.008 l 5.17e-4,5.2e-4 c 0.01957,0.01 0.03762,0.0274 0.05374,0.0522 0.0014,0.002 0.0027,0.004 0.0041,0.007 0.04062,0.0669 0.06718,0.17737 0.06718,0.30334 0,0.12503 -0.02603,0.23475 -0.06615,0.30179 -0.0028,0.005 -0.0059,0.009 -0.0088,0.0134 -0.0053,0.008 -0.01088,0.0145 -0.01654,0.0207 -0.0023,0.003 -0.0049,0.005 -0.0072,0.007 -0.0085,0.008 -0.01714,0.0146 -0.02636,0.0191 l -5.17e-4,5.1e-4 h -5.16e-4 c -0.01015,0.005 -0.02075,0.008 -0.03152,0.008 H 40.77994 c -0.08753,0 -0.15813,-0.16526 -0.15813,-0.37052 0,-0.20526 0.0706,-0.37052 0.15813,-0.37052 z m 0,1.05834 h 3.286104 c 0.01077,0 0.02189,0.003 0.03204,0.008 l 5.17e-4,5.1e-4 c 0.0092,0.004 0.01782,0.011 0.02636,0.0191 0.0024,0.002 0.0049,0.005 0.0072,0.007 0.0064,0.007 0.01274,0.0144 0.0186,0.0232 0.0023,0.003 0.0045,0.007 0.0067,0.0109 0.04011,0.067 0.06615,0.17676 0.06615,0.30179 0,0.12504 -0.02603,0.23476 -0.06615,0.30179 -0.0028,0.005 -0.0059,0.009 -0.0088,0.0134 -0.0053,0.008 -0.01088,0.0145 -0.01654,0.0207 -0.0023,0.003 -0.0049,0.005 -0.0072,0.007 -0.0085,0.008 -0.01714,0.0146 -0.02636,0.0191 l -5.17e-4,5.2e-4 h -5.16e-4 c -0.01015,0.005 -0.02075,0.008 -0.03152,0.008 H 40.77994 c -0.08753,0 -0.15813,-0.16526 -0.15813,-0.37052 0,-0.20526 0.0706,-0.37052 0.15813,-0.37052 z m 0,1.05833 h 3.286104 c 0.01077,0 0.02189,0.003 0.03204,0.008 l 5.17e-4,5.2e-4 c 0.0092,0.005 0.01782,0.011 0.02636,0.0191 0.0024,0.002 0.0049,0.005 0.0072,0.007 0.0064,0.007 0.01274,0.0145 0.0186,0.0233 0.0023,0.003 0.0045,0.007 0.0067,0.0109 0.04011,0.067 0.06615,0.17676 0.06615,0.30179 0,0.12505 -0.02603,0.23475 -0.06615,0.30179 -0.0028,0.005 -0.0059,0.009 -0.0088,0.0134 -0.0053,0.008 -0.01088,0.0145 -0.01654,0.0207 -0.0023,0.003 -0.0049,0.005 -0.0072,0.007 -0.0085,0.008 -0.01714,0.0146 -0.02636,0.0191 l -5.17e-4,5.1e-4 h -5.16e-4 c -0.01015,0.005 -0.02075,0.008 -0.03152,0.008 H 40.77994 c -0.08753,0 -0.15813,-0.16525 -0.15813,-0.37052 0,-0.20526 0.0706,-0.37052 0.15813,-0.37052 z m 0,1.05833 h 3.286104 c 0.01077,0 0.02189,0.003 0.03204,0.008 l 5.17e-4,5.2e-4 c 0.0092,0.004 0.01782,0.011 0.02636,0.0191 0.0024,0.002 0.0049,0.005 0.0072,0.007 0.0064,0.007 0.01274,0.0144 0.0186,0.0232 0.0023,0.003 0.0045,0.007 0.0067,0.0109 0.04011,0.067 0.06615,0.17675 0.06615,0.30179 0,0.12503 -0.02603,0.23475 -0.06615,0.30179 -0.0028,0.005 -0.0059,0.009 -0.0088,0.0134 -0.0053,0.008 -0.01088,0.0145 -0.01654,0.0207 -0.0023,0.003 -0.0049,0.005 -0.0072,0.007 -0.0085,0.008 -0.01714,0.0146 -0.02636,0.0191 l -5.17e-4,5.2e-4 h -5.16e-4 c -0.01015,0.005 -0.02075,0.008 -0.03152,0.008 H 40.77994 c -0.08753,0 -0.15813,-0.16526 -0.15813,-0.37052 0,-0.20526 0.0706,-0.37052 0.15813,-0.37052 z m 0,1.05834 h 3.286104 c 0.01077,0 0.02189,0.003 0.03204,0.008 l 5.17e-4,5.1e-4 c 0.0092,0.005 0.01782,0.011 0.02636,0.0191 0.0024,0.002 0.0049,0.005 0.0072,0.007 0.0064,0.007 0.01274,0.0144 0.0186,0.0233 0.0023,0.003 0.0045,0.007 0.0067,0.0109 0.04011,0.067 0.06615,0.17676 0.06615,0.30179 0,0.12504 -0.02603,0.23476 -0.06615,0.30179 -0.0028,0.005 -0.0059,0.009 -0.0088,0.0134 -0.0053,0.008 -0.01088,0.0145 -0.01654,0.0207 -0.0023,0.003 -0.0049,0.005 -0.0072,0.007 -0.0085,0.008 -0.01714,0.0146 -0.02636,0.0191 l -5.17e-4,5.2e-4 h -5.16e-4 c -0.01015,0.005 -0.02075,0.008 -0.03152,0.008 H 40.77994 c -0.08753,0 -0.15813,-0.16526 -0.15813,-0.37052 0,-0.20526 0.0706,-0.37052 0.15813,-0.37052 z m 0,1.05833 h 3.286104 c 0.01077,0 0.02189,0.003 0.03204,0.008 l 5.17e-4,5.2e-4 c 0.0092,0.005 0.01782,0.011 0.02636,0.0191 0.0024,0.002 0.0049,0.005 0.0072,0.007 0.0064,0.007 0.01274,0.0145 0.0186,0.0233 0.0023,0.003 0.0045,0.007 0.0067,0.0109 0.04011,0.067 0.06615,0.17676 0.06615,0.30179 0,0.12505 -0.02603,0.23475 -0.06615,0.30179 -0.0028,0.005 -0.0059,0.009 -0.0088,0.0134 -0.0053,0.008 -0.01088,0.0145 -0.01654,0.0207 -0.0023,0.003 -0.0049,0.005 -0.0072,0.007 -0.0085,0.008 -0.01714,0.0146 -0.02636,0.0191 l -5.17e-4,5.1e-4 h -5.16e-4 c -0.01015,0.005 -0.02075,0.008 -0.03152,0.008 H 40.77994 c -0.08753,0 -0.15813,-0.16525 -0.15813,-0.37052 0,-0.20526 0.0706,-0.37052 0.15813,-0.37052 z m 0,1.05833 h 3.286104 c 0.01077,0 0.02189,0.003 0.03204,0.008 l 5.17e-4,5.2e-4 c 0.0092,0.004 0.01782,0.011 0.02636,0.0191 0.0024,0.002 0.0049,0.005 0.0072,0.007 0.0064,0.007 0.01274,0.0144 0.0186,0.0233 0.0023,0.003 0.0045,0.007 0.0067,0.0108 0.04011,0.067 0.06615,0.17675 0.06615,0.30179 0,0.12503 -0.02603,0.23475 -0.06615,0.30179 -0.0028,0.005 -0.0059,0.009 -0.0088,0.0134 -0.0053,0.008 -0.01088,0.0145 -0.01654,0.0207 -0.0023,0.003 -0.0049,0.005 -0.0072,0.007 -0.0085,0.008 -0.01714,0.0146 -0.02636,0.0191 l -5.17e-4,5.2e-4 h -5.16e-4 c -0.01015,0.005 -0.02075,0.008 -0.03152,0.008 H 40.77994 c -0.08753,0 -0.15813,-0.16526 -0.15813,-0.37052 0,-0.20526 0.0706,-0.37052 0.15813,-0.37052 z m 0,1.05834 h 3.286104 c 0.01077,0 0.02189,0.003 0.03204,0.008 l 5.17e-4,5.1e-4 c 0.0092,0.005 0.01782,0.011 0.02636,0.0191 0.0024,0.002 0.0049,0.005 0.0072,0.007 0.0064,0.007 0.01274,0.0144 0.0186,0.0233 0.0023,0.003 0.0045,0.007 0.0067,0.0109 0.04011,0.067 0.06615,0.17676 0.06615,0.30179 0,0.12504 -0.02603,0.23476 -0.06615,0.30179 -0.0028,0.005 -0.0059,0.009 -0.0088,0.0134 -0.0053,0.008 -0.01088,0.0145 -0.01654,0.0207 -0.0023,0.003 -0.0049,0.005 -0.0072,0.007 -0.0085,0.008 -0.01714,0.0146 -0.02636,0.0191 l -5.17e-4,5.2e-4 h -5.16e-4 c -0.01015,0.005 -0.02075,0.008 -0.03152,0.008 H 40.77994 c -0.08753,0 -0.15813,-0.16526 -0.15813,-0.37052 0,-0.20526 0.0706,-0.37052 0.15813,-0.37052 z m -34.3214195,6.4704 H 42.522986 v 1.87999 c 0,0.61872 -0.459249,1.07849 -1.077971,1.07849 H 7.5364909 c -0.6187198,0 -1.0779704,-0.45977 -1.0779704,-1.07849 z" />
  </g>
</svg>
