<?xml version="1.0" encoding="UTF-8" standalone="no"?>
<!-- Created with Inkscape (http://www.inkscape.org/) -->

<svg
   width="68.486778mm"
   height="68.486778mm"
   viewBox="0 0 68.486778 68.486778"
   version="1.1"
   id="svg5"
   xmlns:inkscape="http://www.inkscape.org/namespaces/inkscape"
   xmlns:sodipodi="http://sodipodi.sourceforge.net/DTD/sodipodi-0.dtd"
   xmlns="http://www.w3.org/2000/svg"
   xmlns:svg="http://www.w3.org/2000/svg">
  <sodipodi:namedview
     id="namedview7"
     pagecolor="#ffffff"
     bordercolor="#000000"
     borderopacity="0.25"
     inkscape:showpageshadow="2"
     inkscape:pageopacity="0.0"
     inkscape:pagecheckerboard="0"
     inkscape:deskcolor="#d1d1d1"
     inkscape:document-units="mm"
     showgrid="false" />
  <defs
     id="defs2" />
  <g
     inkscape:label="Ebene 1"
     inkscape:groupmode="layer"
     id="layer1"
     transform="translate(-20.964095,-106.94587)">
    <path
       id="rect6772"
       style="fill:#000000;fill-opacity:1;stroke:none;stroke-width:1.85599;stroke-linecap:round;stroke-dasharray:none;stroke-opacity:1"
       d="m 55.057621,106.94644 c -0.580568,0.0174 -1.132814,0.34653 -1.719275,0.89607 l -11.62668,11.90264 c -0.394257,0.39694 -0.927349,2.23705 0.973584,2.23707 h 10.09189 v 38.41419 H 42.68525 c -1.900933,2e-5 -1.367841,1.84013 -0.973584,2.23707 l 11.62668,11.90264 c 0.586461,0.54954 1.138707,0.87867 1.719275,0.89607 0.04957,0.001 0.09985,4.1e-4 0.149862,-0.003 0.05001,0.003 0.100292,0.004 0.149862,0.003 0.580568,-0.0174 1.132815,-0.34653 1.719274,-0.89607 L 68.7033,162.63348 c 0.394257,-0.39694 0.927349,-2.23705 -0.973584,-2.23707 h -10.09189 v -38.41419 h 10.09189 c 1.900933,-2e-5 1.367841,-1.84013 0.973584,-2.23707 L 57.076619,107.84251 c -0.586459,-0.54954 -1.138706,-0.87867 -1.719274,-0.89607 -0.04957,-10e-4 -0.09985,-10e-6 -0.149862,0.003 -0.05001,-0.003 -0.100292,-0.004 -0.149862,-0.003 z" />
    <path
       id="path7064"
       style="fill:#000000;fill-opacity:1;stroke:none;stroke-width:1.85599;stroke-linecap:round;stroke-dasharray:none;stroke-opacity:1"
       d="m 89.450294,141.03939 c -0.0174,-0.58057 -0.34653,-1.13282 -0.89607,-1.71928 l -11.90264,-11.62668 c -0.39694,-0.39425 -2.23705,-0.92735 -2.23707,0.97359 v 10.09189 h -38.41419 v -10.09189 c -2e-5,-1.90094 -1.84013,-1.36784 -2.23707,-0.97359 l -11.90264,11.62668 c -0.54954,0.58646 -0.87867,1.13871 -0.89607,1.71928 -0.001,0.0496 -4.1e-4,0.0999 0.0026,0.14986 -0.003,0.05 -0.0036,0.10029 -0.0026,0.14986 0.0174,0.58057 0.34653,1.13282 0.89607,1.71928 l 11.90264,11.62668 c 0.39694,0.39425 2.23705,0.92735 2.23707,-0.97359 v -10.09189 h 38.41419 v 10.09189 c 2e-5,1.90094 1.84013,1.36784 2.23707,0.97359 l 11.90264,-11.62668 c 0.54954,-0.58646 0.87867,-1.13871 0.89607,-1.71928 0.0015,-0.0496 1e-5,-0.0998 -0.0031,-0.14986 0.003,-0.05 0.0041,-0.10029 0.0031,-0.14986 z" />
  </g>
</svg>
