<?xml version="1.0" encoding="UTF-8" standalone="no"?>
<!-- Created with Inkscape (http://www.inkscape.org/) -->

<svg
   width="93.563553mm"
   height="89.375443mm"
   viewBox="0 0 93.563553 89.375443"
   version="1.1"
   id="svg5"
   xml:space="preserve"
   xmlns:inkscape="http://www.inkscape.org/namespaces/inkscape"
   xmlns:sodipodi="http://sodipodi.sourceforge.net/DTD/sodipodi-0.dtd"
   xmlns="http://www.w3.org/2000/svg"
   xmlns:svg="http://www.w3.org/2000/svg"><sodipodi:namedview
     id="namedview7"
     pagecolor="#717171"
     bordercolor="#000000"
     borderopacity="0.25"
     inkscape:showpageshadow="2"
     inkscape:pageopacity="0"
     inkscape:pagecheckerboard="0"
     inkscape:deskcolor="#d1d1d1"
     inkscape:document-units="mm"
     showgrid="false" /><defs
     id="defs2" /><g
     inkscape:label="Ebene 1"
     inkscape:groupmode="layer"
     id="layer1"
     transform="translate(-47.08579,-186.335)"><path
       id="path6021"
       style="color:#000000;fill:#ffffff;fill-opacity:1;stroke:#ffffff;stroke-width:10;stroke-linecap:round;stroke-linejoin:round;stroke-dasharray:none;stroke-opacity:1;paint-order:fill markers stroke"
       d="m 100.77498,191.33655 c -3.193719,0.0439 -6.389939,1.07468 -8.711619,3.04788 l -31.21101,26.52654 c -1.36881,1.16335 -2.28042,2.52452 -2.74247,3.9455 -0.014,0.0208 -0.0278,0.0418 -0.0413,0.063 l -4.68188,9.80044 c -3e-4,5.8e-4 3e-4,0.001 0,0.002 -2.94054,5.78531 -0.81154,12.31963 4.17804,15.91014 l 24.11894,17.35552 c 5.34067,3.84318 12.93214,3.53651 17.945671,-0.7245 l 32.439358,-27.57041 c 2.58354,-2.19552 3.56022,-5.28479 3.58015,-7.91786 0.0199,-2.63153 -0.62963,-4.978 -1.01596,-6.9355 v -0.004 l -2.40816,-12.29488 c -0.0264,-0.0934 -0.0572,-0.18552 -0.0925,-0.27595 -0.43489,-1.84637 -1.6212,-3.5864 -3.54501,-4.91546 l -19.96622,-13.79347 c -2.21193,-1.52812 -5.02805,-2.2577 -7.84603,-2.21899 z"
       sodipodi:nodetypes="sccccccccccsccccccs"
       inkscape:export-filename="penshift_simple_outline.svg"
       inkscape:export-xdpi="96"
       inkscape:export-ydpi="96" /><path
       id="path6004"
       style="color:#000000;fill:#000000;stroke:#000000;stroke-width:3;stroke-linecap:round;stroke-linejoin:round;stroke-dasharray:none;stroke-opacity:1;paint-order:fill markers stroke"
       d="m 100.77498,191.33655 c -3.193724,0.0439 -6.389938,1.07468 -8.711617,3.04788 l -31.211015,26.52654 c -1.368806,1.16335 -2.280417,2.52452 -2.742468,3.9455 -0.01404,0.0208 -0.02782,0.0418 -0.04134,0.063 l -4.681885,9.80044 c -2.99e-4,5.8e-4 3e-4,0.001 0,0.002 -2.940534,5.78531 -0.811531,12.31963 4.17804,15.91014 l 24.118941,17.35552 c 5.340678,3.84318 12.932146,3.53651 17.945674,-0.7245 l 32.43936,-27.57041 c 2.58354,-2.19552 3.56022,-5.28479 3.58015,-7.91786 0.0199,-2.63153 -0.62963,-4.978 -1.01596,-6.9355 v -0.004 l -2.40812,-12.29486 c -0.0264,-0.0934 -0.0572,-0.18552 -0.0925,-0.27595 -0.43489,-1.84637 -1.6212,-3.5864 -3.54501,-4.91546 l -19.96622,-13.79347 c -2.21193,-1.52812 -5.02805,-2.2577 -7.84603,-2.21899 z m 24.47068,21.43832 -1.31034,-1.47158 c 2.02301,1.3976 2.13557,3.68846 0.262,5.28081 l -31.211016,26.52655 c -1.873583,1.59236 -4.857702,1.74125 -6.880717,0.34365 L 66.139364,229.66083 c -2.023015,-1.39761 -2.137133,-3.68742 -0.26355,-5.27979 l 14.32138,-11.6434 c 0.591561,0.92895 2.615474,1.1165 5.888102,0.0267 9.522393,-3.11158 8.072142,7.17425 12.672362,6.36751 4.798542,-1.7382 3.894482,-5.35689 9.091532,-6.85391 4.64373,-1.37858 5.10178,4.21718 8.33116,3.84229 3.10752,-0.61694 5.93784,1.39543 9.06531,-3.34536 z m 2.57159,8.472 0.92915,4.74493 v 0.004 c 0.4341,2.20078 0.91371,4.22346 0.90227,5.73453 -0.0114,1.51108 -0.2257,2.33728 -1.46503,3.39049 L 95.742208,262.6933 c -2.631861,2.23683 -7.750903,2.44322 -10.554394,0.42581 L 61.068356,245.7632 c -3.15408,-2.26969 -4.065954,-4.91318 -2.331641,-8.32404 0.0113,-0.0221 0.02232,-0.0443 0.03307,-0.0667 l 2.040185,-4.27106 c 0.215463,0.17646 0.439426,0.34869 0.677478,0.51315 l 19.966224,13.79399 c 4.718785,3.25998 12.185368,2.88639 16.555578,-0.82786 z m -38.655519,1.21233 -13.220898,0.062 1.320849,10.07949 3.355868,-2.85978 8.465633,5.83169 5.188314,-4.42195 -8.465633,-5.83169 z"
       sodipodi:nodetypes="sccccccccccsccccccssccccccccccccccccscccccccccsccccccccc" /></g></svg>
