<?xml version="1.0" encoding="UTF-8" standalone="no"?>
<!-- Created with Inkscape (http://www.inkscape.org/) -->

<svg
   width="93.503258mm"
   height="93.664665mm"
   viewBox="0 0 93.503258 93.664665"
   version="1.1"
   id="svg5"
   xml:space="preserve"
   xmlns:inkscape="http://www.inkscape.org/namespaces/inkscape"
   xmlns:sodipodi="http://sodipodi.sourceforge.net/DTD/sodipodi-0.dtd"
   xmlns="http://www.w3.org/2000/svg"
   xmlns:svg="http://www.w3.org/2000/svg"><sodipodi:namedview
     id="namedview7"
     pagecolor="#717171"
     bordercolor="#000000"
     borderopacity="0.25"
     inkscape:showpageshadow="2"
     inkscape:pageopacity="0"
     inkscape:pagecheckerboard="0"
     inkscape:deskcolor="#d1d1d1"
     inkscape:document-units="mm"
     showgrid="false" /><defs
     id="defs2" /><g
     inkscape:label="Ebene 1"
     inkscape:groupmode="layer"
     id="layer1"
     transform="translate(-48.295118,-84.253728)"><g
       id="path5946"
       transform="translate(45.508333,7.2760416)"><path
         style="color:#000000;fill:#000000;stroke:none;stroke-linecap:round;stroke-linejoin:round;-inkscape-stroke:none;paint-order:fill markers stroke"
         d="m 54.072776,76.97989 c -2.07094,-0.005 -3.98149,0.15852 -5.73632,0.45704 -0.29264,0.0497 -0.57962,0.10353 -0.86133,0.16015 a 3.0003,3.0003 0 0 0 -0.004,-0.002 c -1.98752,0.3996 -3.7628,0.97532 -5.33399,1.66211 -4.85476,2.12209 -7.29572,5.05675 -8.63476,7.00391 l -27.8437525,9.53906 0.06836,-0.0215 c -2.027221,0.6418 -3.278803,2.764327 -2.859375,4.84766 l 0.173828,0.86328 a 3.0003,3.0003 0 0 0 0,0.002 c 0.422169,2.08391 2.400833,3.55455 4.517578,3.35938 l -0.06641,0.006 23.6191415,-1.66406 -14.560547,12.375 c -1.74694,1.48473 -3.005294,3.31419 -3.652344,5.30273 l 0.355469,-0.73633 c -0.02846,0.0427 -0.05663,0.0855 -0.08398,0.12891 a 3.0003,3.0003 0 0 0 -0.167968,0.30664 l -4.6601575,9.75976 -0.03125,0.0645 -0.002,0.002 -0.01953,0.041 a 3.0003,3.0003 0 0 0 0.0059,0.0195 c -3.507624,7.08568 -0.86229,15.22427 5.1582045,19.55664 l 24.119143,17.35547 c 6.49611,4.6746 15.54269,4.30761 21.64062,-0.875 l 32.439455,-27.57032 c 3.35759,-2.85331 4.6113,-6.82457 4.63672,-10.18164 0.0237,-3.13653 -0.71891,-5.76059 -1.07031,-7.54101 l -2.40625,-12.29297 a 3.0003,3.0003 0 0 0 -0.0566,-0.23242 c -0.0559,-0.19967 -0.12098,-0.39703 -0.19726,-0.58985 l 0.12695,0.40625 c -0.62341,-2.61161 -2.3066,-4.9753 -4.7539,-6.66601 L 76.094216,93.64803 a 3.0003,3.0003 0 0 0 -2.4043,0.12305 c 1.64697,-1.4346 3.23765,-2.63835 4.96094,-4.40039 0.0435,-0.0441 0.11783,-0.11604 0.11523,-0.11328 a 3.0003,3.0003 0 0 0 0.0215,-0.0215 c 0.0646,-0.0699 0.12207,-0.13816 0.17773,-0.20703 l 0.006,-0.008 c 0.0215,-0.0266 0.0397,-0.0494 0.0469,-0.0586 a 3.0003,3.0003 0 0 0 0.11329,-0.1543 c -0.0648,0.0943 -0.0238,0.0507 0.0996,-0.14843 l -0.0957,0.14648 c -0.0483,0.0687 4.7e-4,0.0109 0.125,-0.1875 a 3.0003,3.0003 0 0 0 0.004,-0.006 c 0.0503,-0.0805 0.10807,-0.1779 0.16797,-0.29297 l 0.004,-0.01 c 0.0912,-0.17704 0.11906,-0.24466 0.0625,-0.12695 a 3.0003,3.0003 0 0 0 0.0195,-0.041 c 0.0113,-0.0246 0.0394,-0.0817 0.0781,-0.17578 a 3.0003,3.0003 0 0 0 0.0684,-0.1836 c -0.0269,0.0801 -0.003,0.0107 0.01,-0.0254 l 0.004,-0.0137 c -0.002,0.005 0.0106,-0.0287 0.0117,-0.0312 0.001,-0.003 8.6e-4,-0.009 0.002,-0.0117 0.0515,-0.14783 0.10298,-0.32206 0.13867,-0.53906 l -0.0547,0.25977 c 0.0283,-0.10995 0.0439,-0.19301 0.0566,-0.26172 -0.0225,0.11719 0.0173,-0.15705 0.008,-0.0801 a 3.0003,3.0003 0 0 0 0.0215,-0.0781 c 0.001,-0.007 0.005,-0.0337 0.006,-0.043 0.002,-0.0148 -0.0241,0.0872 -0.0234,0.0859 -0.028,0.34634 0.0469,0.50966 0.0469,-0.4668 l -0.0234,0.36719 c 0.008,-0.0537 0.0185,-0.11629 0.0274,-0.23242 a 3.0003,3.0003 0 0 0 0,-0.004 c -0.007,0.0963 -0.005,-0.15695 0,-0.14649 0.0151,-0.32904 -0.0146,-0.67881 -0.0879,-1.03711 -0.0237,-0.14869 -0.0322,-0.0945 -0.0586,-0.19531 a 3.0003,3.0003 0 0 0 -0.006,-0.0352 c 0.0215,0.0816 0.0264,0.036 0.0469,0.14844 l 0.0176,0.0742 c -0.006,-0.0291 -10e-4,-0.0548 -0.008,-0.084 -0.0407,-0.17092 -0.0374,-0.14319 -0.0605,-0.20117 l 0.0351,0.14648 a 3.0003,3.0003 0 0 0 -0.0566,-0.22266 c -7.8e-4,-10e-4 -0.003,-0.0128 -0.004,-0.0137 a 3.0003,3.0003 0 0 0 -0.0391,-0.15039 c -0.0277,-0.08 -0.056,-0.14289 -0.084,-0.21093 a 3.0003,3.0003 0 0 0 -0.0215,-0.0547 3.0003,3.0003 0 0 0 -0.0273,-0.0723 3.0003,3.0003 0 0 0 -0.006,-0.0137 c -0.003,-0.006 -0.005,-0.012 -0.008,-0.0176 a 3.0003,3.0003 0 0 0 -0.0376,-0.0763 c -1e-5,-2e-5 -0.0211,-0.0366 -0.0312,-0.0547 -0.017,-0.0341 -0.0323,-0.0689 -0.0508,-0.10352 l -0.01,-0.0156 c -0.0128,-0.0237 -0.0216,-0.0463 -0.0351,-0.0703 a 3.0003,3.0003 0 0 0 -0.0274,-0.043 c -0.0206,-0.0335 -0.0716,-0.12632 -0.0684,-0.12109 a 3.0003,3.0003 0 0 0 -0.01,-0.0117 c -0.10738,-0.17327 -0.11841,-0.20061 0.0234,0.0391 a 3.0003,3.0003 0 0 0 -0.043,-0.0645 3.0003,3.0003 0 0 0 -0.006,-0.006 3.0003,3.0003 0 0 0 -0.0332,-0.0508 l 0.0137,0.0254 a 3.0003,3.0003 0 0 0 -0.043,-0.0684 c -0.0382,-0.0532 0.12728,0.17261 -0.008,-0.01 a 3.0003,3.0003 0 0 0 -0.0801,-0.11914 c 0.15,0.19634 0.16185,0.21991 0.0273,0.0332 a 3.0003,3.0003 0 0 0 -0.0273,-0.0371 l -0.01,-0.0117 a 3.0003,3.0003 0 0 0 -0.0176,-0.0234 c -10e-4,-0.001 -0.003,-0.002 -0.004,-0.004 l -0.0156,-0.0215 c 0.008,0.01 -0.0193,-0.0226 -0.0137,-0.0156 0.0125,0.0154 -0.0328,-0.0386 -0.0293,-0.0352 -0.0359,-0.0454 -0.0628,-0.0771 -0.0859,-0.10352 -0.0364,-0.0428 -0.0234,-0.027 -0.0508,-0.0566 -0.0309,-0.0334 -0.0391,-0.0439 -0.0586,-0.0625 0.018,0.0247 0.0567,0.0769 0.10742,0.14649 -0.0422,-0.0483 -0.0611,-0.0681 -0.12109,-0.13672 -0.0732,-0.0838 -0.0981,-0.11264 -0.14649,-0.16797 l 0.0625,0.0586 c -3.7e-4,-4.2e-4 0.13046,0.12203 -0.11523,-0.125 l 0.15625,0.16211 c -0.0133,-0.01 -0.11028,-0.11712 -0.0937,-0.10156 a 3.0003,3.0003 0 0 0 -0.004,-0.006 3.0003,3.0003 0 0 0 -0.043,-0.041 3.0003,3.0003 0 0 0 -0.0508,-0.0508 l 0.0273,0.0293 c -10e-4,-0.001 -0.005,-8.1e-4 -0.006,-0.002 -10e-4,-0.001 -0.002,-0.004 -0.004,-0.006 -0.002,-0.002 -0.0169,-0.0207 -0.0176,-0.0215 -0.0502,-0.0459 -0.0636,-0.0572 -0.084,-0.0742 l -0.0273,-0.0234 c -0.007,-0.006 -0.0115,-0.0113 -0.0762,-0.0644 l 0.0762,0.0723 a 3.0003,3.0003 0 0 0 -0.17579,-0.15235 c -0.0232,-0.0175 -0.0186,-0.0126 -0.0254,-0.0176 l -0.0195,-0.0156 c -0.003,-0.002 -0.0271,-0.0168 -0.0332,-0.0215 -0.002,-0.002 -0.01,-0.0102 -0.0117,-0.0117 -0.0534,-0.0403 -0.067,-0.0471 -0.084,-0.0586 -0.006,-0.004 -0.0284,-0.0215 -0.0312,-0.0234 -0.002,-0.001 0.0226,0.0192 0.0254,0.0215 a 3.0003,3.0003 0 0 0 -0.0293,-0.0234 c -0.0129,-0.009 -0.009,-0.006 -0.0234,-0.0156 a 3.0003,3.0003 0 0 0 -0.006,-0.006 c -0.0818,-0.0544 -0.0479,-0.0294 -0.0742,-0.0449 -0.005,-0.003 -0.0108,-0.008 -0.0137,-0.01 -0.0553,-0.0356 -0.0481,-0.0287 -0.0625,-0.0371 l 0.17383,0.11719 c -0.20904,-0.1493 -0.34108,-0.21651 -0.37305,-0.23242 -0.3823,-0.20644 -0.40157,-0.21508 -0.0117,-0.004 a 3.0003,3.0003 0 0 0 -0.11719,-0.0606 c -0.0123,-0.006 -0.001,-2.1e-4 -0.0293,-0.0137 a 3.0003,3.0003 0 0 0 -0.0312,-0.0156 c 0.16259,0.0745 0.12263,0.0504 -0.10547,-0.0488 a 3.0003,3.0003 0 0 0 -0.0469,-0.0137 c -0.005,-0.002 -0.0122,-0.008 -0.0176,-0.01 l 0.0195,0.006 c -0.0129,-0.005 -0.0242,-0.008 -0.0371,-0.0137 -0.0105,-0.004 -0.0249,-0.0136 -0.0352,-0.0176 -0.0116,-0.005 -0.0199,-0.004 -0.0312,-0.008 -9.35346,-3.92914 -16.96926,-5.45641 -23.1582,-5.47266 z m 23.60156,5.67188 c -10e-4,-5.1e-4 -0.0108,-0.007 -0.0117,-0.008 a 3.0003,3.0003 0 0 0 -0.043,-0.0215 c 0.062,0.031 -0.0518,-0.0239 -0.0566,-0.0273 z m 0.97266,0.71875 0.13477,0.14062 c -3.8e-4,-5.1e-4 -0.004,-0.005 -0.004,-0.006 -0.0408,-0.0432 -0.0958,-0.10176 -0.11133,-0.11718 9e-4,8.9e-4 -0.002,-0.002 -0.002,-0.002 a 3.0003,3.0003 0 0 0 -0.0176,-0.0156 z m 0.0195,0.0176 0.0566,0.0566 c 0.0213,0.0239 -0.0633,-0.0671 -0.0254,-0.0273 a 3.0003,3.0003 0 0 0 -0.0312,-0.0293 z m 0.11524,0.12305 c 7.4e-4,10e-4 0.007,0.0102 0.008,0.0117 l 0.0488,0.0508 c -0.0932,-0.11189 0.002,2.8e-4 -0.043,-0.0488 z m 0.32226,0.44531 c 0.003,0.004 0.0234,0.0313 0.0234,0.0312 -1.5e-4,-2.6e-4 0.0688,0.1234 0.0508,0.0898 -0.008,-0.0149 -0.0394,-0.0639 -0.0742,-0.1211 z m 0.45313,0.74609 c -5.4e-4,-10e-4 0.0354,0.12545 0.043,0.13672 2e-4,10e-4 0.002,0.008 0.002,0.01 -0.009,-0.0129 -0.0444,-0.14537 -0.0449,-0.14648 z m 0.14257,0.36133 0.0352,0.15234 0.0644,0.20899 c -0.0411,-0.18302 -0.0799,-0.30049 -0.0996,-0.36133 z m -5.64453,0.60156 c -0.0634,0.24416 -0.12835,0.49302 -0.12304,0.47071 -0.003,0.0328 0.01,-0.0856 0.004,-0.041 l 0.10938,-0.41016 c 0.002,-0.005 2e-5,-0.001 0.002,-0.006 0.005,-0.0118 0.005,-0.007 0.008,-0.0137 z m -3.17187,0.80469 c 0.46587,0.16809 0.94554,0.35242 1.42383,0.53516 -0.38329,0.36627 -0.73642,0.64566 -1.11328,0.99218 a 3.0003,3.0003 0 0 0 -0.26368,-0.75 3.0003,3.0003 0 0 0 -0.0469,-0.77734 z m 3.17773,0.61133 c 0.011,0.022 0.0179,0.0358 0.0332,0.0664 0.002,0.004 0.002,0.004 0.004,0.008 0.0193,0.0385 0.0207,0.0415 0.041,0.082 a 3.0003,3.0003 0 0 0 0.0664,0.10742 l -0.0215,-0.0254 -0.002,-0.004 h -0.002 l -0.004,-0.006 c -10e-4,-0.002 -8.2e-4,-0.004 -0.002,-0.006 l -0.002,-0.002 -0.0176,-0.0234 -0.006,-0.0117 -0.01,-0.0156 c -0.007,-0.0121 -0.009,-0.0217 -0.0156,-0.0332 -0.003,-0.005 -0.008,-0.0126 -0.0117,-0.0195 -4.8e-4,-8.1e-4 -0.001,-10e-4 -0.002,-0.002 -3.2e-4,-5.4e-4 3.3e-4,-0.001 0,-0.002 -6.8e-4,-0.001 -0.001,-0.003 -0.002,-0.004 -0.003,-0.005 -0.004,-0.007 -0.008,-0.0137 -0.004,-0.007 -0.003,-0.007 -0.008,-0.0156 a 3.0003,3.0003 0 0 1 -0.006,-0.0137 l -0.0195,-0.0391 z m 0.13282,0.25391 a 3.0003,3.0003 0 0 0 0.0195,0.0234 3.0003,3.0003 0 0 0 0.0137,0.0234 c -0.006,-0.007 -0.008,-0.009 -0.0137,-0.0156 z m 0.0312,0.10937 a 3.0003,3.0003 0 0 0 0.0195,0.01 3.0003,3.0003 0 0 0 0.0137,0.0117 c 2.4e-4,2.2e-4 -2.5e-4,-0.002 0,-0.002 -4e-5,-6e-5 -0.002,-0.002 -0.002,-0.002 5e-4,4.6e-4 -0.002,-0.002 -0.002,-0.002 a 3.0003,3.0003 0 0 0 0.002,0 3.0003,3.0003 0 0 0 0,0.002 3.0003,3.0003 0 0 0 0.006,0.002 3.0003,3.0003 0 0 0 0.0352,0.0352 3.0003,3.0003 0 0 0 0.002,0.002 c -0.0326,-0.0458 0.0303,0.0425 0.004,0.006 a 3.0003,3.0003 0 0 0 0.004,0.002 3.0003,3.0003 0 0 0 0.008,0.006 3.0003,3.0003 0 0 0 0.0176,0.0176 3.0003,3.0003 0 0 0 0.002,0.002 3.0003,3.0003 0 0 0 0.002,0.002 3.0003,3.0003 0 0 0 0.002,0.002 c 0.003,0.004 -0.0117,-0.0144 -0.008,-0.01 a 3.0003,3.0003 0 0 1 -0.002,-0.002 c -0.001,-0.002 -6.5e-4,-4.6e-4 -0.002,-0.002 0.007,0.008 -0.0206,-0.0269 -0.0117,-0.0156 l -0.0176,-0.0215 a 3.0003,3.0003 0 0 0 0.043,0.0508 3.0003,3.0003 0 0 0 0.002,0.002 3.0003,3.0003 0 0 0 0.004,0.004 3.0003,3.0003 0 0 0 0.002,0.002 c -0.004,-0.004 -0.0179,-0.025 -0.0234,-0.0312 a 3.0003,3.0003 0 0 0 0.0273,0.0352 c 4.6e-4,5.1e-4 0.003,0.003 0.004,0.004 a 3.0003,3.0003 0 0 0 0,0.002 3.0003,3.0003 0 0 0 0.002,0 3.0003,3.0003 0 0 0 0.002,0.002 3.0003,3.0003 0 0 0 0.002,0.002 3.0003,3.0003 0 0 0 0.0254,0.0195 3.0003,3.0003 0 0 0 0.004,0.004 3.0003,3.0003 0 0 0 0.01,0.006 3.0003,3.0003 0 0 0 0.01,0.0117 3.0003,3.0003 0 0 0 0.006,0.006 l -0.0117,-0.0156 a 3.0003,3.0003 0 0 0 0.01,0.006 c -0.0289,-0.0331 -0.0414,-0.0475 -0.0801,-0.0918 -0.001,-0.001 -6e-4,-0.002 -0.002,-0.004 a 3.0003,3.0003 0 0 0 1.29687,0.68555 3.0003,3.0003 0 0 0 0.17578,0.0469 c -0.0557,-0.007 -0.11248,-0.0318 -0.16601,-0.041 a 3.0003,3.0003 0 0 0 0.0527,0.0273 c -0.002,-2.1e-4 -0.0118,-0.002 -0.0117,-0.002 l -0.32812,-0.0977 c -0.0155,-0.004 -0.0311,-0.007 -0.0469,-0.0117 a 3.0003,3.0003 0 0 0 0.375,0.21484 c 7e-4,1.9e-4 -0.67262,-0.29576 -0.77343,-0.33984 0.0275,0.0115 0.0506,0.0177 0.0781,0.0293 -0.002,-0.002 -0.0291,-0.0141 -0.0195,-0.01 0.0713,0.0342 7.5e-4,-8.5e-4 -0.006,-0.004 0.004,0.002 -0.0107,-0.004 -0.006,-0.002 a 3.0003,3.0003 0 0 1 -0.0176,-0.008 l -0.041,-0.0215 c -4e-4,-2.1e-4 -0.007,-0.004 -0.008,-0.004 l -0.082,-0.041 c 0.39946,0.21637 0.39184,0.20885 0.0195,0.008 a 3.0003,3.0003 0 0 0 0.0625,0.0332 c -0.004,-0.002 -0.049,-0.0335 -0.0566,-0.0371 -0.0182,-0.009 -0.0358,-0.0155 -0.0547,-0.0254 -0.008,-0.006 -0.031,-0.0262 -0.043,-0.0352 -0.0183,-0.01 -0.0429,-0.0296 -0.0684,-0.0449 a 3.0003,3.0003 0 0 0 0.0293,0.0273 3.0003,3.0003 0 0 0 0.0566,0.0391 c 0.007,0.005 0.041,0.0276 -0.0449,-0.0293 -0.001,-7.5e-4 -6.9e-4,7.9e-4 -0.002,0 l -0.004,-0.002 c -0.008,-0.005 0.003,9.4e-4 -0.008,-0.006 l -0.0176,-0.0137 -0.0293,-0.0195 -0.008,-0.006 -0.0937,-0.0625 a 3.0003,3.0003 0 0 0 0.0781,0.0508 3.0003,3.0003 0 0 0 0.006,0.004 l -0.008,-0.01 c -0.003,-0.002 -0.003,-0.002 -0.006,-0.004 -0.0139,-0.009 -0.0157,-0.009 -0.0312,-0.0195 -0.01,-0.007 -0.009,-0.005 -0.0195,-0.0117 -0.001,-8.4e-4 -7.4e-4,-0.001 -0.002,-0.002 -0.003,-0.002 -0.0151,-0.0159 -0.0195,-0.0195 -0.003,-0.003 -0.0117,-0.0103 -0.0156,-0.0137 a 3.0003,3.0003 0 0 1 -0.006,-0.006 c -0.001,-9.6e-4 -0.003,-0.003 -0.004,-0.004 -5.8e-4,-5e-4 -0.001,-10e-4 -0.002,-0.002 -0.004,-0.003 -0.004,-0.003 -0.008,-0.006 0.0434,0.0408 -0.051,-0.0442 0.01,0.0117 l -0.0156,-0.0156 -0.002,-0.002 -0.006,-0.006 c -10e-4,-8.6e-4 -8.6e-4,-0.001 -0.002,-0.002 l -0.002,-0.002 c 2.5e-4,4e-4 -0.006,-0.006 -0.006,-0.006 1.2e-4,2.8e-4 -0.006,-0.006 -0.006,-0.006 -1e-5,1.1e-4 -0.004,-0.004 -0.004,-0.004 l -0.002,-0.004 -0.004,-0.002 a 3.0003,3.0003 0 0 0 0.002,0.004 l -0.0156,-0.0137 c -0.0146,-0.0142 -0.0204,-0.0203 -0.0215,-0.0215 4e-5,4e-5 -0.002,-0.002 -0.002,-0.002 l -0.004,-0.004 c -0.008,-0.008 -0.0109,-0.01 -0.0195,-0.0176 -0.005,-0.006 -0.006,-0.005 -0.01,-0.01 -0.0106,-0.01 -0.0127,-0.0114 -0.0234,-0.0215 l -0.0273,-0.0254 c -0.007,-0.007 -0.008,-0.009 -0.0156,-0.0156 -0.003,-0.003 -0.003,-0.003 -0.006,-0.006 -0.007,-0.007 0.002,0.002 -0.004,-0.004 -0.0429,-0.0406 -0.065,-0.0585 -0.0957,-0.0879 z m 0.27539,0.25781 c 0.003,0.002 0.003,0.002 0.006,0.004 -0.004,-0.004 -10e-4,-0.002 -0.006,-0.006 4.8e-4,3.8e-4 -4.9e-4,0.002 0,0.002 z m 0.11914,0.0918 c 0.004,0.003 0.0127,0.0113 0.0156,0.0137 0.002,0.002 0.0104,0.007 0.0117,0.008 l -0.0195,-0.0176 c -0.003,-0.002 -0.005,-0.002 -0.008,-0.004 z m 0.0156,0.0137 c 2.5e-4,1.7e-4 -0.004,-0.002 -0.004,-0.002 a 3.0003,3.0003 0 0 0 0.002,0.002 c 10e-4,7.4e-4 0.003,0.003 0.004,0.004 2.9e-4,2e-4 0.002,-1.9e-4 0.002,0 2e-5,-1e-5 -0.004,-0.004 -0.004,-0.004 z m 0.34961,0.20508 c 0.007,0.003 0.0126,0.005 0.0195,0.008 a 3.0003,3.0003 0 0 0 0.0352,0.01 c -0.005,-0.002 -0.0124,-0.006 -0.0176,-0.008 l -0.0352,-0.0117 c 0,0 -0.002,0.002 -0.002,0.002 z m -0.69922,-0.53711 a 3.0003,3.0003 0 0 0 0.002,0.002 c 9e-5,1.3e-4 -1e-4,0.002 0,0.002 z m 0.16602,0.17383 a 3.0003,3.0003 0 0 0 0.006,0.008 c -2.4e-4,-1.3e-4 -0.002,-0.004 -0.002,-0.004 z m 0.006,0.008 0.004,0.006 h 0.002 c -3.4e-4,-1.4e-4 -0.005,-0.006 -0.006,-0.006 z m 0.0234,0.0176 a 3.0003,3.0003 0 0 0 0.0176,0.0176 c -7e-4,-8e-4 -0.005,-0.007 -0.006,-0.008 z m -0.0371,12.124997 2.97851,2.058593 a 3.0003,3.0003 0 0 0 -3.94336,0.8711 c -2.15248,3.26282 -2.0815,6.78753 -2.09961,9.05859 -0.003,0.43004 -0.0289,0.48955 -0.0449,0.82031 -0.33189,-0.17343 -0.35746,-0.10903 -1.16016,-0.58594 -1.56896,-0.93217 -4.40214,-2.0312 -7.57812,-1.0957 -3.18561,0.92006 -5.02465,2.93858 -5.88477,4.15039 -0.74759,1.05328 -0.96566,1.39556 -2.125,1.88477 0.0393,0.0267 0.17933,0.138 -0.25976,-0.28907 -0.57196,-0.55628 -1.42725,-1.72436 -2.56641,-2.99804 -0.87876,-0.98254 -2.08831,-1.97915 -3.53515,-2.79492 7.44278,-0.0909 16.39012,-3.2216 26.21875,-11.080083 z m 9.18945,6.347653 0.88867,0.61524 c 1.38671,0.95801 2.07365,2.057 2.32812,3.12305 a 3.0003,3.0003 0 0 0 0.10547,0.33007 l 1.447275,7.39844 0.92969,4.74414 a 3.0003,3.0003 0 0 0 0,0.004 c -2.8e-4,-0.001 -0.002,-0.003 -0.002,-0.004 l -0.92773,-4.74414 a 3.0003,3.0003 0 0 0 -4.685555,-1.74609 l 0.0645,-0.0547 c 1.50054,-1.27532 2.48074,-3.17398 2.38281,-5.14844 -0.0894,-1.80247 -1.12835,-3.3917 -2.53125,-4.51758 z m -47.7793,1.74024 c 1.34084,0.73994 2.89239,1.48684 4.95313,2.07226 -0.52968,0.10856 -1.01958,0.085 -1.56641,0.26368 a 3.0003,3.0003 0 0 0 -0.0156,0.006 c -1.06965,0.3562 -1.12425,0.17226 -1.14648,0.16015 -0.0222,-0.0121 -0.14678,-0.11098 -0.42188,-0.54297 a 3.0003,3.0003 0 0 0 -4.23828,-0.74218 l 1.33008,-1.12891 z m 41.69141,1.2207 2.32617,1.60547 c 0.40218,0.27784 0.30481,0.32933 0.30078,0.24805 -0.004,-0.0813 0.0976,-0.0377 -0.27539,0.27929 l -2.66211,2.26368 c 0.0237,-0.54272 0.14038,-1.14764 0.14453,-1.66797 0.008,-0.96907 0.0643,-1.86754 0.16602,-2.72852 z m -42.53906,6.38672 c 0.0826,0.0502 0.11364,0.11441 0.20117,0.16211 1.53506,0.8366 3.70901,0.99732 5.91211,0.26367 l -0.0156,0.006 c 1.87835,-0.61378 2.88706,-0.48026 3.7207,-0.16406 0.28098,0.10657 0.55643,0.4639 0.83008,0.64453 l -11.78516,0.0547 z m 30.8125,1.01953 c 0.38104,0.0944 0.72108,0.3274 1.29101,0.66602 0.80061,0.47566 2.04098,1.38516 3.70117,1.7832 l -22.12499,18.80469 c -0.74613,0.63414 -2.42847,0.71692 -3.23438,0.16015 l -8.78711,-6.07031 a 3.0003,3.0003 0 0 0 0.1836,-0.0312 l 1.60351,-1.36719 6.57031,4.52539 a 3.0003,3.0003 0 0 0 3.64844,-0.18554 l 5.18945,-4.42188 a 3.0003,3.0003 0 0 0 -0.24415,-4.75394 l -5.24804,-3.61524 0.38086,-0.32422 a 3.0003,3.0003 0 0 0 0.73046,-1.47851 c 0.24168,0.26968 0.38988,0.499 0.66602,0.76758 1.1859,1.1534 3.26381,2.38646 5.55664,1.98437 a 3.0003,3.0003 0 0 0 0.50195,-0.13281 c 3.02218,-1.09473 4.63529,-3.19745 5.40039,-4.27539 0.7651,-1.07795 0.6516,-1.28527 2.6582,-1.86328 a 3.0003,3.0003 0 0 0 0.0234,-0.006 c 0.73022,-0.21678 1.15216,-0.26046 1.53321,-0.16602 z m -34.95899,2.50586 a 3.0003,3.0003 0 0 0 -0.25195,0.83399 l 1.12695,8.59765 -6.24804,-4.31641 c -0.40292,-0.27835 -0.30684,-0.33009 -0.30274,-0.24804 0.004,0.082 -0.0977,0.0397 0.27539,-0.27735 z m -9.587887,0.4082 c -1.289693,1.26044 -2.170512,2.95017 -2.080078,4.75782 0.09038,1.80655 1.135425,3.39799 2.542969,4.52343 l -0.900401,-0.62108 c -0.154099,-0.10646 -0.312718,-0.22624 -0.482422,-0.36523 a 3.0003,3.0003 0 0 0 -4.607422,1.02734 l 2.671875,-5.5957 -0.167969,0.30664 a 3.0003,3.0003 0 0 0 0.355469,-0.73633 c 0.277344,-0.85234 0.842286,-1.74475 1.832031,-2.58594 z m 19.189457,3.00196 a 3.0003,3.0003 0 0 0 1.28515,2.30273 l 5.24413,3.61329 -0.46093,0.39258 -6.56836,-4.52539 a 3.0003,3.0003 0 0 0 -2.71289,0.13867 l -0.25,-1.9043 z m 43.02928,1.36915 c 0.41778,2.11594 0.80495,4.04112 0.79883,4.84961 -0.009,1.23572 0.3697,0.46784 -0.40821,1.1289 l -32.4414,27.57032 c -0.61921,0.52626 -1.9737,1.0405 -3.39062,1.09765 -1.41693,0.0572 -2.80912,-0.34563 -3.46875,-0.82031 L 20.463405,140.27091 c -1.24032,-0.89254 -1.71772,-1.61937 -1.875,-2.15039 -0.157279,-0.53102 -0.165764,-1.14253 0.462891,-2.37891 0.01734,-0.0336 0.03408,-0.0676 0.05078,-0.10156 a 3.0003,3.0003 0 0 0 0.01563,-0.0312 l 0.507813,-1.0625 17.763667,12.27344 c 6.02456,4.16205 14.62551,3.73232 20.20508,-1.00977 z m 6.798835,4.89648 c -0.0142,1.87232 -0.71628,4.0177 -2.44922,5.55078 1.63418,-1.45334 2.43551,-3.79876 2.44922,-5.55078 z m -34.962895,33.22461 c -3.92913,3.33936 -10.06478,3.58786 -14.25,0.57617 2.14385,1.54273 4.71315,2.04427 7.21484,1.94336 2.5017,-0.1009 5.02252,-0.80897 7.03516,-2.51953 z"
         id="path5952" /></g><path
       id="rect2360"
       style="color:#000000;fill:#dddddd;fill-opacity:1;stroke:none;stroke-width:6;stroke-linecap:round;stroke-linejoin:round;stroke-dasharray:none;stroke-opacity:1;paint-order:fill markers stroke"
       d="m 99.573767,87.264958 c -1.908101,-0.005 -3.645216,0.145795 -5.224487,0.414445 -0.263222,0.04475 -0.522259,0.09301 -0.776697,0.144177 l -10e-4,-0.001 c -1.781029,0.358084 -3.34875,0.868422 -4.724259,1.469678 -5.013183,2.19134 -7.411614,5.637859 -8.180379,6.948413 -0.13555,-0.0067 -0.271323,0.0097 -0.401526,0.04806 L 52.141003,105.9248 c -0.59042,0.18692 -0.944919,0.78865 -0.822688,1.39578 l 0.173632,0.86196 c 0.122963,0.60697 0.683496,1.02373 1.300179,0.96687 l 29.648837,-2.08773 c 0.118759,-0.0135 0.235342,-0.0434 0.345198,-0.0904 1.166493,0.88229 4.742472,3.19345 10.291362,3.26853 6.859032,0.0928 16.695857,-3.14034 28.981177,-15.718934 0.012,-0.01089 0.023,-0.02284 0.0341,-0.03462 0.0194,-0.021 0.038,-0.04277 0.0558,-0.06511 0.007,-0.0086 0.0135,-0.01679 0.0202,-0.02532 0.007,-0.01019 0.0147,-0.02 0.0212,-0.03049 0.013,-0.01848 0.0272,-0.03653 0.0393,-0.05581 0.0187,-0.02995 0.0365,-0.06058 0.0527,-0.09198 0.008,-0.01534 0.0142,-0.03142 0.0217,-0.04703 0.009,-0.01951 0.0181,-0.03949 0.0263,-0.05943 0.005,-0.01486 0.0113,-0.03016 0.0165,-0.04548 0.007,-0.02033 0.0148,-0.04073 0.0212,-0.06149 0.005,-0.01424 0.009,-0.02882 0.0114,-0.04341 0.007,-0.02723 0.0126,-0.05454 0.0176,-0.08217 0.001,-0.0052 0.004,-0.0093 0.004,-0.01447 4.8e-4,-0.0038 6e-4,-0.0067 0.002,-0.01033 0.004,-0.02746 0.008,-0.05501 0.01,-0.08268 9.5e-4,-0.01276 0.004,-0.02591 0.003,-0.03876 0.007,-0.117554 -0.002,-0.235672 -0.0289,-0.350366 -10e-4,-0.0048 -0.003,-0.0093 -0.005,-0.01447 -0.007,-0.0312 -0.0165,-0.062 -0.0264,-0.0925 -8.6e-4,-0.0057 -0.006,-0.01221 -0.007,-0.01809 -0.0113,-0.03269 -0.0241,-0.0645 -0.0382,-0.09612 -2e-4,-4.05e-4 -5.2e-4,-7.33e-4 -5.1e-4,-10e-4 -0.0149,-0.03301 -0.0313,-0.06562 -0.0491,-0.09715 -0.004,-0.0054 -0.006,-0.01144 -0.01,-0.01705 -0.007,-0.01388 -0.0159,-0.02778 -0.0243,-0.04134 -0.002,-0.0019 -0.003,-0.0033 -0.005,-0.0052 -0.004,-0.0064 -0.009,-0.01253 -0.0129,-0.01912 -0.009,-0.01178 -0.0159,-0.024 -0.0243,-0.03566 -0.004,-0.0051 -0.007,-0.0096 -0.0114,-0.01447 -0.0115,-0.01567 -0.0237,-0.03138 -0.0362,-0.04651 -0.007,-0.0096 -0.0148,-0.01859 -0.0227,-0.02739 -0.004,-0.005 -0.009,-0.0097 -0.0145,-0.01447 -0.013,-0.01498 -0.0276,-0.02969 -0.0418,-0.04392 -7.5e-4,-7.32e-4 -8e-4,-7.99e-4 -0.002,-0.0021 -0.005,-0.0046 -0.007,-0.0087 -0.0114,-0.01292 -7.4e-4,-8.21e-4 -10e-4,-0.0022 -0.002,-0.0031 -0.002,-0.0024 -0.005,-0.0051 -0.007,-0.0072 -0.007,-0.0064 -0.0146,-0.01278 -0.0222,-0.01912 -0.0149,-0.01288 -0.0299,-0.02636 -0.045,-0.03876 -7.4e-4,-8.32e-4 -0.002,-0.0033 -0.005,-0.0041 l -5.2e-4,-5.16e-4 c -0.009,-0.0068 -0.0173,-0.0128 -0.0258,-0.01912 -0.0193,-0.0146 -0.0385,-0.02932 -0.0589,-0.04289 -7.3e-4,-8.31e-4 -0.003,-0.0022 -0.004,-0.0031 -0.0128,-0.0085 -0.0259,-0.01547 -0.0388,-0.02325 -0.004,-0.003 -0.007,-0.0047 -0.0108,-0.0078 -0.007,-0.0045 -0.0148,-0.009 -0.0222,-0.01344 -0.004,-0.003 -0.009,-0.0057 -0.0139,-0.0083 -0.005,-0.0025 -0.009,-0.0049 -0.014,-0.0072 -0.005,-0.0024 -0.0102,-0.0044 -0.015,-0.0067 -0.005,-0.0027 -0.0102,-0.0041 -0.015,-0.0067 -0.0168,-0.0077 -0.0331,-0.0172 -0.0506,-0.02481 -0.001,-1.7e-4 -0.003,-3.52e-4 -0.004,-5.17e-4 -0.002,-0.0021 -0.006,-0.0036 -0.0103,-0.0041 -9.1214,-3.84428 -16.38029,-5.26165 -22.104593,-5.27668 z m -0.309542,2.414323 c 3.230495,-0.02365 7.050305,0.43937 11.553815,1.642277 -5.69141,-0.228263 -10.54311,0.239708 -14.583604,1.045414 -2.116935,0.422089 -4.01127,0.93837 -5.688542,1.492415 -3.528709,1.165609 -6.112118,2.525919 -7.776786,3.556889 0.557824,-0.998809 2.49904,-3.912513 7.049182,-5.901449 1.217701,-0.532272 2.625563,-0.994167 4.247286,-1.321883 1.534379,-0.310065 3.26035,-0.499476 5.198649,-0.513663 z m 8.481135,4.007507 c 1.88484,-0.0059 3.88022,0.06861 5.98878,0.240812 l -30.691147,6.18825 c 1.287946,-0.906502 3.969862,-2.536828 8.264095,-3.955311 0.959611,-0.316984 1.997792,-0.621932 3.115056,-0.902271 0.783331,-0.19656 1.605457,-0.380951 2.467549,-0.549837 3.098326,-0.606947 6.709027,-1.008704 10.855667,-1.021643 z m 6.49211,2.614311 c -8.80146,4.585601 -16.147794,6.222721 -21.558373,6.653861 -4.560734,0.36343 -7.689097,-0.11316 -9.20874,-0.44959 v -5.2e-4 z m -34.526573,2.709395 1.16272,5.758306 -21.236947,1.32137 z m 32.823833,0.835608 c -8.2279,6.378788 -14.743948,8.031858 -19.424651,7.968508 -4.962443,-0.0672 -7.881916,-1.99758 -8.78551,-2.70268 1.934435,0.30465 4.843085,0.55662 8.546765,0.26148 5.120553,-0.40802 11.806886,-1.84325 19.663396,-5.527308 z m 7.36389,3.554818 c -10.50807,8.98304 -19.67836,11.9356 -26.888793,11.83804 -5.360979,-0.0725 -8.824178,-1.72278 -11.14454,-3.11557 l -2.811198,0.22427 -15.050761,12.79199 c -1.368344,1.16296 -2.280271,2.5235 -2.742468,3.94394 a 3,3 0 0 0 -0.04186,0.0646 l -4.71289,9.8671 0.03307,-0.0667 c -2.94186,5.78575 -0.814095,12.32341 4.175972,15.91428 l 24.118941,17.35553 c 5.340669,3.84315 12.931625,3.53597 17.945157,-0.72502 l 32.43936,-27.5699 c 2.58353,-2.19551 3.5602,-5.28532 3.58014,-7.91837 0.0199,-2.63138 -0.62703,-4.97962 -1.01337,-6.93705 l -2.40812,-12.29899 a 3,3 0 0 0 -0.0992,-0.29456 c -0.43894,-1.83883 -1.62438,-3.57043 -3.54139,-4.89479 z m 1.59319,8.26668 5.59397,3.86437 c 2.02302,1.39758 2.1361,3.68897 0.26252,5.28133 l -31.211016,26.52654 c -1.873574,1.59236 -4.857706,1.74125 -6.880717,0.34365 L 69.290344,133.89002 c -2.02301,-1.3976 -2.13764,-3.68742 -0.264066,-5.27978 l 11.608593,-9.86607 c 0.591538,0.92891 1.77397,2.70681 5.046721,1.61696 9.522372,-3.11157 10.410234,7.73551 15.010458,6.92877 4.79852,-1.73818 3.0526,-4.70208 8.24962,-6.1991 4.64374,-1.37858 6.1308,2.72048 9.36015,2.34559 3.10753,-0.61695 0.0625,-7.028 3.18999,-11.76879 z m 9.47591,13.80898 0.92862,4.74338 a 3.0003,3.0003 0 0 0 0,0.004 c 0.43411,2.20078 0.91423,4.22347 0.90279,5.73454 -0.0114,1.51106 -0.22569,2.33937 -1.46503,3.39255 l -32.441428,27.57041 c -2.631857,2.23683 -7.751425,2.44323 -10.554912,0.42582 l -24.116874,-17.3554 c -3.154074,-2.26969 -4.068533,-4.9137 -2.334224,-8.32456 a 3.0003,3.0003 0 0 0 0.03359,-0.0661 l 2.040186,-4.27106 c 0.215594,0.17658 0.439263,0.34909 0.677478,0.51366 l 19.966223,13.79348 c 4.718775,3.25996 12.185904,2.88689 16.556091,-0.82734 z m -38.655525,1.21181 -13.220899,0.062 1.32085,10.07949 3.355868,-2.85977 8.465633,5.83168 5.18883,-4.42195 -8.465633,-5.83169 z"
       inkscape:export-filename="penshift_symbol_light.svg"
       inkscape:export-xdpi="96"
       inkscape:export-ydpi="96" /><path
       id="path5803"
       style="color:#000000;fill:#ffffff;stroke:#ffffff;stroke-width:5.95772;stroke-linecap:round;stroke-linejoin:round;stroke-dasharray:none;stroke-opacity:1;paint-order:fill markers stroke"
       d="m 17.900559,67.846593 c -1.781029,0.358085 -3.348763,0.868188 -4.724273,1.469445 -5.0131913,2.191342 -7.4115218,5.638134 -8.1802901,6.94869 -0.1355436,-0.0067 -0.2712573,0.0095 -0.4014573,0.04783 L -24.876999,86.335225 c -0.590425,0.18692 -0.945203,0.788622 -0.822963,1.395742 l 0.174064,0.861882 c 0.122963,0.606967 0.683448,1.023819 1.300132,0.966956 L 6.7703087,87.085916 c 0.1187601,-0.01345 0.2349985,-0.04367 0.3448543,-0.0907 1.1664887,0.882304 4.742813,3.193551 10.291705,3.268627 6.859039,0.09281 16.69566,-3.140594 28.980982,-15.719202 0.21997,-0.364582 0.363001,-0.780703 0.323557,-1.15331 -0.152929,-0.385282 -0.407722,-0.666346 -0.703458,-0.826053 -12.161874,-5.125712 -21.012354,-5.936764 -27.32945,-4.862168 -0.263224,0.04475 -0.522095,0.09288 -0.776528,0.144051 z"
       sodipodi:nodetypes="csccccccccscccccc" /></g></svg>
