<?xml version="1.0" encoding="UTF-8" standalone="no"?>
<!-- Created with Inkscape (http://www.inkscape.org/) -->

<svg
   width="87.504936mm"
   height="87.642464mm"
   viewBox="0 0 87.504936 87.642464"
   version="1.1"
   id="svg5"
   xml:space="preserve"
   xmlns:inkscape="http://www.inkscape.org/namespaces/inkscape"
   xmlns:sodipodi="http://sodipodi.sourceforge.net/DTD/sodipodi-0.dtd"
   xmlns="http://www.w3.org/2000/svg"
   xmlns:svg="http://www.w3.org/2000/svg"><sodipodi:namedview
     id="namedview7"
     pagecolor="#717171"
     bordercolor="#000000"
     borderopacity="0.25"
     inkscape:showpageshadow="2"
     inkscape:pageopacity="0"
     inkscape:pagecheckerboard="0"
     inkscape:deskcolor="#d1d1d1"
     inkscape:document-units="mm"
     showgrid="false" /><defs
     id="defs2" /><g
     inkscape:label="Ebene 1"
     inkscape:groupmode="layer"
     id="layer1"
     transform="translate(-51.294278,-87.264837)"><path
       id="rect2360"
       style="color:#000000;fill:#dddddd;fill-opacity:1;stroke-linecap:round;stroke-linejoin:round;paint-order:fill markers stroke"
       d="m 99.573767,87.264958 c -1.908101,-0.005 -3.645216,0.145795 -5.224487,0.414445 -0.263222,0.04475 -0.522259,0.09301 -0.776697,0.144177 l -10e-4,-0.001 c -1.781029,0.358084 -3.34875,0.868422 -4.724259,1.469678 -5.013183,2.19134 -7.411614,5.637859 -8.180379,6.948413 -0.13555,-0.0067 -0.271323,0.0097 -0.401526,0.04806 L 52.141003,105.9248 c -0.59042,0.18692 -0.944919,0.78865 -0.822688,1.39578 l 0.173632,0.86196 c 0.122963,0.60697 0.683496,1.02373 1.300179,0.96687 l 29.648837,-2.08773 c 0.118759,-0.0135 0.235342,-0.0434 0.345198,-0.0904 1.166493,0.88229 4.742472,3.19345 10.291362,3.26853 6.859032,0.0928 16.695857,-3.14034 28.981177,-15.718934 0.012,-0.01089 0.023,-0.02284 0.0341,-0.03462 0.0194,-0.021 0.038,-0.04277 0.0558,-0.06511 0.007,-0.0086 0.0135,-0.01679 0.0202,-0.02532 0.007,-0.01019 0.0147,-0.02 0.0212,-0.03049 0.013,-0.01848 0.0272,-0.03653 0.0393,-0.05581 0.0187,-0.02995 0.0365,-0.06058 0.0527,-0.09198 0.008,-0.01534 0.0142,-0.03142 0.0217,-0.04703 0.009,-0.01951 0.0181,-0.03949 0.0263,-0.05943 0.005,-0.01486 0.0113,-0.03016 0.0165,-0.04548 0.007,-0.02033 0.0148,-0.04073 0.0212,-0.06149 0.005,-0.01424 0.009,-0.02882 0.0114,-0.04341 0.007,-0.02723 0.0126,-0.05454 0.0176,-0.08217 0.001,-0.0052 0.004,-0.0093 0.004,-0.01447 4.8e-4,-0.0038 6e-4,-0.0067 0.002,-0.01033 0.004,-0.02746 0.008,-0.05501 0.01,-0.08268 9.5e-4,-0.01276 0.004,-0.02591 0.003,-0.03876 0.007,-0.117554 -0.002,-0.235672 -0.0289,-0.350366 -10e-4,-0.0048 -0.003,-0.0093 -0.005,-0.01447 -0.007,-0.0312 -0.0165,-0.062 -0.0264,-0.0925 -8.6e-4,-0.0057 -0.006,-0.01221 -0.007,-0.01809 -0.0113,-0.03269 -0.0241,-0.0645 -0.0382,-0.09612 -2e-4,-4.05e-4 -5.2e-4,-7.33e-4 -5.1e-4,-10e-4 -0.0149,-0.03301 -0.0313,-0.06562 -0.0491,-0.09715 -0.004,-0.0054 -0.006,-0.01144 -0.01,-0.01705 -0.007,-0.01388 -0.0159,-0.02778 -0.0243,-0.04134 -0.002,-0.0019 -0.003,-0.0033 -0.005,-0.0052 -0.004,-0.0064 -0.009,-0.01253 -0.0129,-0.01912 -0.009,-0.01178 -0.0159,-0.024 -0.0243,-0.03566 -0.004,-0.0051 -0.007,-0.0096 -0.0114,-0.01447 -0.0115,-0.01567 -0.0237,-0.03138 -0.0362,-0.04651 -0.007,-0.0096 -0.0148,-0.01859 -0.0227,-0.02739 -0.004,-0.005 -0.009,-0.0097 -0.0145,-0.01447 -0.013,-0.01498 -0.0276,-0.02969 -0.0418,-0.04392 -7.5e-4,-7.32e-4 -8e-4,-7.99e-4 -0.002,-0.0021 -0.005,-0.0046 -0.007,-0.0087 -0.0114,-0.01292 -7.4e-4,-8.21e-4 -10e-4,-0.0022 -0.002,-0.0031 -0.002,-0.0024 -0.005,-0.0051 -0.007,-0.0072 -0.007,-0.0064 -0.0146,-0.01278 -0.0222,-0.01912 -0.0149,-0.01288 -0.0299,-0.02636 -0.045,-0.03876 -7.4e-4,-8.32e-4 -0.002,-0.0033 -0.005,-0.0041 l -5.2e-4,-5.16e-4 c -0.009,-0.0068 -0.0173,-0.0128 -0.0258,-0.01912 -0.0193,-0.0146 -0.0385,-0.02932 -0.0589,-0.04289 -7.3e-4,-8.31e-4 -0.003,-0.0022 -0.004,-0.0031 -0.0128,-0.0085 -0.0259,-0.01547 -0.0388,-0.02325 -0.004,-0.003 -0.007,-0.0047 -0.0108,-0.0078 -0.007,-0.0045 -0.0148,-0.009 -0.0222,-0.01344 -0.004,-0.003 -0.009,-0.0057 -0.0139,-0.0083 -0.005,-0.0025 -0.009,-0.0049 -0.014,-0.0072 -0.005,-0.0024 -0.0102,-0.0044 -0.015,-0.0067 -0.005,-0.0027 -0.0102,-0.0041 -0.015,-0.0067 -0.0168,-0.0077 -0.0331,-0.0172 -0.0506,-0.02481 -0.001,-1.7e-4 -0.003,-3.52e-4 -0.004,-5.17e-4 -0.002,-0.0021 -0.006,-0.0036 -0.0103,-0.0041 -9.1214,-3.84428 -16.38029,-5.26165 -22.104593,-5.27668 z m -0.309542,2.414323 c 3.230495,-0.02365 7.050305,0.43937 11.553815,1.642277 -5.69141,-0.228263 -10.54311,0.239708 -14.583604,1.045414 -2.116935,0.422089 -4.01127,0.93837 -5.688542,1.492415 -3.528709,1.165609 -6.112118,2.525919 -7.776786,3.556889 0.557824,-0.998809 2.49904,-3.912513 7.049182,-5.901449 1.217701,-0.532272 2.625563,-0.994167 4.247286,-1.321883 1.534379,-0.310065 3.26035,-0.499476 5.198649,-0.513663 z m 8.481135,4.007507 c 1.88484,-0.0059 3.88022,0.06861 5.98878,0.240812 l -30.691147,6.18825 c 1.287946,-0.906502 3.969862,-2.536828 8.264095,-3.955311 0.959611,-0.316984 1.997792,-0.621932 3.115056,-0.902271 0.783331,-0.19656 1.605457,-0.380951 2.467549,-0.549837 3.098326,-0.606947 6.709027,-1.008704 10.855667,-1.021643 z m 6.49211,2.614311 c -8.80146,4.585601 -16.147794,6.222721 -21.558373,6.653861 -4.560734,0.36343 -7.689097,-0.11316 -9.20874,-0.44959 v -5.2e-4 z m -34.526573,2.709395 1.16272,5.758306 -21.236947,1.32137 z m 32.823833,0.835608 c -8.2279,6.378788 -14.743948,8.031858 -19.424651,7.968508 -4.962443,-0.0672 -7.881916,-1.99758 -8.78551,-2.70268 1.934435,0.30465 4.843085,0.55662 8.546765,0.26148 5.120553,-0.40802 11.806886,-1.84325 19.663396,-5.527308 z m 7.36389,3.554818 c -10.50807,8.98304 -19.67836,11.9356 -26.888793,11.83804 -5.360979,-0.0725 -8.824178,-1.72278 -11.14454,-3.11557 l -2.811198,0.22427 -15.050761,12.79199 c -1.368344,1.16296 -2.280271,2.5235 -2.742468,3.94394 a 3,3 0 0 0 -0.04186,0.0646 l -4.71289,9.8671 0.03307,-0.0667 c -2.94186,5.78575 -0.814095,12.32341 4.175972,15.91428 l 24.118941,17.35553 c 5.340669,3.84315 12.931625,3.53597 17.945157,-0.72502 l 32.43936,-27.5699 c 2.58353,-2.19551 3.5602,-5.28532 3.58014,-7.91837 0.0199,-2.63138 -0.62703,-4.97962 -1.01337,-6.93705 l -2.40812,-12.29899 a 3,3 0 0 0 -0.0992,-0.29456 c -0.43894,-1.83883 -1.62438,-3.57043 -3.54139,-4.89479 z m 1.59319,8.26668 5.59397,3.86437 c 2.02302,1.39758 2.1361,3.68897 0.26252,5.28133 l -31.211016,26.52654 c -1.873574,1.59236 -4.857706,1.74125 -6.880717,0.34365 L 69.290344,133.89002 c -2.02301,-1.3976 -2.13764,-3.68742 -0.264066,-5.27978 l 11.608593,-9.86607 c 0.591538,0.92891 1.77397,2.70681 5.046721,1.61696 9.522372,-3.11157 10.410234,7.73551 15.010458,6.92877 4.79852,-1.73818 3.0526,-4.70208 8.24962,-6.1991 4.64374,-1.37858 6.1308,2.72048 9.36015,2.34559 3.10753,-0.61695 0.0625,-7.028 3.18999,-11.76879 z m 9.47591,13.80898 0.92862,4.74338 a 3.0003,3.0003 0 0 0 0,0.004 c 0.43411,2.20078 0.91423,4.22347 0.90279,5.73454 -0.0114,1.51106 -0.22569,2.33937 -1.46503,3.39255 l -32.441428,27.57041 c -2.631857,2.23683 -7.751425,2.44323 -10.554912,0.42582 l -24.116874,-17.3554 c -3.154074,-2.26969 -4.068533,-4.9137 -2.334224,-8.32456 a 3.0003,3.0003 0 0 0 0.03359,-0.0661 l 2.040186,-4.27106 c 0.215594,0.17658 0.439263,0.34909 0.677478,0.51366 l 19.966223,13.79348 c 4.718775,3.25996 12.185904,2.88689 16.556091,-0.82734 z m -38.655525,1.21181 -13.220899,0.062 1.32085,10.07949 3.355868,-2.85977 8.465633,5.83168 5.18883,-4.42195 -8.465633,-5.83169 z"
       inkscape:export-filename="penshift_symbol_light.svg"
       inkscape:export-xdpi="96"
       inkscape:export-ydpi="96" /></g></svg>
