<?xml version="1.0" encoding="UTF-8" standalone="no"?>
<!-- Created with Inkscape (http://www.inkscape.org/) -->

<svg
   width="41.064674mm"
   height="30.09584mm"
   viewBox="0 0 41.064674 30.09584"
   version="1.1"
   id="svg5"
   xmlns:inkscape="http://www.inkscape.org/namespaces/inkscape"
   xmlns:sodipodi="http://sodipodi.sourceforge.net/DTD/sodipodi-0.dtd"
   xmlns="http://www.w3.org/2000/svg"
   xmlns:svg="http://www.w3.org/2000/svg">
  <sodipodi:namedview
     id="namedview7"
     pagecolor="#ffffff"
     bordercolor="#000000"
     borderopacity="0.25"
     inkscape:showpageshadow="2"
     inkscape:pageopacity="0.0"
     inkscape:pagecheckerboard="0"
     inkscape:deskcolor="#d1d1d1"
     inkscape:document-units="mm"
     showgrid="false" />
  <defs
     id="defs2" />
  <g
     inkscape:label="Ebene 1"
     inkscape:groupmode="layer"
     id="layer1"
     transform="translate(-48.109208,-96.280942)">
    <path
       id="rect7557"
       style="color:#000000;fill:#000000;stroke-linecap:round;stroke-linejoin:round"
       d="M 67.093062,96.280945 V 106.0266 H 60.66193 c -1.211326,2e-5 -0.871354,1.17229 -0.620117,1.42524 l 7.40885,7.58507 c 0.373705,0.35018 0.725585,0.55993 1.095541,0.57102 0.03158,6.3e-4 0.06362,1.2e-4 0.0956,-0.002 0.03178,0.002 0.0635,0.003 0.09508,0.002 0.369954,-0.0111 0.721835,-0.22084 1.09554,-0.57102 l 7.40885,-7.58507 c 0.251236,-0.25295 0.59121,-1.42522 -0.620117,-1.42524 h -6.431132 v -9.745655 z m -15.405778,5.273575 c -1.960474,0 -3.578076,1.6176 -3.578076,3.57808 v 17.66611 c 0,1.96045 1.617602,3.57807 3.578076,3.57807 h 33.908525 c 1.960474,0 3.578076,-1.61762 3.578076,-3.57807 v -6.92568 -9.36894 -1.37149 c 0,-1.96048 -1.617602,-3.57808 -3.578076,-3.57808 h -12.63127 v 2.01384 c 0,0.16692 -0.01808,0.32947 -0.05116,0.48627 h 12.68243 c 0.541203,0 0.960239,0.35156 1.056783,0.8537 h -2.67994 c -0.877814,0 -1.595768,0.71794 -1.595768,1.59576 v 9.36894 c 0,0.87781 0.717954,1.59577 1.595768,1.59577 h 2.701127 v 1.35444 H 50.609314 V 105.1326 c 0,-0.61872 0.459249,-1.07797 1.07797,-1.07797 h 12.68243 c -0.03308,-0.1568 -0.05116,-0.31935 -0.05116,-0.48627 v -2.01384 z m 32.285368,4.07624 h 2.701127 v 0.60978 h -1.82056 c -0.571721,0 -1.031979,0.46026 -1.031979,1.03198 v 7.83157 c 0,0.57171 0.460258,1.03197 1.031979,1.03197 h 1.82056 v 0.60979 h -2.701127 c -0.490025,0 -0.872815,-0.3828 -0.872815,-0.87282 v -9.36894 c 0,-0.49003 0.38279,-0.87333 0.872815,-0.87333 z m 0.958081,1.40922 h 3.286105 c 0.01077,0 0.02189,0.003 0.03204,0.008 l 5.17e-4,5.2e-4 c 0.01957,0.01 0.03762,0.0274 0.05374,0.0522 0.0014,0.002 0.0027,0.004 0.0041,0.007 0.04062,0.0669 0.06718,0.17737 0.06718,0.30334 0,0.12503 -0.02603,0.23475 -0.06615,0.30179 -0.0028,0.005 -0.0059,0.009 -0.0088,0.0134 -0.0053,0.008 -0.01088,0.0145 -0.01654,0.0207 -0.0023,0.003 -0.0049,0.005 -0.0072,0.007 -0.0085,0.008 -0.01713,0.0146 -0.02636,0.0191 l -5.17e-4,5.2e-4 h -5.17e-4 c -0.01015,0.005 -0.02075,0.008 -0.03152,0.008 h -3.286105 c -0.08753,0 -0.15813,-0.16526 -0.15813,-0.37052 0,-0.20526 0.0706,-0.37052 0.15813,-0.37052 z m 0,1.05833 h 3.286105 c 0.01077,0 0.02189,0.003 0.03204,0.008 l 5.17e-4,5.2e-4 c 0.0092,0.005 0.01781,0.011 0.02636,0.0191 0.0024,0.002 0.0049,0.005 0.0072,0.007 0.0064,0.007 0.01274,0.0145 0.0186,0.0233 0.0023,0.003 0.0045,0.007 0.0067,0.0109 0.04011,0.067 0.06615,0.17676 0.06615,0.30179 0,0.12504 -0.02603,0.23476 -0.06615,0.30179 -0.0028,0.005 -0.0059,0.009 -0.0088,0.0134 -0.0053,0.008 -0.01088,0.0145 -0.01654,0.0207 -0.0023,0.003 -0.0049,0.005 -0.0072,0.007 -0.0085,0.008 -0.01713,0.0146 -0.02636,0.0191 l -5.17e-4,5.2e-4 h -5.17e-4 c -0.01015,0.005 -0.02075,0.008 -0.03152,0.008 h -3.286105 c -0.08753,0 -0.15813,-0.16526 -0.15813,-0.37052 0,-0.20526 0.0706,-0.37052 0.15813,-0.37052 z m 0,1.05833 h 3.286105 c 0.01077,0 0.02189,0.003 0.03204,0.008 l 5.17e-4,5.1e-4 c 0.0092,0.004 0.01781,0.011 0.02636,0.0191 0.0024,0.002 0.0049,0.005 0.0072,0.007 0.0064,0.007 0.01274,0.0145 0.0186,0.0232 0.0023,0.003 0.0045,0.007 0.0067,0.0109 0.04011,0.067 0.06615,0.17676 0.06615,0.30179 0,0.12505 -0.02603,0.23476 -0.06615,0.3018 -0.0028,0.005 -0.0059,0.009 -0.0088,0.0134 -0.0053,0.008 -0.01088,0.0145 -0.01654,0.0207 -0.0023,0.003 -0.0049,0.005 -0.0072,0.007 -0.0085,0.008 -0.01713,0.0146 -0.02636,0.0191 l -5.17e-4,5.1e-4 h -5.17e-4 c -0.01015,0.005 -0.02075,0.008 -0.03152,0.008 h -3.286105 c -0.08753,0 -0.15813,-0.16525 -0.15813,-0.37052 0,-0.20526 0.0706,-0.37052 0.15813,-0.37052 z m 0,1.05834 h 3.286105 c 0.01077,0 0.02189,0.003 0.03204,0.008 l 5.17e-4,5.2e-4 c 0.0092,0.004 0.01781,0.011 0.02636,0.0191 0.0024,0.002 0.0049,0.005 0.0072,0.007 0.0064,0.007 0.01274,0.0145 0.0186,0.0233 0.0023,0.003 0.0045,0.007 0.0067,0.0109 0.04011,0.067 0.06615,0.17675 0.06615,0.30179 0,0.12503 -0.02603,0.23475 -0.06615,0.30179 -0.0028,0.005 -0.0059,0.009 -0.0088,0.0134 -0.0053,0.008 -0.01088,0.0145 -0.01654,0.0207 -0.0023,0.003 -0.0049,0.005 -0.0072,0.007 -0.0085,0.008 -0.01713,0.0146 -0.02636,0.0191 l -5.17e-4,5.2e-4 h -5.17e-4 c -0.01015,0.005 -0.02075,0.008 -0.03152,0.008 h -3.286105 c -0.08753,0 -0.15813,-0.16526 -0.15813,-0.37052 0,-0.20526 0.0706,-0.37052 0.15813,-0.37052 z m 0,1.05833 h 3.286105 c 0.01077,0 0.02189,0.003 0.03204,0.008 l 5.17e-4,5.2e-4 c 0.0092,0.004 0.01781,0.011 0.02636,0.0191 0.0024,0.002 0.0049,0.005 0.0072,0.007 0.0064,0.007 0.01274,0.0145 0.0186,0.0233 0.0023,0.003 0.0045,0.007 0.0067,0.0108 0.04011,0.067 0.06615,0.17676 0.06615,0.30179 0,0.12504 -0.02603,0.23476 -0.06615,0.30179 -0.0028,0.005 -0.0059,0.009 -0.0088,0.0134 -0.0053,0.008 -0.01088,0.0145 -0.01654,0.0207 -0.0023,0.003 -0.0049,0.005 -0.0072,0.007 -0.0085,0.008 -0.01713,0.0146 -0.02636,0.0191 l -5.17e-4,5.2e-4 h -5.17e-4 c -0.01015,0.005 -0.02075,0.008 -0.03152,0.008 h -3.286105 c -0.08753,0 -0.15813,-0.16526 -0.15813,-0.37052 0,-0.20526 0.0706,-0.37052 0.15813,-0.37052 z m 0,1.05833 h 3.286105 c 0.01077,0 0.02189,0.003 0.03204,0.008 l 5.17e-4,5.1e-4 c 0.0092,0.004 0.01781,0.011 0.02636,0.0191 0.0024,0.002 0.0049,0.005 0.0072,0.007 0.0064,0.007 0.01274,0.0145 0.0186,0.0233 0.0023,0.003 0.0045,0.007 0.0067,0.0108 0.04011,0.067 0.06615,0.17676 0.06615,0.30179 0,0.12505 -0.02603,0.23476 -0.06615,0.3018 -0.0028,0.005 -0.0059,0.009 -0.0088,0.0134 -0.0053,0.008 -0.01088,0.0145 -0.01654,0.0207 -0.0023,0.003 -0.0049,0.005 -0.0072,0.007 -0.0085,0.008 -0.01713,0.0146 -0.02636,0.0191 l -5.17e-4,5.1e-4 h -5.17e-4 c -0.01015,0.005 -0.02075,0.008 -0.03152,0.008 h -3.286105 c -0.08753,0 -0.15813,-0.16525 -0.15813,-0.37052 0,-0.20526 0.0706,-0.37052 0.15813,-0.37052 z m 0,1.05834 h 3.286105 c 0.01077,0 0.02189,0.003 0.03204,0.008 l 5.17e-4,5.2e-4 c 0.0092,0.004 0.01781,0.011 0.02636,0.0191 0.0024,0.002 0.0049,0.005 0.0072,0.007 0.0064,0.007 0.01274,0.0145 0.0186,0.0233 0.0023,0.003 0.0045,0.007 0.0067,0.0108 0.04011,0.067 0.06615,0.17675 0.06615,0.30179 0,0.12503 -0.02603,0.23475 -0.06615,0.30179 -0.0028,0.005 -0.0059,0.009 -0.0088,0.0134 -0.0053,0.008 -0.01088,0.0145 -0.01654,0.0207 -0.0023,0.003 -0.0049,0.005 -0.0072,0.007 -0.0085,0.008 -0.01713,0.0146 -0.02636,0.0191 l -5.17e-4,5.2e-4 h -5.17e-4 c -0.01015,0.005 -0.02075,0.008 -0.03152,0.008 h -3.286105 c -0.08753,0 -0.15813,-0.16526 -0.15813,-0.37052 0,-0.20526 0.0706,-0.37052 0.15813,-0.37052 z m 0,1.05833 h 3.286105 c 0.01077,0 0.02189,0.003 0.03204,0.008 l 5.17e-4,5.2e-4 c 0.0092,0.004 0.01781,0.011 0.02636,0.0191 0.0024,0.002 0.0049,0.005 0.0072,0.007 0.0064,0.007 0.01274,0.0145 0.0186,0.0233 0.0023,0.003 0.0045,0.007 0.0067,0.0108 0.04011,0.067 0.06615,0.17676 0.06615,0.30179 0,0.12504 -0.02603,0.23476 -0.06615,0.30179 -0.0028,0.005 -0.0059,0.009 -0.0088,0.0134 -0.0053,0.008 -0.01088,0.0145 -0.01654,0.0207 -0.0023,0.003 -0.0049,0.005 -0.0072,0.007 -0.0085,0.008 -0.01713,0.0146 -0.02636,0.0191 l -5.17e-4,5.2e-4 h -5.17e-4 c -0.01015,0.005 -0.02075,0.008 -0.03152,0.008 h -3.286105 c -0.08753,0 -0.15813,-0.16526 -0.15813,-0.37052 0,-0.20526 0.0706,-0.37052 0.15813,-0.37052 z m -34.321419,6.47041 h 36.064465 v 1.87999 c 0,0.61872 -0.459248,1.07848 -1.07797,1.07848 H 51.687284 c -0.618721,0 -1.07797,-0.45976 -1.07797,-1.07848 z" />
  </g>
</svg>
